<svg width="30" height="30" viewBox="0 0 30 30" fill="none" xmlns="http://www.w3.org/2000/svg">
<path d="M9.99995 7.18714C9.48745 7.18714 9.06245 6.76214 9.06245 6.24964V2.49963C9.06245 1.98713 9.48745 1.56213 9.99995 1.56213C10.5125 1.56213 10.9375 1.98713 10.9375 2.49963V6.24964C10.9375 6.76214 10.5125 7.18714 9.99995 7.18714Z" fill="white"/>
<path d="M20 7.18714C19.4875 7.18714 19.0625 6.76214 19.0625 6.24964V2.49963C19.0625 1.98713 19.4875 1.56213 20 1.56213C20.5125 1.56213 20.9375 1.98713 20.9375 2.49963V6.24964C20.9375 6.76214 20.5125 7.18714 20 7.18714Z" fill="white"/>
<path d="M10.625 18.1255C10.4625 18.1255 10.3 18.088 10.15 18.0255C9.9875 17.963 9.8625 17.8755 9.7375 17.763C9.5125 17.5255 9.375 17.213 9.375 16.8755C9.375 16.713 9.4125 16.5505 9.475 16.4005C9.5375 16.2505 9.625 16.113 9.7375 15.988C9.8625 15.8755 9.9875 15.788 10.15 15.7255C10.6 15.538 11.1625 15.638 11.5125 15.988C11.7375 16.2255 11.875 16.5505 11.875 16.8755C11.875 16.9505 11.8625 17.038 11.85 17.1255C11.8375 17.2005 11.8125 17.2755 11.775 17.3505C11.75 17.4255 11.7125 17.5005 11.6625 17.5755C11.625 17.638 11.5625 17.7005 11.5125 17.763C11.275 17.988 10.95 18.1255 10.625 18.1255Z" fill="white"/>
<path d="M15 18.1247C14.8375 18.1247 14.675 18.0872 14.525 18.0247C14.3625 17.9622 14.2375 17.8747 14.1125 17.7622C13.8875 17.5247 13.75 17.2122 13.75 16.8747C13.75 16.7122 13.7875 16.5497 13.85 16.3997C13.9125 16.2497 14 16.1122 14.1125 15.9872C14.2375 15.8747 14.3625 15.7872 14.525 15.7247C14.975 15.5247 15.5375 15.6372 15.8875 15.9872C16.1125 16.2247 16.25 16.5497 16.25 16.8747C16.25 16.9497 16.2375 17.0372 16.225 17.1247C16.2125 17.1997 16.1875 17.2747 16.15 17.3497C16.125 17.4247 16.0875 17.4997 16.0375 17.5747C16 17.6372 15.9375 17.6997 15.8875 17.7622C15.65 17.9872 15.325 18.1247 15 18.1247Z" fill="white"/>
<path d="M19.375 18.1247C19.2125 18.1247 19.05 18.0872 18.9 18.0247C18.7375 17.9622 18.6125 17.8747 18.4875 17.7622C18.4375 17.6997 18.3875 17.6372 18.3375 17.5747C18.2875 17.4997 18.25 17.4247 18.225 17.3497C18.1875 17.2747 18.1625 17.1997 18.15 17.1247C18.1375 17.0372 18.125 16.9497 18.125 16.8747C18.125 16.5497 18.2625 16.2247 18.4875 15.9872C18.6125 15.8747 18.7375 15.7872 18.9 15.7247C19.3625 15.5247 19.9125 15.6372 20.2625 15.9872C20.4875 16.2247 20.625 16.5497 20.625 16.8747C20.625 16.9497 20.6125 17.0372 20.6 17.1247C20.5875 17.1997 20.5625 17.2747 20.525 17.3497C20.5 17.4247 20.4625 17.4997 20.4125 17.5747C20.375 17.6372 20.3125 17.6997 20.2625 17.7622C20.025 17.9872 19.7 18.1247 19.375 18.1247Z" fill="white"/>
<path d="M10.625 22.4996C10.4625 22.4996 10.3 22.4622 10.15 22.3997C10 22.3372 9.8625 22.2496 9.7375 22.1371C9.5125 21.8996 9.375 21.5746 9.375 21.2496C9.375 21.0871 9.4125 20.9246 9.475 20.7746C9.5375 20.6121 9.625 20.4747 9.7375 20.3622C10.2 19.8997 11.05 19.8997 11.5125 20.3622C11.7375 20.5997 11.875 20.9246 11.875 21.2496C11.875 21.5746 11.7375 21.8996 11.5125 22.1371C11.275 22.3621 10.95 22.4996 10.625 22.4996Z" fill="white"/>
<path d="M15 22.4996C14.675 22.4996 14.35 22.3621 14.1125 22.1371C13.8875 21.8996 13.75 21.5746 13.75 21.2496C13.75 21.0871 13.7875 20.9246 13.85 20.7746C13.9125 20.6121 14 20.4747 14.1125 20.3622C14.575 19.8997 15.425 19.8997 15.8875 20.3622C16 20.4747 16.0875 20.6121 16.15 20.7746C16.2125 20.9246 16.25 21.0871 16.25 21.2496C16.25 21.5746 16.1125 21.8996 15.8875 22.1371C15.65 22.3621 15.325 22.4996 15 22.4996Z" fill="white"/>
<path d="M19.375 22.5001C19.05 22.5001 18.725 22.3626 18.4875 22.1376C18.375 22.0251 18.2875 21.8876 18.225 21.7251C18.1625 21.5751 18.125 21.4126 18.125 21.2501C18.125 21.0876 18.1625 20.9251 18.225 20.7751C18.2875 20.6126 18.375 20.4751 18.4875 20.3626C18.775 20.0751 19.2125 19.9376 19.6125 20.0251C19.7 20.0376 19.775 20.0626 19.85 20.1001C19.925 20.1251 20 20.1626 20.075 20.2126C20.1375 20.2501 20.2 20.3126 20.2625 20.3626C20.4875 20.6001 20.625 20.9251 20.625 21.2501C20.625 21.5751 20.4875 21.9001 20.2625 22.1376C20.025 22.3626 19.7 22.5001 19.375 22.5001Z" fill="white"/>
<path d="M25.625 12.2994H4.37495C3.86245 12.2994 3.43745 11.8744 3.43745 11.3619C3.43745 10.8494 3.86245 10.4244 4.37495 10.4244H25.625C26.1375 10.4244 26.5625 10.8494 26.5625 11.3619C26.5625 11.8744 26.1375 12.2994 25.625 12.2994Z" fill="white"/>
<path d="M20 28.4371H10C5.4375 28.4371 2.8125 25.8121 2.8125 21.2496V10.6246C2.8125 6.06213 5.4375 3.43713 10 3.43713H20C24.5625 3.43713 27.1875 6.06213 27.1875 10.6246V21.2496C27.1875 25.8121 24.5625 28.4371 20 28.4371ZM10 5.31213C6.425 5.31213 4.6875 7.04963 4.6875 10.6246V21.2496C4.6875 24.8246 6.425 26.5621 10 26.5621H20C23.575 26.5621 25.3125 24.8246 25.3125 21.2496V10.6246C25.3125 7.04963 23.575 5.31213 20 5.31213H10Z" fill="white"/>
</svg>
