<svg width="30" height="30" viewBox="0 0 30 30" fill="none" xmlns="http://www.w3.org/2000/svg">
<path d="M18.7125 28.4372H11.2126C4.42507 28.4372 1.52507 25.5372 1.52507 18.7497V11.2497C1.52507 4.46216 4.42507 1.56216 11.2126 1.56216H18.7125C25.5 1.56216 28.4 4.46216 28.4 11.2497V18.7497C28.4 25.5372 25.5125 28.4372 18.7125 28.4372ZM11.2126 3.43716C5.45007 3.43716 3.40007 5.48716 3.40007 11.2497V18.7497C3.40007 24.5122 5.45007 26.5622 11.2126 26.5622H18.7125C24.475 26.5622 26.525 24.5122 26.525 18.7497V11.2497C26.525 5.48716 24.475 3.43716 18.7125 3.43716H11.2126Z" fill="white"/>
<path d="M14.3128 22.5745C14.0128 22.5745 13.2878 22.462 12.8628 21.3745L11.4378 17.7745C11.2378 17.262 10.5253 16.787 9.98784 16.787L2.48784 16.812C1.97534 16.812 1.55034 16.3995 1.55034 15.8745C1.55034 15.362 1.96284 14.937 2.48784 14.937L9.98784 14.912H10.0003C11.3128 14.912 12.7128 15.862 13.2003 17.087L14.3378 19.962L16.9128 13.437C17.3003 12.4619 17.9878 12.3244 18.2753 12.2994C18.5628 12.2869 19.2628 12.3494 19.7503 13.2745L21.0503 15.737C21.2753 16.162 21.9503 16.5745 22.4378 16.5745H27.5128C28.0253 16.5745 28.4503 16.9995 28.4503 17.512C28.4503 18.0245 28.0253 18.4495 27.5128 18.4495H22.4378C21.2503 18.4495 19.9503 17.662 19.4003 16.612L18.4253 14.762L15.8003 21.3745C15.3378 22.4495 14.6003 22.5745 14.3128 22.5745Z" fill="white"/>
</svg>
