<svg width="201" height="70" viewBox="0 0 201 70" fill="none" xmlns="http://www.w3.org/2000/svg">
<path d="M198.987 0.0349434C198.88 0.0113973 198.758 0 198.637 0H188.4C188.28 0 188.169 0.0113973 188.052 0.0349434C187.269 0.201286 186.669 0.900835 186.669 1.74318V2.17536V11.6174V12.0496C186.669 12.8866 187.269 13.5899 188.052 13.7547C188.169 13.7783 188.28 13.792 188.4 13.792H198.637C198.758 13.792 198.88 13.7783 198.987 13.7547C199.777 13.5899 200.375 12.8858 200.375 12.0496V11.6174V2.17536V1.74318C200.374 0.901594 199.777 0.201286 198.987 0.0349434Z" fill="#00528F"/>
<path d="M195.359 5.74617H191.685V2.34033H189.45V11.4535H191.685V7.71037H195.359V11.4535H197.589V2.34033H195.359V5.74617Z" fill="white"/>
<path d="M16.9418 7.73468L26.503 33.4653H20.6646L18.7318 27.7345H9.1698L7.16601 33.4653H1.51416L11.1766 7.73468H16.9418ZM17.2635 23.5197L14.0377 14.0762H13.9697L10.6456 23.5197H17.2635Z" fill="white"/>
<path d="M47.8076 33.4653L37.1391 19.3726C36.2153 18.1254 35.4019 16.9557 34.5129 15.8179H34.4396C34.5499 16.7506 34.5499 18.354 34.5499 19.6019V33.4645H29.2621V7.73468H34.5499L44.7947 21.2859C45.7977 22.5756 46.6082 23.7051 47.3831 24.8391H47.4609C47.3831 23.4749 47.3831 21.7553 47.3831 20.5415V7.73545H52.6754V33.4661H47.8076V33.4653Z" fill="white"/>
<path d="M71.1383 7.73468L80.6973 33.4653H74.8589L72.9254 27.7345H63.3709L61.3596 33.4653H55.707L65.3717 7.73468H71.1383ZM71.4571 23.5197L68.2403 14.0762H68.1693L64.8347 23.5197H71.4571Z" fill="white"/>
<path d="M83.4549 7.73468H92.1286C101.179 7.73468 106.339 12.6923 106.339 20.3896C106.339 28.3573 100.442 33.4653 91.6196 33.4653H83.4541V7.73468H83.4549ZM91.7374 28.9399C98.1007 28.9399 100.635 25.0722 100.635 20.5407C100.635 15.35 97.5562 12.2624 91.6196 12.2624H88.8038V28.9399H91.7374Z" fill="white"/>
<path d="M110.277 20.5201C110.277 12.6906 115.676 7.27728 123.403 7.27728C131.135 7.27728 136.528 12.7256 136.528 20.5201C136.528 28.4407 131.1 33.7659 123.403 33.7659C115.677 33.7667 110.277 28.3982 110.277 20.5201ZM130.824 20.5201C130.824 14.9252 127.852 11.789 123.404 11.789C118.991 11.789 115.984 14.8827 115.984 20.5201C115.984 26.2008 118.991 29.3043 123.404 29.3043C127.816 29.3051 130.824 26.2015 130.824 20.5201Z" fill="white"/>
<path d="M140.746 7.73468H146.094V28.9399H155.078V33.4653H140.746V7.73468Z" fill="white"/>
<path d="M158.918 29.0701C158.174 27.6695 157.784 25.8739 157.784 23.7685V7.79126H163.129V23.457C163.129 24.7794 163.409 25.9529 163.874 26.8447C164.771 28.524 166.486 29.418 168.877 29.418C171.217 29.418 172.934 28.524 173.835 26.8447C174.342 25.9529 174.579 24.7794 174.579 23.4206V7.79126H179.926V23.7677C179.926 25.8732 179.533 27.6695 178.798 29.0694C177.119 32.3431 173.597 33.8614 168.841 33.8614C164.071 33.8622 160.596 32.3438 158.918 29.0701Z" fill="white"/>
<path d="M200.375 40.1433H1.28259V41.4215H200.375V40.1433Z" fill="white"/>
<path d="M2.3468 49.0563C2.31659 48.5041 2.31659 48.3241 1.64966 48.204C1.38984 48.1562 1.31582 48.0726 1.31582 47.9899C1.31582 47.8926 1.45178 47.8425 1.61265 47.8425C1.92685 47.8425 2.52203 47.8843 2.91176 47.8843C3.49333 47.8843 3.76524 47.8425 4.17838 47.8425C4.37098 47.8425 4.47974 47.8926 4.47974 47.9899C4.47974 48.0818 4.35512 48.1562 4.16781 48.1942C3.47823 48.3377 3.49258 48.6362 3.44348 48.9568C3.38079 49.3525 3.37701 50.1295 3.37701 52.478C3.37701 53.1328 3.38079 53.8749 3.40723 54.2546C3.44348 54.9003 3.50542 55.1312 4.27355 55.2854C4.48881 55.3233 4.58397 55.4046 4.58397 55.4912C4.58397 55.5846 4.40799 55.6454 4.26071 55.6454C3.66025 55.6454 2.81659 55.5748 2.49408 55.5748C2.13531 55.5748 2.0326 55.596 1.58773 55.596C1.36416 55.596 1.28259 55.511 1.28259 55.4358C1.28259 55.3439 1.40041 55.277 1.63758 55.2276C2.23048 55.094 2.28184 54.9155 2.3264 54.3504C2.36492 53.9318 2.38834 52.6915 2.38834 51.6752C2.38834 50.9316 2.3755 49.4482 2.3468 49.0563Z" fill="white"/>
<path d="M5.29991 51.0772C5.50082 51.0035 5.92755 50.847 6.08994 50.7278C6.20928 50.6564 6.31804 50.5987 6.37318 50.5987C6.43587 50.5987 6.49327 50.7278 6.49327 50.7749C6.49327 50.9807 6.44644 51.2686 6.44644 51.3757C6.44644 51.4311 6.50988 51.4076 6.52046 51.4076C6.99931 51.0863 7.61185 50.7521 8.10959 50.7521C8.69117 50.7521 9.02501 51.0141 9.19495 51.2056C9.45099 51.52 9.60432 52.0623 9.60432 52.6654C9.60432 52.8963 9.62698 54.6729 9.64208 54.8438C9.66474 55.0215 9.78407 55.1772 10.0809 55.2608C10.3082 55.3223 10.374 55.3801 10.374 55.4674C10.374 55.5456 10.2131 55.5958 10.0243 55.5958C9.75311 55.5958 9.47592 55.5745 9.14057 55.5745C8.84903 55.5745 8.47893 55.5958 8.32334 55.5958C8.21609 55.5958 8.05219 55.5456 8.05219 55.4553C8.05219 55.3709 8.18663 55.2988 8.32334 55.2524C8.6096 55.1393 8.66776 55.0466 8.69192 54.6471C8.71081 54.2521 8.73045 52.8105 8.73045 52.4618C8.73045 52.0289 8.52047 51.6848 8.37168 51.5732C8.24252 51.482 7.88376 51.3499 7.61261 51.3499C7.08617 51.3499 6.77877 51.5299 6.55218 51.7334C6.52121 51.7653 6.43738 51.9135 6.43738 52.019C6.43738 52.174 6.43738 54.7466 6.44795 54.8932C6.45928 55.0542 6.51139 55.1491 6.89131 55.2593C7.00913 55.298 7.10506 55.3702 7.10506 55.4423C7.10506 55.5213 6.97288 55.5829 6.80747 55.5829C6.66094 55.5829 6.33163 55.573 6.08163 55.573C5.63979 55.573 5.30066 55.6094 5.0922 55.6094C4.91471 55.6094 4.78857 55.5585 4.78857 55.4545C4.78857 55.3702 4.90187 55.3125 5.0348 55.276C5.42755 55.1491 5.50232 55.0322 5.53631 54.6053C5.56803 54.2407 5.59372 53.2039 5.59372 51.9841C5.59372 51.8474 5.56804 51.7334 5.30973 51.5192C5.15263 51.4076 5.08238 51.3499 5.08238 51.3119C5.08087 51.2321 5.20927 51.1083 5.29991 51.0772Z" fill="white"/>
<path d="M17.3823 47.9757C17.4775 48.2962 17.6776 48.837 17.9065 49.4584C18.5213 51.2053 19.4155 53.5744 19.6172 54.0635C20.0069 55.0479 20.1958 55.1398 20.732 55.2773C20.9223 55.332 21.0183 55.3927 21.0183 55.4786C21.0183 55.5598 20.9322 55.6335 20.6353 55.6335C20.2426 55.6335 19.6655 55.575 19.1414 55.575C18.7607 55.575 18.5945 55.5963 18.2924 55.5963C17.9986 55.5963 17.9253 55.5135 17.9253 55.4558C17.9253 55.3927 17.9986 55.2993 18.2086 55.2606C18.7818 55.1398 18.7328 54.9044 18.6874 54.6476C18.593 54.1638 18.2917 53.3716 18.0235 52.6021C18.0145 52.5581 17.9639 52.4867 17.6194 52.4867C16.9669 52.4867 15.9208 52.4996 15.6708 52.5353C15.6232 52.5353 15.5628 52.5885 15.5416 52.6302C15.2282 53.4058 14.9246 54.4289 14.9246 54.7251C14.9246 54.8633 14.9699 55.0707 15.5031 55.2378C15.704 55.2993 15.8264 55.3715 15.8264 55.4558C15.8264 55.5743 15.6504 55.6047 15.4925 55.6047C15.2886 55.6047 14.9956 55.5743 14.556 55.5743C14.1164 55.5743 13.5001 55.6328 13.3249 55.6328C13.1058 55.6328 13.0507 55.5841 13.0507 55.5127C13.0507 55.4436 13.133 55.332 13.3052 55.2765C13.9034 55.0707 14.0545 55.0327 14.4034 54.2527C14.6768 53.6465 16.0296 50.0349 16.5545 48.7406C16.6006 48.6441 16.6202 48.5492 16.6202 48.4884C16.6202 48.4527 16.6202 48.4314 16.6481 48.3957C16.7584 48.2507 16.914 47.9385 17.0062 47.8056C17.0885 47.7144 17.1323 47.6673 17.195 47.6673C17.238 47.6673 17.2841 47.7144 17.3823 47.9757ZM17.7622 51.8479C17.5658 51.2387 16.9427 49.4477 16.8385 49.2768C16.8052 49.2077 16.7781 49.1963 16.7433 49.2768C16.5273 49.8533 15.9132 51.5304 15.8181 51.898C15.803 51.9466 15.8287 51.9839 15.8747 51.9839C16.3528 51.9717 17.3355 51.9839 17.7252 51.9467C17.7343 51.9474 17.7735 51.8882 17.7622 51.8479Z" fill="white"/>
<path d="M23.0437 51.4472C22.9629 51.4472 22.9297 51.5741 22.9297 51.7229C22.9297 51.9144 22.9297 54.272 22.9712 54.5675C23.0128 54.9374 23.1306 55.1295 23.5422 55.2526C23.7575 55.3133 23.8655 55.3703 23.8655 55.4668C23.8655 55.5587 23.7008 55.6202 23.5203 55.6202C23.3685 55.6202 22.6449 55.5731 22.4055 55.5731C22.015 55.5731 21.6041 55.6316 21.5188 55.6316C21.3723 55.6316 21.2461 55.5731 21.2461 55.4888C21.2461 55.4341 21.3602 55.3301 21.4923 55.2974C22.0158 55.1379 22.0248 55.0308 22.0626 54.4794C22.046 54.111 22.0815 52.2197 22.0626 51.6219C22.0626 51.5619 22.0037 51.5027 21.9327 51.4981L21.5075 51.4814C21.4168 51.4814 21.3723 51.3834 21.3723 51.268C21.3889 51.2148 21.7718 51.0219 21.9327 50.9163C22.0362 50.8457 22.0815 50.8122 22.0815 50.712C22.0815 50.1165 22.2182 49.5552 22.4146 49.1101C22.6457 48.6209 23.0792 48.1189 23.5822 47.8044C23.8655 47.613 24.4146 47.3388 24.972 47.3388C25.5656 47.3388 26.0014 47.5294 26.2484 47.7968C26.2749 47.831 26.3232 47.8188 26.3443 47.7968C26.762 47.3608 27.4516 47.0297 28.0694 47.0297C28.8655 47.0297 29.1623 47.354 29.3164 47.5659C29.3882 47.6791 29.4086 47.7338 29.4086 47.8401C29.4086 48.1287 28.9607 48.4303 28.8058 48.4303C28.7477 48.4303 28.5921 48.2715 28.3557 48.0573C28.0944 47.7831 27.7847 47.6365 27.4214 47.6259C27.12 47.6259 26.9018 47.7338 26.6805 47.9882C26.3934 48.3224 26.083 49.1108 26.083 50.7591C26.083 50.7986 26.083 50.8791 26.1812 50.8791C26.4667 50.8791 26.8723 50.8958 27.3194 50.8958C28.3768 50.9064 28.5649 50.8122 28.7862 50.7386C28.901 50.7029 28.9984 50.655 29.0989 50.655C29.1676 50.655 29.1676 51.0371 29.1676 51.7214C29.1676 54.0616 29.1676 54.4581 29.2069 54.8523C29.2356 55.0832 29.3633 55.1485 29.7311 55.2587C29.9607 55.3415 29.9796 55.3779 29.9796 55.4653C29.9796 55.5572 29.8481 55.5936 29.7099 55.5936C29.4078 55.5936 29.0981 55.5572 28.7862 55.5572C28.3882 55.5572 28.0475 55.6027 27.7658 55.6027C27.6397 55.6027 27.5505 55.5572 27.5505 55.4653C27.5505 55.3901 27.608 55.3415 27.8006 55.2746C28.1155 55.1478 28.2394 55.0528 28.2416 54.8515C28.2915 54.1094 28.3074 52.0176 28.3074 51.6485C28.3074 51.571 28.2394 51.4974 28.1873 51.4799C27.8542 51.429 26.6805 51.4047 26.148 51.4685C26.1261 51.4685 26.0611 51.5012 26.0611 51.5839C26.0611 51.8597 26.0709 54.4057 26.083 54.5644C26.083 55.0186 26.052 55.1364 26.7885 55.2959C26.9999 55.3407 27.0437 55.4402 27.0437 55.4873C27.0437 55.5708 26.8919 55.6179 26.7507 55.6179C26.6132 55.6179 25.9244 55.5708 25.6132 55.5708C25.1865 55.5708 24.8851 55.6179 24.6026 55.6179C24.4735 55.6179 24.3406 55.5708 24.3406 55.4873C24.3406 55.4007 24.4735 55.3285 24.5739 55.3111C25.0974 55.166 25.1706 55.03 25.1706 54.4649C25.1706 54.0608 25.1986 52.2569 25.1986 51.5505C25.1986 51.5019 25.1253 51.4442 25.0883 51.4442H23.0437V51.4472ZM25.0883 50.9079C25.1374 50.9079 25.1986 50.8555 25.1986 50.8138C25.1986 49.8909 25.4576 49.0865 25.7409 48.5617C25.7507 48.5374 25.7409 48.4652 25.7152 48.4318C25.506 48.1697 25.0671 47.8674 24.3504 47.8674C24.0226 47.8674 23.6744 48.0725 23.4146 48.4447C23.1532 48.7812 22.9387 49.5461 22.9387 50.7606C22.9387 50.8138 22.9705 50.9079 23.0543 50.9079H25.0883Z" fill="white"/>
<path d="M30.8492 47.5136C31.3961 47.3184 31.7556 47.247 32.0698 47.0381C32.1068 47.0176 32.1763 47.1118 32.1763 47.1649C32.1446 47.465 32.0698 48.8154 32.0698 50.4173C32.0698 52.1651 32.0502 54.4468 32.1068 54.7711C32.1544 55.0111 32.2042 55.1494 32.7103 55.2982C32.8938 55.343 32.9837 55.4031 32.9837 55.4767C32.9837 55.558 32.8183 55.6036 32.6771 55.6036C32.3885 55.6036 31.8817 55.5732 31.668 55.5732C31.3961 55.5732 30.8727 55.6036 30.6279 55.6036C30.3915 55.6036 30.2858 55.5732 30.2858 55.4767C30.2858 55.3917 30.424 55.3309 30.5509 55.3127C31.0977 55.182 31.1242 54.9762 31.1604 54.3769C31.1816 53.9227 31.242 52.6292 31.242 50.7394C31.242 49.853 31.205 48.5959 31.205 48.2359C31.205 48.1455 31.1967 48.0711 30.9233 47.9017C30.7171 47.7581 30.6846 47.7262 30.6846 47.6799C30.6838 47.6275 30.7163 47.5447 30.8492 47.5136Z" fill="white"/>
<path d="M33.9357 51.0987C34.376 51.0037 34.9364 50.7402 35.1132 50.6893C35.1555 50.6893 35.2189 50.8138 35.2189 50.8245C35.2189 50.9597 35.1434 52.5107 35.1434 53.192C35.1434 53.8657 35.1555 54.364 35.1728 54.7817C35.1849 55.1691 35.4455 55.1835 35.7438 55.2846C35.9311 55.3438 36.0021 55.4038 36.0021 55.4904C36.0021 55.5595 35.8579 55.6043 35.728 55.6043C35.6472 55.6043 35.0543 55.574 34.8035 55.574C34.4153 55.574 33.9938 55.621 33.7899 55.621C33.6033 55.621 33.4893 55.574 33.4893 55.4904C33.4893 55.416 33.5671 55.3605 33.7718 55.299C34.0459 55.2268 34.2197 55.0848 34.2468 54.9587C34.2786 54.7985 34.2891 54.0807 34.2891 53.729C34.2891 53.7085 34.305 52.0117 34.2786 51.8635C34.268 51.7808 34.1419 51.6858 33.7899 51.4321C33.7242 51.385 33.6977 51.3516 33.6977 51.3015C33.697 51.2156 33.799 51.1275 33.9357 51.0987ZM35.2975 48.9005C35.2975 49.2226 34.9651 49.4808 34.7325 49.4808C34.6471 49.4808 34.4553 49.4368 34.3518 49.3373C34.2582 49.2309 34.1736 49.101 34.1736 48.9013C34.1736 48.7904 34.2197 48.5975 34.311 48.4661C34.4349 48.3635 34.6162 48.3081 34.7816 48.3081C35.0981 48.3073 35.2975 48.6787 35.2975 48.9005Z" fill="white"/>
<path d="M39.7075 51.3012C39.8865 51.5541 39.9484 51.7941 39.9484 52.2954C39.9484 52.761 39.8993 54.2733 39.8993 54.4039C39.8993 54.9493 40.2777 54.9972 40.3706 54.9972C40.419 54.9972 40.6924 54.9151 40.823 54.8194C40.8578 54.7989 40.8721 54.8194 40.8955 54.8544C40.9333 54.8946 40.9333 54.9592 40.9333 54.9774C40.9333 55.2 40.3993 55.721 39.8616 55.721C39.5912 55.721 39.2437 55.5592 39.1055 55.1179C39.1055 55.105 39.0572 55.0549 39.0322 55.0701C38.5889 55.3792 38.0813 55.5835 37.9635 55.6207C37.8253 55.6656 37.5488 55.6952 37.4869 55.6952C37.0707 55.6952 36.6644 55.1772 36.6644 54.5824C36.6644 54.3637 36.7618 54.1351 36.8955 53.9664C37.0126 53.8138 37.1901 53.7522 37.3653 53.6702C37.5496 53.5943 38.4952 53.3391 38.7619 53.2517C39.0322 53.1704 39.1055 53.1081 39.1055 53.0352C39.1168 52.9274 39.1229 52.1997 39.1229 52.0539C39.1229 51.7539 38.7815 51.2564 38.1946 51.2564C37.9507 51.2564 37.7913 51.3217 37.7143 51.384C37.644 51.4204 37.6055 51.6369 37.6259 51.8769C37.6259 51.9134 37.5806 51.984 37.5602 52.0106C37.4401 52.1002 36.8457 52.4018 36.7883 52.4018C36.7112 52.4018 36.6432 52.3061 36.6432 52.2438C36.6432 51.8982 36.9748 51.5632 37.5345 51.1926C37.8804 50.948 38.4159 50.7391 38.638 50.7391C39.2324 50.7399 39.5292 51.0384 39.7075 51.3012ZM38.9189 54.8627C38.9945 54.8187 39.0662 54.5916 39.0662 54.5672C39.0874 54.2824 39.0874 53.873 39.0874 53.6353C39.0874 53.5943 39.0413 53.5396 38.9945 53.5396C38.6637 53.5396 38.0896 53.7409 37.7709 53.9026C37.6546 53.9778 37.5322 54.0629 37.5322 54.3493C37.5322 54.8771 38.0337 55.0701 38.2845 55.0701C38.4597 55.0701 38.6961 54.9873 38.9189 54.8627Z" fill="white"/>
<path d="M44.182 50.8555C44.1971 50.8555 44.3179 50.9178 44.3179 50.9596C44.3179 50.9178 44.3481 51.2581 44.3481 51.4085C44.3481 51.5201 44.1261 51.5429 44.043 51.5429H42.7462C42.6895 51.5429 42.6404 51.6014 42.6404 51.6242C42.6321 51.8634 42.62 53.6241 42.62 54.1991C42.62 54.4991 42.6895 54.6487 42.8194 54.7824C43.04 54.9882 43.2975 55.0133 43.546 55.0133C43.6963 55.0133 43.9486 54.9389 44.1261 54.8333C44.2341 54.7733 44.2545 54.7634 44.3028 54.7634C44.3187 54.7634 44.3768 54.7824 44.3768 54.8956C44.3768 54.989 44.2945 55.1067 44.2099 55.185C43.8866 55.5017 43.4652 55.7227 42.938 55.7227C42.4523 55.7227 42.0347 55.4182 41.8949 55.1515C41.7605 54.9503 41.7401 54.6981 41.7401 54.3654C41.7401 53.9256 41.79 52.1331 41.79 51.7146C41.79 51.6257 41.5762 51.5437 41.3307 51.4738C41.2371 51.4335 41.1661 51.3781 41.1661 51.3432C41.1661 51.2915 41.2038 51.2414 41.2378 51.2072C41.6548 50.873 42.0203 50.5859 42.1895 50.3831C42.3353 50.2137 42.4138 50.1195 42.4637 50.1195C42.5181 50.1195 42.6321 50.2296 42.6321 50.2562V50.8153C42.6321 50.8487 42.6744 50.9094 42.7273 50.9094C42.9856 50.9079 44.1351 50.8555 44.182 50.8555Z" fill="white"/>
<path d="M45.2299 51.0987C45.6657 51.0037 46.2306 50.7402 46.4066 50.6893C46.4519 50.6893 46.5108 50.8138 46.5108 50.8245C46.5108 50.9597 46.4421 52.5107 46.4421 53.192C46.4421 53.8657 46.4519 54.364 46.4625 54.7817C46.4723 55.1691 46.7367 55.1835 47.0328 55.2846C47.2231 55.3438 47.3001 55.4038 47.3001 55.4904C47.3001 55.5595 47.1544 55.6043 47.0237 55.6043C46.9376 55.6043 46.3432 55.574 46.0939 55.574C45.7065 55.574 45.2933 55.621 45.0833 55.621C44.8945 55.621 44.7797 55.574 44.7797 55.4904C44.7797 55.416 44.8598 55.3605 45.063 55.299C45.3341 55.2268 45.5154 55.0848 45.535 54.9587C45.5766 54.7985 45.5849 54.0807 45.5849 53.729C45.5849 53.7085 45.5954 52.0117 45.5758 51.8635C45.5577 51.7808 45.4315 51.6858 45.0826 51.4321C45.0176 51.385 44.992 51.3516 44.992 51.3015C44.992 51.2156 45.1 51.1275 45.2299 51.0987ZM46.5992 48.9005C46.5992 49.2226 46.2593 49.4808 46.0237 49.4808C45.9466 49.4808 45.7533 49.4368 45.643 49.3373C45.5486 49.2309 45.4701 49.101 45.4701 48.9013C45.4701 48.7904 45.5146 48.5975 45.6068 48.4661C45.7268 48.3635 45.9074 48.3081 46.072 48.3081C46.396 48.3073 46.5992 48.6787 46.5992 48.9005Z" fill="white"/>
<path d="M52.8068 53.1799C52.8068 54.1734 52.2116 54.9489 51.7758 55.2375C51.3022 55.5838 50.8355 55.7213 50.2984 55.7213C49.7561 55.7213 49.1572 55.4676 48.7237 55.0939C48.2078 54.6724 47.8422 53.8657 47.8422 53.2626C47.8422 52.3565 48.2176 51.7808 48.6708 51.3979C49.0409 51.0774 49.6345 50.7409 50.4359 50.7409C51.6051 50.7402 52.8068 51.6744 52.8068 53.1799ZM49.4321 51.4473C49.1255 51.7344 48.849 52.3557 48.849 52.9725C48.849 53.372 48.8981 53.7419 48.9941 54.0404C49.2894 54.9382 49.9676 55.3712 50.5386 55.3712C50.6723 55.3712 50.9321 55.3142 51.2584 54.977C51.5605 54.6473 51.7977 53.9143 51.7977 53.3963C51.7977 52.772 51.6497 52.0929 51.2025 51.5635C50.9404 51.2795 50.5107 51.0987 50.2025 51.0987C49.9563 51.0987 49.6829 51.2324 49.4321 51.4473Z" fill="white"/>
<path d="M53.9812 51.0772C54.179 51.0035 54.6088 50.847 54.7712 50.7278C54.8943 50.6564 54.997 50.5987 55.0642 50.5987C55.1209 50.5987 55.1798 50.7278 55.1798 50.7749C55.1798 50.9807 55.1322 51.2686 55.1322 51.3757C55.1322 51.4311 55.1896 51.4076 55.2009 51.4076C55.6768 51.0863 56.2999 50.7521 56.7984 50.7521C57.3777 50.7521 57.7062 51.0141 57.8762 51.2056C58.139 51.52 58.2939 52.0623 58.2939 52.6654C58.2939 52.8963 58.315 54.6729 58.3324 54.8438C58.3543 55.0215 58.4706 55.1772 58.7674 55.2608C58.9948 55.3223 59.0643 55.3801 59.0643 55.4674C59.0643 55.5456 58.8973 55.5958 58.7047 55.5958C58.4344 55.5958 58.1602 55.5745 57.8294 55.5745C57.5333 55.5745 57.1662 55.5958 57.0114 55.5958C56.8981 55.5958 56.7365 55.5456 56.7365 55.4553C56.7365 55.3709 56.8641 55.2988 57.0114 55.2524C57.2946 55.1393 57.349 55.0466 57.3777 54.6471C57.3988 54.2521 57.414 52.8105 57.414 52.4618C57.414 52.0289 57.1995 51.6848 57.0544 51.5732C56.9253 51.482 56.5673 51.3499 56.2991 51.3499C55.7772 51.3499 55.463 51.5299 55.241 51.7334C55.2009 51.7653 55.1216 51.9135 55.1216 52.019C55.1216 52.174 55.1216 54.7466 55.1322 54.8932C55.142 55.0542 55.1896 55.1491 55.5733 55.2593C55.6926 55.298 55.7886 55.3702 55.7886 55.4423C55.7886 55.5213 55.6564 55.5829 55.4849 55.5829C55.3452 55.5829 55.0114 55.573 54.7614 55.573C54.3248 55.573 53.9811 55.6094 53.7802 55.6094C53.5975 55.6094 53.4691 55.5585 53.4691 55.4545C53.4691 55.3702 53.5884 55.3125 53.7198 55.276C54.1095 55.1491 54.1798 55.0322 54.2153 54.6053C54.2531 54.2407 54.2765 53.2039 54.2765 51.9841C54.2765 51.8474 54.2538 51.7334 53.9932 51.5192C53.8361 51.4076 53.7727 51.3499 53.7727 51.3119C53.7712 51.2321 53.8981 51.1083 53.9812 51.0772Z" fill="white"/>
<path d="M63.6016 50.8701C63.8138 50.8701 63.9082 50.9483 63.9082 51.003C63.9082 51.0767 63.8138 51.1458 63.6091 51.1929C63.3554 51.2392 63.2919 51.3843 63.3954 51.66C63.5419 52.1302 64.3387 54.1726 64.4165 54.3154C64.4551 54.3914 64.5019 54.377 64.523 54.3154C64.6499 54.0579 65.1212 53.0348 65.3516 52.4978C65.4181 52.3687 65.4181 52.3057 65.4181 52.2586C65.4045 52.1743 65.3146 51.8628 65.2239 51.6843C65.094 51.4466 65.0019 51.2567 64.7292 51.183C64.5714 51.1299 64.4679 51.0858 64.4679 50.9916C64.4679 50.9073 64.5464 50.8701 64.7511 50.8701C64.9158 50.8701 65.2753 50.9073 65.5427 50.9073C65.7625 50.9073 66.1182 50.8701 66.3826 50.8701C66.551 50.8701 66.665 50.9309 66.665 51.003C66.665 51.0858 66.5752 51.1595 66.3826 51.1929C66.0676 51.2689 66.0314 51.4071 66.0314 51.4588C66.0314 51.5415 66.0903 51.6608 66.1771 51.8879C66.2436 52.0618 66.8425 53.6918 67.0888 54.282C67.1167 54.3625 67.1598 54.3367 67.199 54.2714C67.3947 53.8377 67.7527 52.8814 67.9913 52.2684C68.1243 51.9198 68.19 51.6593 68.19 51.5529C68.19 51.4306 68.1711 51.2879 67.7308 51.183C67.6235 51.1451 67.4543 51.098 67.4543 50.9916C67.4543 50.9164 67.6114 50.8701 67.7308 50.8701C67.8629 50.8701 68.2904 50.9073 68.4679 50.9073C68.8614 50.9073 69.1552 50.8466 69.341 50.8466C69.4876 50.8466 69.5956 50.8967 69.5956 50.9681C69.5956 51.0767 69.4687 51.1078 69.3222 51.1451C68.9294 51.2681 68.8826 51.3965 68.6877 51.7223C68.301 52.4295 67.909 53.4055 67.5502 54.2942C67.3493 54.7978 67.1734 55.1828 67.0555 55.5831C67.014 55.7047 66.9604 55.729 66.8984 55.729C66.8433 55.729 66.7444 55.6439 66.6749 55.5444C66.6273 55.4153 66.4815 54.9481 66.3629 54.6633C66.2073 54.282 65.8282 53.3219 65.6235 52.8313C65.6167 52.8108 65.5548 52.8108 65.5434 52.8449C65.2557 53.445 64.8252 54.3633 64.4687 55.2603C64.4173 55.3925 64.2783 55.7525 64.1726 55.7525C64.0676 55.7525 63.9996 55.7206 63.952 55.574C63.9331 55.5125 63.7783 55.0704 63.6023 54.5479C63.5109 54.304 62.8312 52.5669 62.5751 51.9844C62.3908 51.5415 62.2451 51.2689 61.9143 51.183C61.7451 51.1451 61.6167 51.0759 61.6167 51.003C61.6167 50.8967 61.736 50.8549 61.9656 50.8549C62.1627 50.8549 62.5094 50.9073 62.7685 50.9073C63.0623 50.9073 63.3954 50.8701 63.6016 50.8701Z" fill="white"/>
<path d="M70.1687 51.0987C70.6037 51.0037 71.1619 50.7402 71.3379 50.6893C71.3907 50.6893 71.4429 50.8138 71.4429 50.8245C71.4429 50.9597 71.3749 52.5107 71.3749 53.192C71.3749 53.8657 71.3908 54.364 71.3975 54.7817C71.4089 55.1691 71.6763 55.1835 71.967 55.2846C72.1566 55.3438 72.2299 55.4038 72.2299 55.4904C72.2299 55.5595 72.0864 55.6043 71.9572 55.6043C71.8779 55.6043 71.2812 55.574 71.0297 55.574C70.6362 55.574 70.2246 55.621 70.0214 55.621C69.8296 55.621 69.7087 55.574 69.7087 55.4904C69.7087 55.416 69.7963 55.3605 70.0003 55.299C70.2714 55.2268 70.4512 55.0848 70.4723 54.9587C70.5055 54.7985 70.5161 54.0807 70.5161 53.729C70.5161 53.7085 70.5259 52.0117 70.5055 51.8635C70.4957 51.7808 70.3613 51.6858 70.0207 51.4321C69.9481 51.385 69.9262 51.3516 69.9262 51.3015C69.9278 51.2156 70.0388 51.1275 70.1687 51.0987ZM71.529 48.9005C71.529 49.2226 71.1981 49.4808 70.9602 49.4808C70.8756 49.4808 70.6838 49.4368 70.5796 49.3373C70.4829 49.2309 70.399 49.101 70.399 48.9013C70.399 48.7904 70.4519 48.5975 70.5388 48.4661C70.6634 48.3635 70.8409 48.3081 71.0056 48.3081C71.3288 48.3073 71.529 48.6787 71.529 48.9005Z" fill="white"/>
<path d="M75.807 50.8555C75.8153 50.8555 75.9339 50.9178 75.9339 50.9596C75.9339 50.9178 75.9694 51.2581 75.9694 51.4085C75.9694 51.5201 75.7421 51.5429 75.656 51.5429H74.3644C74.3025 51.5429 74.2579 51.6014 74.2579 51.6242C74.2504 51.8634 74.233 53.6241 74.233 54.1991C74.233 54.4991 74.3017 54.6487 74.4377 54.7824C74.662 54.9882 74.9135 55.0133 75.1605 55.0133C75.3146 55.0133 75.5661 54.9389 75.7421 54.8333C75.8501 54.7733 75.8697 54.7634 75.9211 54.7634C75.9339 54.7634 75.9973 54.7824 75.9973 54.8956C75.9973 54.989 75.9082 55.1067 75.8259 55.185C75.5094 55.5017 75.0917 55.7227 74.5547 55.7227C74.0683 55.7227 73.6544 55.4182 73.5139 55.1515C73.3848 54.9503 73.3561 54.6981 73.3561 54.3654C73.3561 53.9256 73.4074 52.1331 73.4074 51.7146C73.4074 51.6257 73.1945 51.5437 72.9565 51.4738C72.8599 51.4335 72.7866 51.3781 72.7866 51.3432C72.7866 51.2915 72.8236 51.2414 72.8599 51.2072C73.273 50.873 73.6423 50.5859 73.8077 50.3831C73.9535 50.2137 74.0306 50.1195 74.0759 50.1195C74.1439 50.1195 74.2496 50.2296 74.2496 50.2562V50.8153C74.2496 50.8487 74.2919 50.9094 74.3425 50.9094C74.6038 50.9079 75.7617 50.8555 75.807 50.8555Z" fill="white"/>
<path d="M80.7796 51.2888C81.0198 51.6161 81.1247 52.062 81.1247 52.5785C81.1346 53.3396 81.1648 54.0801 81.1693 54.7979C81.1693 55.0934 81.3287 55.183 81.6361 55.2597C81.8747 55.3129 81.9669 55.379 81.9669 55.4549C81.9669 55.559 81.8747 55.6038 81.6466 55.6038C81.2403 55.6038 81.1081 55.5734 80.7048 55.5734C80.4329 55.5734 80.1987 55.5947 79.8513 55.5947C79.6768 55.5947 79.6142 55.5377 79.6142 55.4541C79.6142 55.3782 79.7214 55.3205 79.8672 55.2825C80.1617 55.1815 80.1995 55.1481 80.2426 54.6954C80.2667 54.466 80.2426 53.155 80.2426 52.9613C80.2426 52.3058 80.1821 51.92 80.0575 51.765C79.8672 51.5409 79.556 51.3746 79.0907 51.3746C78.5854 51.3746 78.1874 51.5994 78.1421 51.6495C78.1209 51.6723 77.9638 51.8615 77.954 52.2344C77.9185 52.7319 77.9185 54.2935 77.9314 54.7235C77.954 55.1169 78.1209 55.1822 78.3944 55.2589C78.5522 55.3121 78.6557 55.3911 78.6557 55.4541C78.6557 55.5582 78.5205 55.5947 78.3619 55.5947C78.2644 55.5947 77.67 55.5734 77.3785 55.5734C77.1111 55.5734 76.6783 55.6038 76.4774 55.6038C76.3755 55.6038 76.2063 55.5734 76.2063 55.4549C76.2063 55.3919 76.3045 55.3212 76.5522 55.2521C76.8611 55.1389 76.982 55.0113 77.0175 54.567C77.0462 54.0626 77.1345 52.681 77.1345 49.6155C77.1345 49.2076 77.1443 48.7405 77.0968 48.3956C77.0582 48.0804 77.0371 48.0584 76.7093 47.8412C76.6594 47.8199 76.5877 47.6999 76.5877 47.5996C76.5877 47.5571 76.6232 47.5449 76.6232 47.5449C76.9918 47.4378 77.5265 47.3186 77.8082 47.1272C77.8566 47.1013 77.9646 47.0383 78.0318 47.0383C78.0802 47.0383 78.1081 47.1408 78.1081 47.1781C77.9933 48.0333 77.9412 51.0146 77.9412 51.3609C77.9412 51.4323 78.0137 51.4475 78.0228 51.4323C78.5084 50.9933 79.0228 50.7411 79.5205 50.7411C80.1157 50.7396 80.5296 50.9485 80.7796 51.2888Z" fill="white"/>
<path d="M0.273415 69.0514C0.309669 69.0195 0.494716 68.8979 0.55665 68.8979C0.60801 68.8979 0.842155 68.9792 0.925238 69.043C1.15031 69.1873 1.37614 69.2921 1.53778 69.2921C1.74322 69.2921 1.85198 69.2587 2.01739 69.062C2.20848 68.8607 2.31648 68.5789 2.34669 68.0723C2.39881 67.3348 2.42298 66.0344 2.42298 64.3399C2.42298 62.6187 2.39881 61.3966 2.34669 60.8186C2.3263 60.5869 2.25984 60.2823 1.64956 60.1729C1.37615 60.1258 1.28249 60.0438 1.28249 59.9512C1.28249 59.8517 1.3769 59.803 1.60198 59.803C1.97056 59.803 2.39881 59.8433 2.92072 59.8433C3.33839 59.8433 3.8029 59.803 4.16771 59.803C4.30744 59.803 4.4887 59.8258 4.4887 59.9276C4.4887 60.0438 4.37919 60.1183 4.13145 60.1631C3.65939 60.2588 3.45396 60.4297 3.45396 61.0335C3.45396 62.0149 3.40637 65.4313 3.40637 66.4583C3.39731 67.9044 2.73416 68.9572 2.12388 69.4266C1.57705 69.8405 1.08083 70 0.772666 70C0.379914 70 0 69.7608 0 69.5344C0 69.4266 0.1571 69.1759 0.273415 69.0514Z" fill="white"/>
<path d="M13.6753 63.5874C13.6753 65.2607 12.8543 66.4327 11.9895 67.0555C11.241 67.5781 10.2538 67.7497 9.65339 67.7497C8.4419 67.7497 7.2863 67.2196 6.55971 66.3848C5.93282 65.6754 5.57556 64.713 5.57556 63.6808C5.57556 62.2103 6.21831 61.191 7.12089 60.4626C7.70548 59.9825 8.7274 59.624 9.55746 59.624C11.8332 59.6248 13.6753 61.3125 13.6753 63.5874ZM7.65866 60.7018C7.13902 61.2145 6.73116 62.1191 6.73116 63.519C6.73116 65.2979 8.03933 67.3464 9.93662 67.3464C10.9185 67.3464 11.377 66.9119 11.5061 66.7638C11.9789 66.3377 12.5159 65.3662 12.5159 63.9482C12.5159 62.644 11.9548 61.3877 11.0733 60.6707C10.5869 60.2719 9.83994 60.022 9.29538 60.022C8.79462 60.022 8.06878 60.2833 7.65866 60.7018Z" fill="white"/>
<path d="M17.0176 63.3805C17.7162 63.3805 19.3326 63.3486 21.43 63.3486C21.5093 63.3486 21.5418 63.2779 21.5622 63.041C21.5758 62.8807 21.5758 61.3137 21.5426 60.8436C21.5101 60.4091 21.4194 60.3088 20.8885 60.1638C20.7193 60.1189 20.5939 60.0453 20.5939 59.9313C20.5939 59.8523 20.7102 59.8037 20.9557 59.8037C21.112 59.8037 21.8704 59.8265 22.1687 59.8265C22.5766 59.8265 23.1204 59.7939 23.2503 59.7939C23.4383 59.7939 23.5849 59.8432 23.5849 59.9313C23.5849 59.9951 23.4889 60.0802 23.2412 60.1402C22.7435 60.2587 22.6476 60.4737 22.6211 60.8193C22.563 61.433 22.5282 62.7341 22.5282 64.7712C22.5282 65.2968 22.5758 66.3632 22.5758 66.5394C22.5962 67.0043 22.7185 67.0559 23.2495 67.2094C23.4172 67.2732 23.5222 67.356 23.5222 67.4395C23.5222 67.5345 23.4164 67.5702 23.1929 67.5702C23.0018 67.5702 22.5758 67.5345 22.208 67.5345C21.9459 67.5345 21.0509 67.6104 20.816 67.6104C20.637 67.6104 20.5184 67.5793 20.5184 67.4722C20.5184 67.3666 20.649 67.296 20.7782 67.2603C21.4187 67.0635 21.4799 66.9337 21.5199 66.0883C21.541 65.5854 21.5607 64.7575 21.5607 64.1598C21.5607 63.9486 21.5199 63.9076 21.4179 63.9076C19.5826 63.9076 17.2389 63.8765 17.007 63.8962C16.9693 63.8962 16.8741 64.0048 16.8741 64.0982C16.8492 64.4135 16.8741 65.9409 16.8741 66.2918C16.8847 66.8516 17.0161 67.0643 17.5161 67.2208C17.7789 67.2967 17.8605 67.3469 17.8703 67.4623C17.8847 67.558 17.6792 67.5793 17.5274 67.5793C17.4406 67.5793 16.7215 67.5345 16.2933 67.5345C16.0199 67.5345 15.5153 67.5793 15.1158 67.5793C14.856 67.5793 14.7563 67.5345 14.7563 67.4623C14.7563 67.3469 14.9035 67.2739 15.0304 67.2337C15.6399 67.0818 15.7276 66.958 15.7774 66.4908C15.819 66.0032 15.8869 64.6489 15.8869 62.7014C15.8869 62.488 15.9141 61.3882 15.8869 60.8572C15.868 60.4539 15.794 60.283 15.2918 60.1744C15.0463 60.1273 14.9587 60.0453 14.9587 59.9526C14.9587 59.8645 15.1158 59.8166 15.3061 59.8166C15.6399 59.8166 16.0773 59.844 16.3816 59.844C16.8854 59.844 17.2397 59.8166 17.5161 59.8166C17.7631 59.8166 17.89 59.8782 17.89 59.9526C17.89 60.0703 17.7986 60.1273 17.5493 60.1744C16.9965 60.2838 16.9526 60.4638 16.9149 60.9674C16.8847 61.3601 16.8741 62.9384 16.8847 63.1465C16.8975 63.3668 16.9338 63.3805 17.0176 63.3805Z" fill="white"/>
<path d="M24.7322 59.8044C24.9936 59.8044 25.5767 59.8446 26.1831 59.8446C26.2496 59.8446 26.3569 59.9289 26.4332 59.9958C26.6099 60.216 26.9105 60.5677 27.3705 61.183C27.9052 61.865 30.5163 64.7346 31.3108 65.6111C31.3879 65.6772 31.4324 65.5625 31.4324 65.5276C31.4913 65.1463 31.4528 63.8528 31.4528 62.1301C31.4528 61.7184 31.4324 61.3014 31.3962 60.9315C31.3879 60.6809 31.2995 60.3991 30.6492 60.2008C30.412 60.1279 30.3237 60.0353 30.3237 59.932C30.3237 59.853 30.4921 59.8272 30.6386 59.8272C30.9468 59.8272 31.2708 59.8439 31.6583 59.8439C32.0858 59.8439 32.4642 59.7945 32.7753 59.7945C32.974 59.7945 33.0412 59.8272 33.0412 59.9289C33.0412 59.9958 32.974 60.1089 32.7587 60.1644C32.2512 60.2836 32.0314 60.3991 31.9966 61.0348C31.977 61.4723 31.8728 63.8254 31.8728 65.8869C31.8728 66.3867 31.9498 67.2844 31.9498 67.4736C31.9498 67.5943 31.8947 67.7235 31.7859 67.7235C31.619 67.7235 31.3577 67.4857 31.2489 67.3475C31.0518 67.0938 30.8327 66.7839 30.514 66.3867C29.3984 65.0491 27.3395 62.7119 26.2738 61.4245C26.2285 61.3607 26.1484 61.3888 26.1484 61.4465C26.1265 61.7709 26.0918 62.1058 26.0835 63.0416C26.0835 64.1133 26.0525 65.9537 26.0714 66.3282C26.1174 66.8758 26.2481 67.0573 26.8191 67.2214C27.0721 67.2844 27.1205 67.368 27.1205 67.4409C27.1205 67.5586 26.9656 67.5943 26.736 67.5943C26.3939 67.5943 25.8992 67.5359 25.4671 67.5359C25.2096 67.5359 24.8961 67.5586 24.6967 67.5586C24.5276 67.5586 24.3871 67.5465 24.3871 67.4265C24.3871 67.3368 24.5079 67.2609 24.622 67.2206C25.1862 67.0315 25.409 66.9844 25.4573 66.0988C25.5177 65.1319 25.6847 62.257 25.6847 61.2657C25.6847 60.832 25.622 60.7318 25.5948 60.6923C25.264 60.2966 25.1371 60.2836 24.6023 60.1408C24.4732 60.1089 24.3402 60.0451 24.3402 59.9525C24.3425 59.853 24.455 59.8044 24.7322 59.8044Z" fill="white"/>
<path d="M37.9832 59.8446C38.055 59.8643 38.1305 60.0459 38.1305 60.0709C38.1516 60.2965 38.2476 60.9915 38.2476 61.0348C38.2476 61.2444 38.2476 61.3607 38.1592 61.3607C38.0738 61.3607 37.9303 61.2817 37.879 61.1108C37.7347 60.6816 37.4115 60.3178 37.2966 60.251C37.0814 60.0816 36.7974 59.976 36.4553 59.976C35.6569 59.976 35.0889 60.5685 35.0889 61.3743C35.0889 62.2243 35.6932 62.5964 36.7415 63.3028C37.6554 63.9203 38.3767 64.5455 38.3767 65.6233C38.3767 66.2203 38.0459 66.891 37.4024 67.314C37.0255 67.5594 36.3208 67.7417 35.7861 67.7417C35.4077 67.7417 34.6063 67.6118 34.2302 67.4272C34.1123 67.3581 33.956 67.0945 33.956 67.0474C33.9054 66.6403 33.7815 66.1139 33.7815 65.9241C33.7815 65.8762 33.9054 65.6939 33.9462 65.6939C34.0459 65.6939 34.2196 66.0053 34.3858 66.376C34.6984 67.0322 35.4787 67.3376 35.9311 67.3376C36.7506 67.3376 37.3639 66.7421 37.3639 65.8876C37.3639 65.3833 37.129 64.8425 35.882 64.0457C34.8774 63.3818 34.1614 62.6914 34.1614 61.6751C34.1614 61.1115 34.4145 60.5692 34.811 60.2175C35.1841 59.8803 35.743 59.6266 36.5723 59.6266C37.1539 59.6251 37.7717 59.8043 37.9832 59.8446Z" fill="white"/>
<path d="M43.9476 63.3805C44.6493 63.3805 46.2588 63.3486 48.3616 63.3486C48.4348 63.3486 48.4756 63.2779 48.4945 63.041C48.5043 62.8807 48.5043 61.3137 48.4756 60.8436C48.4348 60.4091 48.3495 60.3088 47.8163 60.1638C47.6478 60.1189 47.5187 60.0453 47.5187 59.9313C47.5187 59.8523 47.6395 59.8037 47.888 59.8037C48.0421 59.8037 48.8042 59.8265 49.0995 59.8265C49.5051 59.8265 50.0481 59.7939 50.1765 59.7939C50.3707 59.7939 50.5089 59.8432 50.5089 59.9313C50.5089 59.9951 50.4167 60.0802 50.1697 60.1402C49.6697 60.2587 49.5738 60.4737 49.5481 60.8193C49.4877 61.433 49.4575 62.7341 49.4575 64.7712C49.4575 65.2968 49.5043 66.3632 49.5043 66.5394C49.5232 67.0043 49.6433 67.0559 50.1758 67.2094C50.3404 67.2732 50.4522 67.356 50.4522 67.4395C50.4522 67.5345 50.3412 67.5702 50.1191 67.5702C49.9333 67.5702 49.5043 67.5345 49.1342 67.5345C48.8684 67.5345 47.9786 67.6104 47.7422 67.6104C47.5708 67.6104 47.4439 67.5793 47.4439 67.4722C47.4439 67.3666 47.5814 67.296 47.7075 67.2603C48.3472 67.0635 48.4054 66.9337 48.4454 66.0883C48.4741 65.5854 48.493 64.7575 48.493 64.1598C48.493 63.9486 48.4454 63.9076 48.348 63.9076C46.5081 63.9076 44.1659 63.8765 43.931 63.8962C43.9001 63.8962 43.8034 64.0048 43.8034 64.0982C43.7845 64.4135 43.8034 65.9409 43.8034 66.2918C43.8125 66.8516 43.9461 67.0643 44.4461 67.2208C44.7037 67.2967 44.7868 67.3469 44.8042 67.4623C44.8147 67.558 44.61 67.5793 44.4529 67.5793C44.3706 67.5793 43.647 67.5345 43.2203 67.5345C42.9484 67.5345 42.4507 67.5793 42.0436 67.5793C41.789 67.5793 41.6916 67.5345 41.6916 67.4623C41.6916 67.3469 41.8283 67.2739 41.965 67.2337C42.5662 67.0818 42.6637 66.958 42.7059 66.4908C42.7437 66.0032 42.8102 64.6489 42.8102 62.7014C42.8102 62.488 42.8389 61.3882 42.8102 60.8572C42.7905 60.4539 42.7256 60.283 42.2203 60.1744C41.9748 60.1273 41.8895 60.0453 41.8895 59.9526C41.8895 59.8645 42.0436 59.8166 42.2377 59.8166C42.5662 59.8166 43.0066 59.844 43.3162 59.844C43.8125 59.844 44.1659 59.8166 44.4454 59.8166C44.6916 59.8166 44.8238 59.8782 44.8238 59.9526C44.8238 60.0703 44.7301 60.1273 44.4749 60.1744C43.922 60.2838 43.8819 60.4638 43.8457 60.9674C43.8117 61.3601 43.8026 62.9384 43.8117 63.1465C43.8238 63.3668 43.8631 63.3805 43.9476 63.3805Z" fill="white"/>
<path d="M59.8019 63.5874C59.8019 65.2607 58.9763 66.4327 58.1138 67.0555C57.3661 67.5781 56.3789 67.7497 55.7769 67.7497C54.5609 67.7497 53.4129 67.2196 52.684 66.3848C52.0541 65.6754 51.6968 64.713 51.6968 63.6808C51.6968 62.2103 52.3396 61.191 53.2391 60.4626C53.826 59.9825 54.8487 59.624 55.6772 59.624C57.9658 59.6248 59.8019 61.3125 59.8019 63.5874ZM53.7799 60.7018C53.2565 61.2145 52.8524 62.1191 52.8524 63.519C52.8524 65.2979 54.1598 67.3464 56.0609 67.3464C57.042 67.3464 57.4952 66.9119 57.6229 66.7638C58.1017 66.3377 58.6387 65.3662 58.6387 63.9482C58.6387 62.644 58.0798 61.3877 57.1991 60.6707C56.709 60.2719 55.9597 60.022 55.4159 60.022C54.9182 60.022 54.1923 60.2833 53.7799 60.7018Z" fill="white"/>
<path d="M63.4996 60.0969C63.3727 60.0969 63.2541 60.1418 63.162 60.201C63.1144 60.2382 63.0524 60.3818 63.0343 60.6712C63.0237 60.9226 63.0237 62.4037 63.0162 63.7793C63.0162 64.8692 63.0343 65.8756 63.0343 66.1703C63.0524 66.9474 63.1453 67.0461 63.7473 67.2208C63.9792 67.2838 64.0759 67.3469 64.0759 67.4502C64.0759 67.5588 63.8553 67.5937 63.6763 67.5937C63.3848 67.5937 62.9573 67.5459 62.4346 67.5459C62.0909 67.5459 61.6061 67.5937 61.2322 67.5937C61.0298 67.5937 60.9006 67.5352 60.9006 67.4259C60.9006 67.3469 61.0192 67.274 61.1363 67.2337C61.8002 67.0818 61.9361 66.8516 61.9678 66.3511C62.0056 65.7776 62.0275 64.7841 62.0275 64.1849C62.0275 63.7914 62.0056 61.2515 61.9928 60.8694C61.9845 60.4433 61.9928 60.2716 61.3319 60.1744C61.0902 60.141 60.964 60.0704 60.964 59.9959C60.964 59.9002 61.0811 59.8448 61.2322 59.8273C61.313 59.8167 61.5147 59.8273 61.6242 59.8273C62.1008 59.8273 63.0154 59.7384 63.6091 59.7384C64.6869 59.7384 65.3893 60.0225 65.8281 60.4441C66.4022 60.9917 66.5177 61.6738 66.5177 62.0687C66.5177 63.1298 66.0313 63.622 65.6899 63.9198C65.3787 64.1864 64.8281 64.4499 64.3213 64.4499C64.1914 64.4499 63.881 64.4378 63.6884 64.3709C63.5509 64.3041 63.4898 64.2464 63.4898 64.1704C63.4898 64.1218 63.5419 64.0664 63.6295 64.0664H63.9324C64.5555 64.0664 65.4414 63.5035 65.4414 62.1295C65.4407 61.0342 64.6219 60.0969 63.4996 60.0969Z" fill="white"/>
<path d="M67.8969 59.8039C68.171 59.8039 68.6771 59.8442 69.0562 59.8442C69.4157 59.8442 69.8765 59.8168 70.1688 59.8168C70.3621 59.8168 70.483 59.8533 70.483 59.9627C70.483 60.0599 70.3327 60.1191 70.1439 60.1639C69.7352 60.2498 69.5948 60.3546 69.5706 60.824C69.5343 61.2805 69.5343 63.231 69.56 63.3958C69.5706 63.4422 69.5948 63.4779 69.6461 63.4779C69.6929 63.4779 69.8085 63.3958 69.8176 63.3958C70.1982 63.1042 72.097 61.244 72.4709 60.824C72.7783 60.4746 72.7277 60.2832 72.338 60.1746C72.1907 60.1275 72.0646 60.0963 72.0646 59.9961C72.0646 59.8882 72.1907 59.8449 72.3757 59.8449C72.5978 59.8449 72.6106 59.854 72.8259 59.854C73.1121 59.854 74.2526 59.7956 74.5857 59.7956C74.7949 59.7956 74.8916 59.8449 74.8916 59.933C74.8916 60.0128 74.7496 60.11 74.5661 60.1541C73.8961 60.2969 73.6054 60.4898 72.8463 61.0746C72.2934 61.5175 70.7481 62.9393 70.6061 63.1687C70.5819 63.2394 70.5661 63.2553 70.6061 63.2872C70.8689 63.6222 72.8848 65.6935 73.7776 66.6163C74.3236 67.1685 74.5971 67.1891 75.0268 67.262C75.156 67.2977 75.2594 67.3789 75.2594 67.4276C75.2594 67.5476 75.0948 67.6121 74.9664 67.6121C74.6499 67.6121 73.5487 67.5157 73.2232 67.5157C72.8002 67.5157 72.6711 67.521 72.3984 67.521C72.2322 67.521 72.1461 67.3919 72.1461 67.3144C72.1461 67.2513 72.193 67.2004 72.6605 67.1055C72.7096 67.0949 72.7413 67.0227 72.7209 66.987C72.3591 66.5282 70.7715 64.8435 70.1537 64.2131C69.8327 63.8645 69.7126 63.7118 69.6174 63.7118C69.563 63.7118 69.5736 63.8645 69.563 63.9579C69.5374 64.1881 69.5736 66.1257 69.5842 66.5693C69.5978 66.8776 69.7624 67.0599 70.2972 67.2012C70.5102 67.2521 70.5668 67.3394 70.5668 67.4207C70.5668 67.5172 70.455 67.5734 70.2617 67.5734C70.0041 67.5734 69.1725 67.5377 68.8025 67.5377C68.4233 67.5377 68.029 67.5734 67.6484 67.5734C67.5124 67.5734 67.3674 67.5035 67.3674 67.4207C67.3674 67.3151 67.4573 67.2772 67.7088 67.2134C68.2926 67.0964 68.5192 66.9285 68.554 66.2221C68.563 65.8143 68.5864 64.6909 68.5864 63.3989C68.5864 61.4856 68.563 61.2683 68.5389 60.8346C68.52 60.4222 68.3598 60.2862 67.884 60.167C67.6144 60.0994 67.5811 60.0249 67.5811 59.9657C67.5774 59.8525 67.7141 59.8039 67.8969 59.8039Z" fill="white"/>
<path d="M77.0021 61.014C76.9734 60.464 76.9734 60.284 76.2997 60.1648C76.0399 60.12 75.9704 60.0357 75.9704 59.9536C75.9704 59.8541 76.1026 59.8055 76.2672 59.8055C76.5754 59.8055 77.1668 59.8458 77.5633 59.8458C78.1426 59.8458 78.416 59.8055 78.833 59.8055C79.0233 59.8055 79.1328 59.8541 79.1328 59.9536C79.1328 60.0463 79.0112 60.1207 78.8224 60.1541C78.1305 60.2969 78.1426 60.597 78.0913 60.9236C78.0384 61.3147 78.0225 62.0918 78.0225 64.4388C78.0225 65.0912 78.0384 65.8341 78.0588 66.2207C78.0913 66.8686 78.1524 67.0942 78.9259 67.2507C79.1419 67.2848 79.2333 67.3684 79.2333 67.4512C79.2333 67.5476 79.0558 67.6122 78.9153 67.6122C78.308 67.6122 77.4681 67.5363 77.1441 67.5363C76.7876 67.5363 76.6781 67.559 76.2408 67.559C76.0187 67.559 75.9311 67.474 75.9311 67.3912C75.9311 67.3129 76.0573 67.2347 76.2921 67.1884C76.8835 67.057 76.9341 66.8754 76.9825 66.3149C77.018 65.8971 77.0376 64.6507 77.0376 63.6329C77.0369 62.8916 77.0286 61.412 77.0021 61.014Z" fill="white"/>
<path d="M80.2223 59.8044C80.4837 59.8044 81.0569 59.8446 81.674 59.8446C81.7374 59.8446 81.8439 59.9289 81.9217 59.9958C82.0977 60.216 82.3923 60.5677 82.8545 61.183C83.3915 61.865 86.0018 64.7346 86.8017 65.6111C86.8689 65.6772 86.9157 65.5625 86.9157 65.5276C86.9769 65.1463 86.9444 63.8528 86.9444 62.1301C86.9444 61.7184 86.9157 61.3014 86.8832 60.9315C86.8681 60.6809 86.7851 60.3991 86.1355 60.2008C85.8946 60.1279 85.8085 60.0353 85.8085 59.932C85.8085 59.853 85.9814 59.8272 86.1249 59.8272C86.4293 59.8272 86.7594 59.8439 87.1446 59.8439C87.5675 59.8439 87.9505 59.7945 88.2586 59.7945C88.4626 59.7945 88.5328 59.8272 88.5328 59.9289C88.5328 59.9958 88.4626 60.1089 88.2496 60.1644C87.736 60.2836 87.5275 60.3991 87.492 61.0348C87.4618 61.4723 87.3561 63.8254 87.3561 65.8869C87.3561 66.3867 87.4406 67.2844 87.4406 67.4736C87.4406 67.5943 87.3825 67.7235 87.2752 67.7235C87.1053 67.7235 86.85 67.4857 86.7405 67.3475C86.5358 67.0938 86.3243 66.7839 86.0018 66.3867C84.8908 65.0491 82.8326 62.7119 81.7616 61.4245C81.7178 61.3607 81.6347 61.3888 81.6347 61.4465C81.6241 61.7709 81.5818 62.1058 81.5713 63.0416C81.5713 64.1133 81.5365 65.9537 81.5622 66.3282C81.609 66.8758 81.739 67.0573 82.3137 67.2214C82.5554 67.2844 82.6098 67.368 82.6098 67.4409C82.6098 67.5586 82.4535 67.5943 82.2261 67.5943C81.8802 67.5943 81.3862 67.5359 80.9527 67.5359C80.6989 67.5359 80.3847 67.5586 80.1914 67.5586C80.0184 67.5586 79.8794 67.5465 79.8794 67.4265C79.8794 67.3368 79.998 67.2609 80.1173 67.2206C80.6687 67.0315 80.8976 66.9844 80.9512 66.0988C81.001 65.1319 81.1702 62.257 81.1702 61.2657C81.1702 60.832 81.109 60.7318 81.0864 60.6923C80.7548 60.2966 80.6264 60.2836 80.0924 60.1408C79.9587 60.1089 79.825 60.0451 79.825 59.9525C79.825 59.853 79.9474 59.8044 80.2223 59.8044Z" fill="white"/>
<path d="M93.4753 59.8446C93.5418 59.8643 93.6113 60.0459 93.6113 60.0709C93.6392 60.2965 93.7314 60.9915 93.7314 61.0348C93.7314 61.2444 93.7314 61.3607 93.6543 61.3607C93.5509 61.3607 93.4119 61.2817 93.3688 61.1108C93.2238 60.6816 92.8968 60.3178 92.7843 60.251C92.572 60.0816 92.2865 59.976 91.9398 59.976C91.1453 59.976 90.578 60.5685 90.578 61.3743C90.578 62.2243 91.1793 62.5964 92.2268 63.3028C93.1407 63.9203 93.8681 64.5455 93.8681 65.6233C93.8681 66.2203 93.5328 66.891 92.8885 67.314C92.5124 67.5594 91.8069 67.7417 91.2759 67.7417C90.8968 67.7417 90.0894 67.6118 89.72 67.4272C89.5977 67.3581 89.4466 67.0945 89.4466 67.0474C89.3892 66.6403 89.2706 66.1139 89.2706 65.9241C89.2706 65.8762 89.3892 65.6939 89.4376 65.6939C89.5342 65.6939 89.7079 66.0053 89.8764 66.376C90.1853 67.0322 90.9648 67.3376 91.4202 67.3376C92.2389 67.3376 92.8575 66.7421 92.8575 65.8876C92.8575 65.3833 92.6188 64.8425 91.3741 64.0457C90.362 63.3818 89.6475 62.6914 89.6475 61.6751C89.6475 61.1115 89.893 60.5692 90.2986 60.2175C90.6717 59.8803 91.2268 59.6266 92.0645 59.6266C92.6407 59.6251 93.2586 59.8043 93.4753 59.8446Z" fill="white"/>
<path d="M97.6893 59.816C98.4582 59.816 98.5866 59.8433 99.2754 59.8433C99.3026 59.8433 99.3948 59.9306 99.4106 59.9944C99.5504 60.4426 99.6244 60.5664 99.8623 61.0829C100.525 62.4911 101.902 65.366 102.069 65.5946C102.093 65.6319 102.163 65.6721 102.188 65.6318C102.291 65.4306 104.51 61.2052 104.707 60.7008C104.721 60.653 104.911 60.2489 104.978 60.0112C104.994 59.9519 105.088 59.8433 105.111 59.8433C105.535 59.8433 106.5 59.803 106.606 59.803C106.757 59.803 106.917 59.8258 106.917 59.9306C106.917 60.021 106.818 60.0955 106.606 60.1266C106.417 60.1631 106.251 60.2147 106.068 60.2823C105.895 60.3537 105.704 60.5869 105.704 61.2052C105.704 64.5313 105.832 66.0443 105.871 66.3846C105.941 66.9239 106.069 67.0446 106.643 67.2087C106.859 67.2588 106.961 67.3553 106.961 67.4388C106.961 67.5338 106.796 67.5923 106.615 67.5923C106.486 67.5923 105.573 67.5338 105.13 67.5338C104.911 67.5338 104.511 67.5695 104.232 67.5695C104.101 67.5695 103.91 67.5186 103.91 67.3993C103.91 67.2945 104.056 67.2322 104.222 67.1867C104.708 67.0446 104.729 66.7628 104.765 66.3261C104.812 65.7838 104.792 62.321 104.756 61.7057C104.745 61.6609 104.708 61.55 104.655 61.6358C104.504 61.8994 103.173 64.5313 102.709 65.5118C102.419 66.1324 102.151 66.7522 101.974 67.2193C101.846 67.5695 101.785 67.5566 101.701 67.5566C101.631 67.5566 101.562 67.4609 101.522 67.3348C101.439 67.0302 101.31 66.6375 101.084 66.0595C100.443 64.4811 99.468 62.5936 99.0284 61.5751C98.9937 61.4915 98.9597 61.4816 98.9446 61.6115C98.851 62.1182 98.7233 65.1305 98.7588 66.2311C98.7754 66.838 98.8782 67.0044 99.4786 67.195C99.7452 67.2732 99.8011 67.3219 99.8011 67.4252C99.8011 67.5186 99.6682 67.5695 99.4786 67.5695C99.0995 67.5695 98.6032 67.5338 98.2928 67.5338C98.0111 67.5338 97.6357 67.5695 97.3404 67.5695C97.1674 67.5695 97.0405 67.5338 97.0405 67.3993C97.0405 67.3553 97.1176 67.2725 97.2716 67.2322C98.0111 67.0188 98.0813 66.8168 98.1772 66.1324C98.2928 65.303 98.5587 61.8637 98.5775 60.9659C98.5775 60.8679 98.5587 60.4175 98.0435 60.2702C97.8434 60.2147 97.6908 60.1623 97.536 60.1266C97.4446 60.1084 97.3404 60.021 97.3404 59.9306C97.3396 59.816 97.4242 59.816 97.6893 59.816Z" fill="white"/>
<path d="M111.853 59.8446C112.251 59.8446 112.765 59.8279 112.95 59.8044C112.978 59.7945 113.041 59.8788 113.055 59.932C113.055 60.4887 113.073 60.832 113.073 61.0736C113.073 61.2445 113.008 61.388 112.904 61.388C112.792 61.388 112.737 61.2141 112.708 61.0986C112.561 60.4636 112.296 60.3429 111.915 60.2836C111.603 60.2373 110.751 60.216 110.225 60.2373C110.205 60.2373 110.08 60.2958 110.051 60.5677C110.027 60.8692 109.989 63.119 110.013 63.3021C110.027 63.3492 110.041 63.4206 110.099 63.4206H110.867C111.986 63.4206 112.034 63.3674 112.251 62.8281C112.318 62.6451 112.388 62.5691 112.461 62.5691C112.546 62.5691 112.569 62.7347 112.561 62.8297C112.534 63.1677 112.52 63.4077 112.52 63.6955C112.52 64.0184 112.546 64.1862 112.561 64.4262C112.569 64.6404 112.509 64.7726 112.421 64.7726C112.34 64.7726 112.261 64.6404 112.221 64.5105C112.055 63.9561 112.008 63.9196 111.283 63.8847C110.906 63.8626 110.431 63.8627 110.108 63.8627C110.061 63.8627 110.001 63.9492 110.001 63.9697C109.952 64.2189 109.961 65.3331 109.961 65.8474C109.961 66.1975 110.011 66.651 110.088 66.8409C110.136 66.9859 110.224 67.0832 110.31 67.1052C110.514 67.1409 110.922 67.1895 111.39 67.1895C111.532 67.1895 112.26 67.1781 112.519 67.1052C112.903 67.0072 113.221 66.7846 113.502 66.2211C113.641 65.9545 113.708 65.8884 113.775 65.8884C113.861 65.8884 113.896 66.0775 113.875 66.2097C113.861 66.3046 113.525 67.3801 113.444 67.4872C113.41 67.5374 113.301 67.6331 113.242 67.6331C113.113 67.6331 111.319 67.5374 109.387 67.5374C108.752 67.5374 108.495 67.5958 108.045 67.5958C107.818 67.5958 107.685 67.5731 107.685 67.4424C107.685 67.3596 107.825 67.2989 108.016 67.2518C108.606 67.1059 108.832 67.0224 108.887 66.3775C108.921 65.8777 108.976 64.4604 108.976 62.98C108.976 61.5536 108.99 61.3037 108.969 60.9604C108.942 60.4333 108.824 60.2859 108.302 60.1667C108.054 60.112 107.958 60.0626 107.958 59.9654C107.958 59.8552 108.119 59.7968 108.286 59.7968C108.844 59.7968 109.309 59.8461 110.107 59.8461H111.853V59.8446Z" fill="white"/>
<path d="M121.492 60.8975C122.136 61.5158 122.573 62.5951 122.573 63.54C122.573 65.2756 121.508 66.5258 120.676 66.996C119.974 67.4008 118.99 67.6674 117.847 67.6674C117.365 67.6674 116.302 67.6309 115.52 67.5709C115.295 67.558 115.08 67.558 114.891 67.558C114.618 67.558 114.512 67.473 114.512 67.378C114.512 67.2838 114.629 67.2208 114.775 67.2102C115.595 67.1152 115.651 66.8896 115.688 65.9409C115.709 65.3819 115.725 65.0105 115.725 64.3041C115.725 63.622 115.7 62.2123 115.661 61.231C115.636 60.4638 115.625 60.2967 114.902 60.1896C114.775 60.1645 114.629 60.081 114.629 59.9959C114.629 59.9002 114.74 59.8448 114.913 59.8448H115.248C115.842 59.8448 117.185 59.7384 118.204 59.7384C119.869 59.7384 121.019 60.4539 121.492 60.8975ZM116.866 60.2002C116.78 60.2595 116.752 60.283 116.745 60.3544C116.724 60.5033 116.7 61.5682 116.7 62.6301V64.3611C116.7 65.1996 116.709 65.9098 116.745 66.4331C116.78 66.8061 116.975 66.9732 117.004 66.9952C117.231 67.1669 117.719 67.3119 117.98 67.3119C118.528 67.3119 119.534 67.0924 120.202 66.525C120.91 65.922 121.425 64.8776 121.425 63.5392C121.425 62.5108 120.91 61.3874 120.147 60.8109C119.561 60.3658 118.563 60.1083 117.686 60.1083C117.258 60.1091 116.975 60.141 116.866 60.2002Z" fill="white"/>
<path d="M124.746 61.014C124.714 60.464 124.714 60.284 124.048 60.1648C123.787 60.12 123.718 60.0357 123.718 59.9536C123.718 59.8541 123.844 59.8055 124.012 59.8055C124.323 59.8055 124.92 59.8458 125.305 59.8458C125.891 59.8458 126.164 59.8055 126.578 59.8055C126.769 59.8055 126.872 59.8541 126.872 59.9536C126.872 60.0463 126.755 60.1207 126.565 60.1541C125.877 60.2969 125.892 60.597 125.84 60.9236C125.784 61.3147 125.767 62.0918 125.767 64.4388C125.767 65.0912 125.783 65.8341 125.801 66.2207C125.84 66.8686 125.903 67.0942 126.669 67.2507C126.882 67.2848 126.977 67.3684 126.977 67.4512C126.977 67.5476 126.8 67.6122 126.66 67.6122C126.052 67.6122 125.212 67.5363 124.893 67.5363C124.533 67.5363 124.425 67.559 123.987 67.559C123.761 67.559 123.677 67.474 123.677 67.3912C123.677 67.3129 123.801 67.2347 124.036 67.1884C124.628 67.057 124.675 66.8754 124.727 66.3149C124.764 65.8971 124.783 64.6507 124.783 63.6329C124.783 62.8916 124.772 61.412 124.746 61.014Z" fill="white"/>
<path d="M133.931 59.8161C134.238 59.8639 134.653 60.0219 134.828 60.0447C134.887 60.0447 135.012 60.1267 135.012 60.4085C135.012 60.6539 135.068 61.1825 135.094 61.4453C135.1 61.6937 135.012 61.841 134.917 61.841C134.854 61.841 134.782 61.7058 134.72 61.5266C134.613 61.1088 134.389 60.7549 134.238 60.6318C133.581 60.1404 132.977 60.0113 132.333 60.0113C130.428 60.0113 129.2 61.601 129.2 63.4065C129.2 64.2101 129.354 64.8534 129.622 65.3813C130.279 66.7531 131.66 67.2962 132.619 67.2962C132.847 67.2962 133.432 67.2605 133.911 66.9733C134.437 66.6984 134.73 66.3141 135.022 65.8112C135.173 65.5621 135.221 65.4968 135.267 65.4968C135.391 65.4968 135.404 65.7664 135.379 65.8963C135.342 66.1963 135.069 66.8321 134.9 67.1032C134.854 67.2103 134.654 67.3569 134.535 67.4177C134.342 67.4952 133.385 67.7504 132.371 67.7504C130.701 67.7504 129.474 66.9118 128.997 66.3505C128.548 65.8211 128.002 64.9628 128.002 63.5994C128.002 62.2322 128.808 61.146 129.31 60.7313C130.332 59.8882 131.43 59.6247 132.529 59.6247C132.941 59.6247 133.474 59.7128 133.931 59.8161Z" fill="white"/>
<path d="M137.51 61.014C137.477 60.464 137.477 60.284 136.814 60.1648C136.549 60.12 136.481 60.0357 136.481 59.9536C136.481 59.8541 136.608 59.8055 136.775 59.8055C137.086 59.8055 137.678 59.8458 138.074 59.8458C138.651 59.8458 138.927 59.8055 139.34 59.8055C139.537 59.8055 139.635 59.8541 139.635 59.9536C139.635 60.0463 139.519 60.1207 139.327 60.1541C138.643 60.2969 138.651 60.597 138.609 60.9236C138.55 61.3147 138.536 62.0918 138.536 64.4388C138.536 65.0912 138.55 65.8341 138.571 66.2207C138.609 66.8686 138.662 67.0942 139.441 67.2507C139.653 67.2848 139.747 67.3684 139.747 67.4512C139.747 67.5476 139.569 67.6122 139.424 67.6122C138.825 67.6122 137.979 67.5363 137.658 67.5363C137.297 67.5363 137.192 67.559 136.754 67.559C136.528 67.559 136.445 67.474 136.445 67.3912C136.445 67.3129 136.564 67.2347 136.803 67.1884C137.396 67.057 137.447 66.8754 137.484 66.3149C137.528 65.8971 137.549 64.6507 137.549 63.6329C137.548 62.8916 137.538 61.412 137.51 61.014Z" fill="white"/>
<path d="M140.734 59.8044C140.988 59.8044 141.573 59.8446 142.182 59.8446C142.253 59.8446 142.358 59.9289 142.43 59.9958C142.61 60.216 142.903 60.5677 143.368 61.183C143.9 61.865 146.51 64.7346 147.31 65.6111C147.381 65.6772 147.43 65.5625 147.43 65.5276C147.486 65.1463 147.449 63.8528 147.449 62.1301C147.449 61.7184 147.43 61.3014 147.39 60.9315C147.38 60.6809 147.301 60.3991 146.643 60.2008C146.405 60.1279 146.331 60.0353 146.331 59.932C146.331 59.853 146.487 59.8272 146.634 59.8272C146.942 59.8272 147.276 59.8439 147.655 59.8439C148.078 59.8439 148.459 59.7945 148.771 59.7945C148.976 59.7945 149.044 59.8272 149.044 59.9289C149.044 59.9958 148.976 60.1089 148.754 60.1644C148.248 60.2836 148.033 60.3991 147.994 61.0348C147.976 61.4723 147.865 63.8254 147.865 65.8869C147.865 66.3867 147.954 67.2844 147.954 67.4736C147.954 67.5943 147.892 67.7235 147.785 67.7235C147.617 67.7235 147.356 67.4857 147.246 67.3475C147.047 67.0938 146.836 66.7839 146.51 66.3867C145.398 65.0491 143.341 62.7119 142.269 61.4245C142.224 61.3607 142.145 61.3888 142.145 61.4465C142.127 61.7709 142.097 62.1058 142.086 63.0416C142.086 64.1133 142.045 65.9537 142.075 66.3282C142.117 66.8758 142.251 67.0573 142.818 67.2214C143.072 67.2844 143.121 67.368 143.121 67.4409C143.121 67.5586 142.961 67.5943 142.732 67.5943C142.388 67.5943 141.89 67.5359 141.463 67.5359C141.205 67.5359 140.893 67.5586 140.693 67.5586C140.525 67.5586 140.385 67.5465 140.385 67.4265C140.385 67.3368 140.5 67.2609 140.616 67.2206C141.18 67.0315 141.408 66.9844 141.451 66.0988C141.51 65.1319 141.676 62.257 141.676 61.2657C141.676 60.832 141.619 60.7318 141.597 60.6923C141.269 60.2966 141.133 60.2836 140.597 60.1408C140.469 60.1089 140.342 60.0451 140.342 59.9525C140.343 59.853 140.46 59.8044 140.734 59.8044Z" fill="white"/>
<path d="M153.813 59.8446C154.201 59.8446 154.725 59.8279 154.91 59.8044C154.942 59.7945 155.001 59.8788 155.019 59.932C155.019 60.4887 155.038 60.832 155.038 61.0736C155.038 61.2445 154.971 61.388 154.862 61.388C154.754 61.388 154.693 61.2141 154.671 61.0986C154.514 60.4636 154.252 60.3429 153.879 60.2836C153.566 60.2373 152.715 60.216 152.19 60.2373C152.158 60.2373 152.029 60.2958 152.013 60.5677C151.989 60.8692 151.95 63.119 151.977 63.3021C151.989 63.3492 152.003 63.4206 152.06 63.4206H152.832C153.946 63.4206 153.997 63.3674 154.201 62.8281C154.281 62.6451 154.35 62.5691 154.424 62.5691C154.502 62.5691 154.526 62.7347 154.514 62.8297C154.493 63.1677 154.482 63.4077 154.482 63.6955C154.482 64.0184 154.502 64.1862 154.514 64.4262C154.526 64.6404 154.466 64.7726 154.386 64.7726C154.303 64.7726 154.22 64.6404 154.18 64.5105C154.019 63.9561 153.97 63.9196 153.242 63.8847C152.866 63.8626 152.391 63.8627 152.069 63.8627C152.022 63.8627 151.965 63.9492 151.965 63.9697C151.914 64.2189 151.924 65.3331 151.924 65.8474C151.924 66.1975 151.977 66.651 152.05 66.8409C152.093 66.9859 152.19 67.0832 152.268 67.1052C152.47 67.1409 152.878 67.1895 153.356 67.1895C153.492 67.1895 154.22 67.1781 154.481 67.1052C154.862 67.0072 155.183 66.7846 155.469 66.2211C155.596 65.9545 155.67 65.8884 155.737 65.8884C155.829 65.8884 155.855 66.0775 155.835 66.2097C155.829 66.3046 155.491 67.3801 155.404 67.4872C155.368 67.5374 155.262 67.6331 155.203 67.6331C155.075 67.6331 153.278 67.5374 151.348 67.5374C150.713 67.5374 150.453 67.5958 150.004 67.5958C149.778 67.5958 149.646 67.5731 149.646 67.4424C149.646 67.3596 149.788 67.2989 149.979 67.2518C150.574 67.1059 150.798 67.0224 150.844 66.3775C150.883 65.8777 150.939 64.4604 150.939 62.98C150.939 61.5536 150.95 61.3037 150.927 60.9604C150.906 60.4333 150.788 60.2859 150.262 60.1667C150.012 60.112 149.92 60.0626 149.92 59.9654C149.92 59.8552 150.09 59.7968 150.251 59.7968C150.814 59.7968 151.273 59.8461 152.068 59.8461H153.813V59.8446Z" fill="white"/>
</svg>
