<svg width="18" height="18" viewBox="0 0 18 18" fill="none" xmlns="http://www.w3.org/2000/svg">
<path d="M6 4.31229C5.6925 4.31229 5.4375 4.05729 5.4375 3.74979V1.49979C5.4375 1.19229 5.6925 0.937286 6 0.937286C6.3075 0.937286 6.5625 1.19229 6.5625 1.49979V3.74979C6.5625 4.05729 6.3075 4.31229 6 4.31229Z" fill="#3C4E69"/>
<path d="M12 4.31229C11.6925 4.31229 11.4375 4.05729 11.4375 3.74979V1.49979C11.4375 1.19229 11.6925 0.937286 12 0.937286C12.3075 0.937286 12.5625 1.19229 12.5625 1.49979V3.74979C12.5625 4.05729 12.3075 4.31229 12 4.31229Z" fill="#3C4E69"/>
<path d="M6.375 10.8753C6.2775 10.8753 6.18 10.8528 6.09 10.8153C5.9925 10.7778 5.9175 10.7253 5.8425 10.6578C5.7075 10.5153 5.625 10.3278 5.625 10.1253C5.625 10.0278 5.6475 9.93032 5.685 9.84032C5.7225 9.75032 5.775 9.66782 5.8425 9.59282C5.9175 9.52532 5.9925 9.47282 6.09 9.43532C6.36 9.32282 6.6975 9.38282 6.9075 9.59282C7.0425 9.73532 7.125 9.93032 7.125 10.1253C7.125 10.1703 7.1175 10.2228 7.11 10.2753C7.1025 10.3203 7.0875 10.3653 7.065 10.4103C7.05 10.4553 7.0275 10.5003 6.9975 10.5453C6.975 10.5828 6.9375 10.6203 6.9075 10.6578C6.765 10.7928 6.57 10.8753 6.375 10.8753Z" fill="#3C4E69"/>
<path d="M9 10.8748C8.9025 10.8748 8.805 10.8523 8.715 10.8148C8.6175 10.7773 8.5425 10.7248 8.4675 10.6573C8.3325 10.5148 8.25 10.3273 8.25 10.1248C8.25 10.0273 8.2725 9.92978 8.31 9.83978C8.3475 9.74978 8.4 9.66728 8.4675 9.59228C8.5425 9.52478 8.6175 9.47228 8.715 9.43478C8.985 9.31478 9.3225 9.38228 9.5325 9.59228C9.6675 9.73478 9.75 9.92978 9.75 10.1248C9.75 10.1698 9.7425 10.2223 9.735 10.2748C9.7275 10.3198 9.7125 10.3648 9.69 10.4098C9.675 10.4548 9.6525 10.4998 9.6225 10.5448C9.6 10.5823 9.5625 10.6198 9.5325 10.6573C9.39 10.7923 9.195 10.8748 9 10.8748Z" fill="#3C4E69"/>
<path d="M11.625 10.8748C11.5275 10.8748 11.43 10.8523 11.34 10.8148C11.2425 10.7773 11.1675 10.7248 11.0925 10.6573C11.0625 10.6198 11.0325 10.5823 11.0025 10.5448C10.9725 10.4998 10.95 10.4548 10.935 10.4098C10.9125 10.3648 10.8975 10.3198 10.89 10.2748C10.8825 10.2223 10.875 10.1698 10.875 10.1248C10.875 9.92978 10.9575 9.73478 11.0925 9.59228C11.1675 9.52478 11.2425 9.47228 11.34 9.43478C11.6175 9.31478 11.9475 9.38228 12.1575 9.59228C12.2925 9.73478 12.375 9.92978 12.375 10.1248C12.375 10.1698 12.3675 10.2223 12.36 10.2748C12.3525 10.3198 12.3375 10.3648 12.315 10.4098C12.3 10.4548 12.2775 10.4998 12.2475 10.5448C12.225 10.5823 12.1875 10.6198 12.1575 10.6573C12.015 10.7923 11.82 10.8748 11.625 10.8748Z" fill="#3C4E69"/>
<path d="M6.375 13.4997C6.2775 13.4997 6.18 13.4773 6.09 13.4398C6 13.4023 5.9175 13.3497 5.8425 13.2822C5.7075 13.1397 5.625 12.9447 5.625 12.7497C5.625 12.6522 5.6475 12.5547 5.685 12.4647C5.7225 12.3672 5.775 12.2848 5.8425 12.2173C6.12 11.9398 6.63 11.9398 6.9075 12.2173C7.0425 12.3598 7.125 12.5547 7.125 12.7497C7.125 12.9447 7.0425 13.1397 6.9075 13.2822C6.765 13.4172 6.57 13.4997 6.375 13.4997Z" fill="#3C4E69"/>
<path d="M9 13.4997C8.805 13.4997 8.61 13.4172 8.4675 13.2822C8.3325 13.1397 8.25 12.9447 8.25 12.7497C8.25 12.6522 8.2725 12.5547 8.31 12.4647C8.3475 12.3672 8.4 12.2848 8.4675 12.2173C8.745 11.9398 9.255 11.9398 9.5325 12.2173C9.6 12.2848 9.6525 12.3672 9.69 12.4647C9.7275 12.5547 9.75 12.6522 9.75 12.7497C9.75 12.9447 9.6675 13.1397 9.5325 13.2822C9.39 13.4172 9.195 13.4997 9 13.4997Z" fill="#3C4E69"/>
<path d="M11.625 13.5001C11.43 13.5001 11.235 13.4176 11.0925 13.2826C11.025 13.2151 10.9725 13.1326 10.935 13.0351C10.8975 12.9451 10.875 12.8476 10.875 12.7501C10.875 12.6526 10.8975 12.5551 10.935 12.4651C10.9725 12.3676 11.025 12.2851 11.0925 12.2176C11.265 12.0451 11.5275 11.9626 11.7675 12.0151C11.82 12.0226 11.865 12.0376 11.91 12.0601C11.955 12.0751 12 12.0976 12.045 12.1276C12.0825 12.1501 12.12 12.1876 12.1575 12.2176C12.2925 12.3601 12.375 12.5551 12.375 12.7501C12.375 12.9451 12.2925 13.1401 12.1575 13.2826C12.015 13.4176 11.82 13.5001 11.625 13.5001Z" fill="#3C4E69"/>
<path d="M15.375 7.37967H2.625C2.3175 7.37967 2.0625 7.12467 2.0625 6.81717C2.0625 6.50967 2.3175 6.25467 2.625 6.25467H15.375C15.6825 6.25467 15.9375 6.50967 15.9375 6.81717C15.9375 7.12467 15.6825 7.37967 15.375 7.37967Z" fill="#3C4E69"/>
<path d="M12 17.0623H6C3.2625 17.0623 1.6875 15.4873 1.6875 12.7498V6.37479C1.6875 3.63729 3.2625 2.06229 6 2.06229H12C14.7375 2.06229 16.3125 3.63729 16.3125 6.37479V12.7498C16.3125 15.4873 14.7375 17.0623 12 17.0623ZM6 3.18729C3.855 3.18729 2.8125 4.22979 2.8125 6.37479V12.7498C2.8125 14.8948 3.855 15.9373 6 15.9373H12C14.145 15.9373 15.1875 14.8948 15.1875 12.7498V6.37479C15.1875 4.22979 14.145 3.18729 12 3.18729H6Z" fill="#3C4E69"/>
</svg>
