<svg width="18" height="18" viewBox="0 0 18 18" fill="none" xmlns="http://www.w3.org/2000/svg">
<path d="M12 17.0625H6C3.2625 17.0625 1.6875 15.4875 1.6875 12.75V5.25C1.6875 2.5125 3.2625 0.9375 6 0.9375H12C14.7375 0.9375 16.3125 2.5125 16.3125 5.25V12.75C16.3125 15.4875 14.7375 17.0625 12 17.0625ZM6 2.0625C3.855 2.0625 2.8125 3.105 2.8125 5.25V12.75C2.8125 14.895 3.855 15.9375 6 15.9375H12C14.145 15.9375 15.1875 14.895 15.1875 12.75V5.25C15.1875 3.105 14.145 2.0625 12 2.0625H6Z" fill="#3C4E69"/>
<path d="M13.875 6.9375H12.375C11.235 6.9375 10.3125 6.015 10.3125 4.875V3.375C10.3125 3.0675 10.5675 2.8125 10.875 2.8125C11.1825 2.8125 11.4375 3.0675 11.4375 3.375V4.875C11.4375 5.3925 11.8575 5.8125 12.375 5.8125H13.875C14.1825 5.8125 14.4375 6.0675 14.4375 6.375C14.4375 6.6825 14.1825 6.9375 13.875 6.9375Z" fill="#3C4E69"/>
<path d="M7.70168 14.04C7.04165 14.025 5.53415 13.2225 5.07665 11.79C4.75415 10.7925 5.12917 9.47258 6.28417 9.09758C6.77917 8.94008 7.28917 9.00758 7.69418 9.26258C8.09918 9.00758 8.61668 8.94008 9.11918 9.09758C10.2742 9.47258 10.6492 10.785 10.3417 11.79C9.87668 13.275 8.27918 14.04 7.70168 14.04ZM6.14918 11.4451C6.46418 12.4126 7.53668 12.8925 7.73168 12.915C7.93418 12.8925 8.98418 12.3751 9.26918 11.4451C9.41918 10.9501 9.26168 10.3201 8.77418 10.1626C8.57918 10.1026 8.30168 10.1326 8.17418 10.3276C8.07668 10.4851 7.89668 10.5826 7.71668 10.5826C7.49917 10.5826 7.35667 10.5001 7.24417 10.3426C7.09417 10.1326 6.82416 10.1026 6.62916 10.1626C6.14916 10.3201 5.99168 10.9576 6.14918 11.4451Z" fill="#3C4E69"/>
</svg>
