<svg width="18" height="18" viewBox="0 0 18 18" fill="none" xmlns="http://www.w3.org/2000/svg">
<path d="M11.2273 17.0625H6.7273C2.6548 17.0625 0.914795 15.3225 0.914795 11.25V6.75C0.914795 2.6775 2.6548 0.9375 6.7273 0.9375H11.2273C15.2998 0.9375 17.0398 2.6775 17.0398 6.75V11.25C17.0398 15.3225 15.3073 17.0625 11.2273 17.0625ZM6.7273 2.0625C3.2698 2.0625 2.03979 3.2925 2.03979 6.75V11.25C2.03979 14.7075 3.2698 15.9375 6.7273 15.9375H11.2273C14.6848 15.9375 15.9148 14.7075 15.9148 11.25V6.75C15.9148 3.2925 14.6848 2.0625 11.2273 2.0625H6.7273Z" fill="#3C4E69"/>
<path d="M8.58765 13.5449C8.40765 13.5449 7.97265 13.4774 7.71765 12.8249L6.86268 10.6649C6.74268 10.3574 6.31518 10.0724 5.99268 10.0724L1.49268 10.0874C1.18518 10.0874 0.930176 9.83992 0.930176 9.52492C0.930176 9.21742 1.17768 8.96242 1.49268 8.96242L5.99268 8.94742H6.00018C6.78768 8.94742 7.62765 9.51742 7.92015 10.2524L8.60265 11.9774L10.1477 8.06242C10.3802 7.47741 10.7927 7.39491 10.9652 7.37991C11.1377 7.37241 11.5577 7.40991 11.8502 7.96492L12.6302 9.44242C12.7652 9.69742 13.1702 9.94492 13.4627 9.94492H16.5077C16.8152 9.94492 17.0702 10.1999 17.0702 10.5074C17.0702 10.8149 16.8152 11.0699 16.5077 11.0699H13.4627C12.7502 11.0699 11.9702 10.5974 11.6402 9.96742L11.0552 8.85742L9.48015 12.8249C9.20265 13.4699 8.76015 13.5449 8.58765 13.5449Z" fill="#3C4E69"/>
</svg>
