<svg width="18" height="18" viewBox="0 0 18 18" fill="none" xmlns="http://www.w3.org/2000/svg">
<path d="M10.3502 8.21243C10.2077 8.21243 10.0652 8.15993 9.95268 8.04743C9.73518 7.82993 9.73518 7.46996 9.95268 7.25246L16.1027 1.10246C16.3202 0.884956 16.6802 0.884956 16.8977 1.10246C17.1152 1.31996 17.1152 1.67996 16.8977 1.89746L10.7477 8.04743C10.6427 8.15243 10.5002 8.21243 10.3502 8.21243Z" fill="#3C4E69"/>
<path d="M13.3725 8.81243H9.75C9.4425 8.81243 9.1875 8.55743 9.1875 8.24993V4.62744C9.1875 4.31994 9.4425 4.06494 9.75 4.06494C10.0575 4.06494 10.3125 4.31994 10.3125 4.62744V7.68743H13.3725C13.68 7.68743 13.935 7.94243 13.935 8.24993C13.935 8.55743 13.68 8.81243 13.3725 8.81243Z" fill="#3C4E69"/>
<path d="M11.25 17.0625H6.75C2.6775 17.0625 0.9375 15.3225 0.9375 11.25V6.75C0.9375 2.6775 2.6775 0.9375 6.75 0.9375H8.25C8.5575 0.9375 8.8125 1.1925 8.8125 1.5C8.8125 1.8075 8.5575 2.0625 8.25 2.0625H6.75C3.2925 2.0625 2.0625 3.2925 2.0625 6.75V11.25C2.0625 14.7075 3.2925 15.9375 6.75 15.9375H11.25C14.7075 15.9375 15.9375 14.7075 15.9375 11.25V9.75C15.9375 9.4425 16.1925 9.1875 16.5 9.1875C16.8075 9.1875 17.0625 9.4425 17.0625 9.75V11.25C17.0625 15.3225 15.3225 17.0625 11.25 17.0625Z" fill="#3C4E69"/>
</svg>
