<svg width="18" height="18" viewBox="0 0 18 18" fill="none" xmlns="http://www.w3.org/2000/svg">
<path d="M9.88552 14.0249C9.00802 14.0249 8.26552 13.4849 7.98802 12.6524L7.46304 11.0999C7.38054 10.8299 7.17054 10.6274 6.91554 10.5449L5.35554 10.0199C4.51554 9.73493 3.97554 8.97743 3.99054 8.09243C4.00554 7.20744 4.56054 6.46496 5.40804 6.20246L11.0555 4.44744C11.768 4.22994 12.5405 4.41746 13.0655 4.94996C13.5905 5.48246 13.778 6.24745 13.5605 6.95995L11.8055 12.6149C11.543 13.4624 10.8005 14.0174 9.90802 14.0324C9.90052 14.0249 9.89302 14.0249 9.88552 14.0249ZM11.6405 5.47495C11.5505 5.47495 11.468 5.48996 11.378 5.51246L5.72304 7.27495C5.26554 7.41745 5.10054 7.79243 5.10054 8.10743C5.09304 8.41493 5.25054 8.80493 5.70054 8.95493L7.26054 9.47243C7.86052 9.66743 8.33302 10.1399 8.52802 10.7474L9.04552 12.2924C9.19552 12.7424 9.54802 12.8849 9.89302 12.8999C10.2005 12.8999 10.583 12.7349 10.7255 12.2774L12.4805 6.62245C12.578 6.30745 12.4955 5.97745 12.263 5.74495C12.0905 5.56495 11.873 5.47495 11.6405 5.47495Z" fill="#3C4E69"/>
<path d="M11.25 17.0625H6.75C2.6775 17.0625 0.9375 15.3225 0.9375 11.25V6.75C0.9375 2.6775 2.6775 0.9375 6.75 0.9375H11.25C15.3225 0.9375 17.0625 2.6775 17.0625 6.75V11.25C17.0625 15.3225 15.3225 17.0625 11.25 17.0625ZM6.75 2.0625C3.2925 2.0625 2.0625 3.2925 2.0625 6.75V11.25C2.0625 14.7075 3.2925 15.9375 6.75 15.9375H11.25C14.7075 15.9375 15.9375 14.7075 15.9375 11.25V6.75C15.9375 3.2925 14.7075 2.0625 11.25 2.0625H6.75Z" fill="#3C4E69"/>
</svg>
