<svg width="18" height="18" viewBox="0 0 18 18" fill="none" xmlns="http://www.w3.org/2000/svg">
<path d="M9 11.8125C7.4475 11.8125 6.1875 10.5525 6.1875 9C6.1875 7.4475 7.4475 6.1875 9 6.1875C10.5525 6.1875 11.8125 7.4475 11.8125 9C11.8125 10.5525 10.5525 11.8125 9 11.8125ZM9 7.3125C8.07 7.3125 7.3125 8.07 7.3125 9C7.3125 9.93 8.07 10.6875 9 10.6875C9.93 10.6875 10.6875 9.93 10.6875 9C10.6875 8.07 9.93 7.3125 9 7.3125Z" fill="#3C4E69"/>
<path d="M11.4075 16.6423C11.25 16.6423 11.0925 16.6198 10.935 16.5823C10.47 16.4548 10.08 16.1623 9.8325 15.7498L9.7425 15.5998C9.3 14.8348 8.6925 14.8348 8.25 15.5998L8.1675 15.7423C7.92 16.1623 7.53 16.4623 7.065 16.5823C6.5925 16.7098 6.105 16.6423 5.6925 16.3948L4.4025 15.6523C3.945 15.3898 3.615 14.9623 3.4725 14.4448C3.3375 13.9273 3.405 13.3948 3.6675 12.9373C3.885 12.5548 3.945 12.2098 3.8175 11.9923C3.69 11.7748 3.3675 11.6473 2.925 11.6473C1.83 11.6473 0.9375 10.7548 0.9375 9.65985V8.33985C0.9375 7.24485 1.83 6.35235 2.925 6.35235C3.3675 6.35235 3.69 6.22485 3.8175 6.00735C3.945 5.78985 3.8925 5.44485 3.6675 5.06235C3.405 4.60485 3.3375 4.06485 3.4725 3.55485C3.6075 3.03735 3.9375 2.60985 4.4025 2.34735L5.7 1.60485C6.5475 1.10235 7.665 1.39485 8.175 2.25735L8.265 2.40735C8.7075 3.17235 9.315 3.17235 9.7575 2.40735L9.84 2.26485C10.35 1.39485 11.4675 1.10235 12.3225 1.61235L13.6125 2.35485C14.07 2.61735 14.4 3.04485 14.5425 3.56235C14.6775 4.07985 14.61 4.61235 14.3475 5.06985C14.13 5.45235 14.07 5.79735 14.1975 6.01485C14.325 6.23235 14.6475 6.35985 15.09 6.35985C16.185 6.35985 17.0775 7.25235 17.0775 8.34735V9.66735C17.0775 10.7623 16.185 11.6548 15.09 11.6548C14.6475 11.6548 14.325 11.7823 14.1975 11.9998C14.07 12.2173 14.1225 12.5623 14.3475 12.9448C14.61 13.4023 14.685 13.9423 14.5425 14.4523C14.4075 14.9698 14.0775 15.3973 13.6125 15.6598L12.315 16.4023C12.03 16.5598 11.7225 16.6423 11.4075 16.6423ZM9 13.8673C9.6675 13.8673 10.29 14.2873 10.7175 15.0298L10.8 15.1723C10.89 15.3298 11.04 15.4423 11.22 15.4873C11.4 15.5323 11.58 15.5098 11.73 15.4198L13.0275 14.6698C13.2225 14.5573 13.3725 14.3698 13.4325 14.1448C13.4925 13.9198 13.4625 13.6873 13.35 13.4923C12.9225 12.7573 12.87 11.9998 13.2 11.4223C13.53 10.8448 14.2125 10.5148 15.0675 10.5148C15.5475 10.5148 15.93 10.1323 15.93 9.65235V8.33235C15.93 7.85985 15.5475 7.46985 15.0675 7.46985C14.2125 7.46985 13.53 7.13985 13.2 6.56235C12.87 5.98485 12.9225 5.22735 13.35 4.49235C13.4625 4.29735 13.4925 4.06485 13.4325 3.83985C13.3725 3.61485 13.23 3.43485 13.035 3.31485L11.7375 2.57235C11.415 2.37735 10.9875 2.48985 10.7925 2.81985L10.71 2.96235C10.2825 3.70485 9.66 4.12485 8.9925 4.12485C8.325 4.12485 7.7025 3.70485 7.275 2.96235L7.1925 2.81235C7.005 2.49735 6.585 2.38485 6.2625 2.57235L4.965 3.32235C4.77 3.43485 4.62 3.62235 4.56 3.84735C4.5 4.07235 4.53 4.30485 4.6425 4.49985C5.07 5.23485 5.1225 5.99235 4.7925 6.56985C4.4625 7.14735 3.78 7.47735 2.925 7.47735C2.445 7.47735 2.0625 7.85985 2.0625 8.33985V9.65985C2.0625 10.1323 2.445 10.5223 2.925 10.5223C3.78 10.5223 4.4625 10.8523 4.7925 11.4298C5.1225 12.0073 5.07 12.7648 4.6425 13.4998C4.53 13.6948 4.5 13.9273 4.56 14.1523C4.62 14.3773 4.7625 14.5573 4.9575 14.6773L6.255 15.4198C6.4125 15.5173 6.6 15.5398 6.7725 15.4948C6.9525 15.4498 7.1025 15.3298 7.2 15.1723L7.2825 15.0298C7.71 14.2948 8.3325 13.8673 9 13.8673Z" fill="#3C4E69"/>
</svg>
