<svg width="34" height="34" viewBox="0 0 34 34" fill="none" xmlns="http://www.w3.org/2000/svg">
<path d="M22.667 33.6033C22.2845 33.6033 21.9303 33.3908 21.7461 33.065C21.562 32.7391 21.562 32.3283 21.7603 32.0025L23.2478 29.5233C23.5453 29.0133 24.197 28.8575 24.707 29.155C25.217 29.4525 25.3728 30.1041 25.0753 30.6141L24.6928 31.2516C28.6028 30.3308 31.5353 26.8175 31.5353 22.6241C31.5353 22.0433 32.017 21.5616 32.5978 21.5616C33.1786 21.5616 33.6603 22.0433 33.6603 22.6241C33.6461 28.6733 28.7161 33.6033 22.667 33.6033Z" fill="#0A67AD"/>
<path d="M1.41663 12.3533C0.835793 12.3533 0.354126 11.8716 0.354126 11.2908C0.354126 5.24164 5.28413 0.311646 11.3333 0.311646C11.7158 0.311646 12.07 0.524153 12.2541 0.849986C12.4383 1.17582 12.4383 1.58666 12.24 1.91249L10.7525 4.39166C10.455 4.90166 9.80329 5.05751 9.29329 4.76001C8.78329 4.46251 8.62746 3.81088 8.92496 3.30088L9.30746 2.66335C5.39746 3.58419 2.46496 7.09748 2.46496 11.2908C2.47913 11.8716 1.99746 12.3533 1.41663 12.3533Z" fill="#0A67AD"/>
<path d="M12.2825 31.5207C6.87079 31.5207 2.47913 27.115 2.47913 21.7175C2.47913 16.32 6.88496 11.9141 12.2825 11.9141C12.5375 11.9141 12.7641 11.9283 13.0191 11.9424C17.8216 12.3108 21.7033 16.1924 22.0575 20.9665C22.0716 21.2782 22.0858 21.4909 22.0858 21.7175C22.1 27.115 17.6941 31.5207 12.2825 31.5207ZM12.2825 14.025C8.04663 14.025 4.60413 17.4674 4.60413 21.7032C4.60413 25.939 8.04663 29.3815 12.2825 29.3815C16.5183 29.3815 19.975 25.939 19.975 21.7032C19.975 21.519 19.9608 21.3349 19.9466 21.1507C19.6633 17.354 16.6175 14.3224 12.8775 14.0391C12.6933 14.0391 12.495 14.025 12.2825 14.025Z" fill="#0A67AD"/>
<path d="M21.7178 22.1H21.0237C20.4712 22.1 20.0037 21.675 19.9612 21.1225C19.6778 17.3683 16.6462 14.3367 12.8919 14.0533C12.3394 14.0108 11.9144 13.5433 11.9144 12.9908V12.2967C11.9144 6.88499 16.3203 2.49335 21.732 2.49335C27.1437 2.49335 31.5353 6.89915 31.5353 12.2967C31.5353 17.6942 27.1153 22.1 21.7178 22.1ZM14.0253 12.0558C18.0203 12.7783 21.222 15.9658 21.9445 19.975C26.0812 19.8475 29.3962 16.4475 29.3962 12.2967C29.3962 8.06082 25.9537 4.61835 21.7178 4.61835C17.5528 4.60418 14.1528 7.91918 14.0253 12.0558Z" fill="#0A67AD"/>
</svg>
