<svg width="34" height="34" viewBox="0 0 34 34" fill="none" xmlns="http://www.w3.org/2000/svg">
<path d="M11.3333 8.14581C10.7524 8.14581 10.2708 7.66415 10.2708 7.08331V2.83331C10.2708 2.25248 10.7524 1.77081 11.3333 1.77081C11.9141 1.77081 12.3958 2.25248 12.3958 2.83331V7.08331C12.3958 7.66415 11.9141 8.14581 11.3333 8.14581Z" fill="#0A67AD"/>
<path d="M16.9999 23.0714C16.3361 23.0714 15.7856 22.3374 15.7856 21.4524V14.9762C15.7856 14.0911 16.3361 13.3571 16.9999 13.3571C17.6637 13.3571 18.2142 14.0911 18.2142 14.9762V21.4524C18.2142 22.3374 17.6637 23.0714 16.9999 23.0714Z" fill="#0A67AD"/>
<path d="M21.8571 18.2142C21.8571 18.8781 21.1231 19.4285 20.2381 19.4285L13.7619 19.4285C12.8768 19.4285 12.1428 18.8781 12.1428 18.2142C12.1428 17.5504 12.8768 17 13.7619 17L20.2381 17C21.1231 17 21.8571 17.5504 21.8571 18.2142Z" fill="#0A67AD"/>
<path d="M22.6667 8.14581C22.0859 8.14581 21.6042 7.66415 21.6042 7.08331V2.83331C21.6042 2.25248 22.0859 1.77081 22.6667 1.77081C23.2476 1.77081 23.7292 2.25248 23.7292 2.83331V7.08331C23.7292 7.66415 23.2476 8.14581 22.6667 8.14581Z" fill="#0A67AD"/>
<path d="M22.6667 32.2291H11.3333C6.1625 32.2291 3.1875 29.2541 3.1875 24.0833V12.0416C3.1875 6.87081 6.1625 3.89581 11.3333 3.89581H22.6667C27.8375 3.89581 30.8125 6.87081 30.8125 12.0416V24.0833C30.8125 29.2541 27.8375 32.2291 22.6667 32.2291ZM11.3333 6.02081C7.28167 6.02081 5.3125 7.98998 5.3125 12.0416V24.0833C5.3125 28.135 7.28167 30.1041 11.3333 30.1041H22.6667C26.7183 30.1041 28.6875 28.135 28.6875 24.0833V12.0416C28.6875 7.98998 26.7183 6.02081 22.6667 6.02081H11.3333Z" fill="#0A67AD"/>
</svg>
