<svg width="22" height="22" viewBox="0 0 22 22" fill="none" xmlns="http://www.w3.org/2000/svg">
<path d="M7.33337 5.27082C6.95754 5.27082 6.64587 4.95915 6.64587 4.58332V1.83332C6.64587 1.45748 6.95754 1.14582 7.33337 1.14582C7.70921 1.14582 8.02087 1.45748 8.02087 1.83332V4.58332C8.02087 4.95915 7.70921 5.27082 7.33337 5.27082Z" fill="#96A0AF"/>
<path d="M14.6666 5.27082C14.2908 5.27082 13.9791 4.95915 13.9791 4.58332V1.83332C13.9791 1.45748 14.2908 1.14582 14.6666 1.14582C15.0425 1.14582 15.3541 1.45748 15.3541 1.83332V4.58332C15.3541 4.95915 15.0425 5.27082 14.6666 5.27082Z" fill="#96A0AF"/>
<path d="M7.79167 13.2917C7.6725 13.2917 7.55333 13.2642 7.44333 13.2184C7.32417 13.1726 7.2325 13.1084 7.14083 13.0259C6.97583 12.8517 6.875 12.6226 6.875 12.3751C6.875 12.2559 6.9025 12.1367 6.94833 12.0267C6.99417 11.9167 7.05833 11.8159 7.14083 11.7242C7.2325 11.6417 7.32417 11.5776 7.44333 11.5317C7.77333 11.3942 8.18583 11.4676 8.4425 11.7242C8.6075 11.8984 8.70833 12.1367 8.70833 12.3751C8.70833 12.4301 8.69917 12.4942 8.69 12.5584C8.68083 12.6134 8.6625 12.6684 8.635 12.7234C8.61667 12.7784 8.58917 12.8334 8.5525 12.8884C8.525 12.9342 8.47917 12.9801 8.4425 13.0259C8.26833 13.1909 8.03 13.2917 7.79167 13.2917Z" fill="#96A0AF"/>
<path d="M11 13.2916C10.8809 13.2916 10.7617 13.2641 10.6517 13.2182C10.5325 13.1724 10.4409 13.1082 10.3492 13.0257C10.1842 12.8516 10.0834 12.6224 10.0834 12.3749C10.0834 12.2557 10.1109 12.1366 10.1567 12.0266C10.2025 11.9166 10.2667 11.8157 10.3492 11.7241C10.4409 11.6416 10.5325 11.5774 10.6517 11.5316C10.9817 11.3849 11.3942 11.4674 11.6509 11.7241C11.8159 11.8982 11.9167 12.1366 11.9167 12.3749C11.9167 12.4299 11.9075 12.4941 11.8984 12.5582C11.8892 12.6132 11.8709 12.6682 11.8434 12.7232C11.825 12.7782 11.7975 12.8332 11.7609 12.8882C11.7334 12.9341 11.6875 12.9799 11.6509 13.0257C11.4767 13.1907 11.2384 13.2916 11 13.2916Z" fill="#96A0AF"/>
<path d="M14.2083 13.2916C14.0891 13.2916 13.97 13.2641 13.86 13.2182C13.7408 13.1724 13.6491 13.1082 13.5575 13.0257C13.5208 12.9799 13.4841 12.9341 13.4475 12.8882C13.4108 12.8332 13.3833 12.7782 13.365 12.7232C13.3375 12.6682 13.3191 12.6132 13.31 12.5582C13.3008 12.4941 13.2916 12.4299 13.2916 12.3749C13.2916 12.1366 13.3925 11.8982 13.5575 11.7241C13.6491 11.6416 13.7408 11.5774 13.86 11.5316C14.1991 11.3849 14.6025 11.4674 14.8591 11.7241C15.0241 11.8982 15.125 12.1366 15.125 12.3749C15.125 12.4299 15.1158 12.4941 15.1066 12.5582C15.0975 12.6132 15.0791 12.6682 15.0516 12.7232C15.0333 12.7782 15.0058 12.8332 14.9691 12.8882C14.9416 12.9341 14.8958 12.9799 14.8591 13.0257C14.685 13.1907 14.4466 13.2916 14.2083 13.2916Z" fill="#96A0AF"/>
<path d="M7.79167 16.4999C7.6725 16.4999 7.55333 16.4725 7.44333 16.4267C7.33333 16.3808 7.2325 16.3166 7.14083 16.2341C6.97583 16.0599 6.875 15.8216 6.875 15.5832C6.875 15.4641 6.9025 15.3449 6.94833 15.2349C6.99417 15.1157 7.05833 15.015 7.14083 14.9325C7.48 14.5933 8.10333 14.5933 8.4425 14.9325C8.6075 15.1067 8.70833 15.3449 8.70833 15.5832C8.70833 15.8216 8.6075 16.0599 8.4425 16.2341C8.26833 16.3991 8.03 16.4999 7.79167 16.4999Z" fill="#96A0AF"/>
<path d="M11 16.4999C10.7617 16.4999 10.5234 16.3991 10.3492 16.2341C10.1842 16.0599 10.0834 15.8216 10.0834 15.5832C10.0834 15.4641 10.1109 15.3449 10.1567 15.2349C10.2025 15.1157 10.2667 15.015 10.3492 14.9325C10.6884 14.5933 11.3117 14.5933 11.6509 14.9325C11.7334 15.015 11.7975 15.1157 11.8434 15.2349C11.8892 15.3449 11.9167 15.4641 11.9167 15.5832C11.9167 15.8216 11.8159 16.0599 11.6509 16.2341C11.4767 16.3991 11.2384 16.4999 11 16.4999Z" fill="#96A0AF"/>
<path d="M14.2083 16.4999C13.97 16.4999 13.7316 16.3991 13.5575 16.2341C13.475 16.1516 13.4108 16.0507 13.365 15.9316C13.3191 15.8216 13.2916 15.7024 13.2916 15.5832C13.2916 15.4641 13.3191 15.3449 13.365 15.2349C13.4108 15.1157 13.475 15.0149 13.5575 14.9324C13.7683 14.7216 14.0891 14.6207 14.3825 14.6849C14.4466 14.6941 14.5016 14.7124 14.5566 14.7399C14.6116 14.7582 14.6666 14.7857 14.7216 14.8224C14.7675 14.8499 14.8133 14.8957 14.8591 14.9324C15.0241 15.1066 15.125 15.3449 15.125 15.5832C15.125 15.8216 15.0241 16.0599 14.8591 16.2341C14.685 16.3991 14.4466 16.4999 14.2083 16.4999Z" fill="#96A0AF"/>
<path d="M18.7917 9.01984H3.20837C2.83254 9.01984 2.52087 8.70817 2.52087 8.33234C2.52087 7.9565 2.83254 7.64484 3.20837 7.64484H18.7917C19.1675 7.64484 19.4792 7.9565 19.4792 8.33234C19.4792 8.70817 19.1675 9.01984 18.7917 9.01984Z" fill="#96A0AF"/>
<path d="M14.6667 20.8542H7.33333C3.9875 20.8542 2.0625 18.9292 2.0625 15.5833V7.79165C2.0625 4.44582 3.9875 2.52082 7.33333 2.52082H14.6667C18.0125 2.52082 19.9375 4.44582 19.9375 7.79165V15.5833C19.9375 18.9292 18.0125 20.8542 14.6667 20.8542ZM7.33333 3.89582C4.71167 3.89582 3.4375 5.16999 3.4375 7.79165V15.5833C3.4375 18.205 4.71167 19.4792 7.33333 19.4792H14.6667C17.2883 19.4792 18.5625 18.205 18.5625 15.5833V7.79165C18.5625 5.16999 17.2883 3.89582 14.6667 3.89582H7.33333Z" fill="#96A0AF"/>
</svg>
