<svg width="34" height="34" viewBox="0 0 34 34" fill="none" xmlns="http://www.w3.org/2000/svg">
<path d="M24.4228 32.2291H9.57614C5.60947 32.2291 3.08781 29.8633 2.86114 25.9108L2.12447 14.2233C2.01114 12.4525 2.62031 10.7525 3.83864 9.46331C5.04281 8.17415 6.74281 7.43748 8.49947 7.43748C8.95281 7.43748 9.39197 7.16831 9.60447 6.74331L10.6245 4.71748C11.4603 3.05998 13.557 1.77081 15.3845 1.77081H18.6287C20.4562 1.77081 22.5387 3.05998 23.3745 4.70331L24.3945 6.77165C24.607 7.16831 25.032 7.43748 25.4995 7.43748C27.2562 7.43748 28.9562 8.17415 30.1603 9.46331C31.3787 10.7666 31.9878 12.4525 31.8745 14.2233L31.1378 25.925C30.8828 29.9341 28.432 32.2291 24.4228 32.2291ZM15.3845 3.89581C14.3362 3.89581 13.0045 4.71748 12.5228 5.66665L11.5028 7.70665C10.9078 8.85415 9.76031 9.56248 8.49947 9.56248C7.30947 9.56248 6.20446 10.0441 5.38281 10.9083C4.57531 11.7725 4.16447 12.9058 4.24947 14.0816L4.98614 25.7833C5.15612 28.645 6.70031 30.1041 9.57614 30.1041H24.4228C27.2845 30.1041 28.8287 28.645 29.0128 25.7833L29.7495 14.0816C29.8203 12.9058 29.4237 11.7725 28.6162 10.9083C27.7945 10.0441 26.6895 9.56248 25.4995 9.56248C24.2387 9.56248 23.0912 8.85415 22.4962 7.73498L21.462 5.66665C20.9945 4.73165 19.6628 3.90998 18.6145 3.90998H15.3845V3.89581Z" fill="#0A67AD"/>
<path d="M19.125 12.3958H14.875C14.2942 12.3958 13.8125 11.9141 13.8125 11.3333C13.8125 10.7525 14.2942 10.2708 14.875 10.2708H19.125C19.7058 10.2708 20.1875 10.7525 20.1875 11.3333C20.1875 11.9141 19.7058 12.3958 19.125 12.3958Z" fill="#0A67AD"/>
<path d="M16.9999 26.5625C13.8691 26.5625 11.3333 24.0267 11.3333 20.8959C11.3333 17.765 13.8691 15.2292 16.9999 15.2292C20.1308 15.2292 22.6666 17.765 22.6666 20.8959C22.6666 24.0267 20.1308 26.5625 16.9999 26.5625ZM16.9999 17.3542C15.0449 17.3542 13.4583 18.9409 13.4583 20.8959C13.4583 22.8509 15.0449 24.4375 16.9999 24.4375C18.9549 24.4375 20.5416 22.8509 20.5416 20.8959C20.5416 18.9409 18.9549 17.3542 16.9999 17.3542Z" fill="#0A67AD"/>
</svg>
