<svg width="22" height="22" viewBox="0 0 22 22" fill="none" xmlns="http://www.w3.org/2000/svg">
<path d="M10.1469 16.6559C9.99107 16.6559 9.8444 16.6284 9.68857 16.5734C9.1844 16.3809 8.85444 15.9134 8.85444 15.3726V12.3476H7.95611C7.44277 12.3476 6.99361 12.0543 6.78277 11.5959C6.57194 11.1284 6.65444 10.6059 6.99361 10.2209L10.8986 5.78428C11.2561 5.38094 11.8061 5.24344 12.3102 5.43594C12.8144 5.62844 13.1444 6.09594 13.1444 6.63678V9.66176H14.0519C14.5652 9.66176 15.0144 9.95509 15.2252 10.4134C15.4361 10.8809 15.3536 11.4034 15.0144 11.7884L11.1094 16.2251C10.8527 16.5001 10.5044 16.6559 10.1469 16.6559ZM8.15777 10.9726H9.5419C9.91774 10.9726 10.2294 11.2843 10.2294 11.6601V15.1251L13.8411 11.0276H12.4569C12.0811 11.0276 11.7694 10.7159 11.7694 10.3401V6.87511L8.15777 10.9726Z" fill="#96A0AF"/>
<path d="M10.9732 20.8542C5.54652 20.8542 1.11902 16.4358 1.11902 11C1.11902 5.56417 5.54652 1.14583 10.9732 1.14583C16.3999 1.14583 20.8274 5.56417 20.8274 11C20.8274 16.4358 16.409 20.8542 10.9732 20.8542ZM10.9732 2.52083C6.29819 2.52083 2.49402 6.325 2.49402 11C2.49402 15.675 6.29819 19.4792 10.9732 19.4792C15.6482 19.4792 19.4524 15.675 19.4524 11C19.4524 6.325 15.6482 2.52083 10.9732 2.52083Z" fill="#96A0AF"/>
</svg>
