<svg width="34" height="34" viewBox="0 0 34 34" fill="none" xmlns="http://www.w3.org/2000/svg">
<path d="M17 32.2291C8.59921 32.2291 1.77087 25.4008 1.77087 17C1.77087 8.59915 8.59921 1.77081 17 1.77081C25.4009 1.77081 32.2292 8.59915 32.2292 17C32.2292 25.4008 25.4009 32.2291 17 32.2291ZM17 3.89581C9.77504 3.89581 3.89587 9.77498 3.89587 17C3.89587 24.225 9.77504 30.1041 17 30.1041C24.225 30.1041 30.1042 24.225 30.1042 17C30.1042 9.77498 24.225 3.89581 17 3.89581Z" fill="#0A67AD"/>
<path d="M16.9991 25.8543C16.7016 25.8543 16.4183 25.8118 16.1775 25.7268C13.1316 24.6926 8.30078 20.9809 8.30078 15.4559C8.30078 12.5093 10.6808 10.1152 13.6133 10.1152C14.8883 10.1152 16.0641 10.5543 17.0133 11.3477C17.9625 10.5543 19.1525 10.1152 20.3991 10.1152C23.3316 10.1152 25.7116 12.5093 25.7116 15.4559C25.7116 20.9668 20.8808 24.6785 17.8208 25.7268C17.58 25.8118 17.2825 25.8543 16.9991 25.8543ZM13.5991 12.2543C11.8424 12.2543 10.4116 13.6993 10.4116 15.4701C10.4116 20.4143 15.1858 23.1626 16.8575 23.7293C16.9141 23.7434 17.0558 23.7434 17.1125 23.7293C18.7841 23.1626 23.5583 20.4143 23.5583 15.4701C23.5583 13.6993 22.1275 12.2543 20.3708 12.2543C19.3791 12.2543 18.43 12.736 17.835 13.5435C17.4383 14.0818 16.5316 14.0818 16.135 13.5435C15.54 12.7218 14.6191 12.2543 13.5991 12.2543Z" fill="#0A67AD"/>
</svg>
