<svg width="22" height="22" viewBox="0 0 22 22" fill="none" xmlns="http://www.w3.org/2000/svg">
<path d="M20.1667 20.8542H1.83337C1.45754 20.8542 1.14587 20.5425 1.14587 20.1667C1.14587 19.7908 1.45754 19.4792 1.83337 19.4792H20.1667C20.5425 19.4792 20.8542 19.7908 20.8542 20.1667C20.8542 20.5425 20.5425 20.8542 20.1667 20.8542Z" fill="#96A0AF"/>
<path d="M19.25 20.8542H2.75C2.37417 20.8542 2.0625 20.5425 2.0625 20.1667V5.5C2.0625 2.73167 3.64833 1.14584 6.41667 1.14584H15.5833C18.3517 1.14584 19.9375 2.73167 19.9375 5.5V20.1667C19.9375 20.5425 19.6258 20.8542 19.25 20.8542ZM3.4375 19.4792H18.5625V5.5C18.5625 3.465 17.6183 2.52084 15.5833 2.52084H6.41667C4.38167 2.52084 3.4375 3.465 3.4375 5.5V19.4792Z" fill="#96A0AF"/>
<path d="M13.75 20.8542H8.25C7.87417 20.8542 7.5625 20.5425 7.5625 20.1667V14.6117C7.5625 13.7592 8.25917 13.0625 9.11167 13.0625H12.8975C13.75 13.0625 14.4467 13.7592 14.4467 14.6117V20.1667C14.4375 20.5425 14.1258 20.8542 13.75 20.8542ZM8.9375 19.4792H13.0625V14.6117C13.0625 14.52 12.9892 14.4375 12.8883 14.4375H9.10249C9.01082 14.4375 8.92834 14.5108 8.92834 14.6117V19.4792H8.9375Z" fill="#96A0AF"/>
<path d="M11 10.7708C10.6242 10.7708 10.3125 10.4592 10.3125 10.0833V5.5C10.3125 5.12417 10.6242 4.8125 11 4.8125C11.3758 4.8125 11.6875 5.12417 11.6875 5.5V10.0833C11.6875 10.4592 11.3758 10.7708 11 10.7708Z" fill="#96A0AF"/>
<path d="M13.2917 8.47916H8.70837C8.33254 8.47916 8.02087 8.1675 8.02087 7.79166C8.02087 7.41583 8.33254 7.10416 8.70837 7.10416H13.2917C13.6675 7.10416 13.9792 7.41583 13.9792 7.79166C13.9792 8.1675 13.6675 8.47916 13.2917 8.47916Z" fill="#96A0AF"/>
</svg>
