<svg width="157" height="55" viewBox="0 0 157 55" fill="none" xmlns="http://www.w3.org/2000/svg">
<path d="M155.912 0.027339C155.829 0.00891699 155.733 0 155.638 0H147.617C147.523 0 147.436 0.00891699 147.345 0.027339C146.731 0.157482 146.261 0.704794 146.261 1.36383V1.70196V9.08918V9.42732C146.261 10.0822 146.731 10.6325 147.345 10.7614C147.436 10.7798 147.523 10.7905 147.617 10.7905H155.638C155.733 10.7905 155.829 10.7798 155.912 10.7614C156.532 10.6325 157 10.0816 157 9.42732V9.08918V1.70196V1.36383C156.999 0.705388 156.531 0.157482 155.912 0.027339Z" fill="#00528F"/>
<path d="M153.069 4.49571H150.191V1.83105H148.439V8.96097H150.191V6.03246H153.069V8.96097H154.816V1.83105H153.069V4.49571Z" fill="white"/>
<path d="M13.2747 6.05139L20.7663 26.1825H16.1917L14.6773 21.6988H7.18519L5.61516 26.1825H1.18677L8.75758 6.05139H13.2747ZM13.5268 18.4013L10.9993 11.0129H10.946L8.34155 18.4013H13.5268Z" fill="white"/>
<path d="M37.4584 26.1825L29.0993 15.1566C28.3755 14.1808 27.7382 13.2657 27.0416 12.3755H26.9842C27.0706 13.1052 27.0706 14.3597 27.0706 15.3361V26.1819H22.9275V6.05139H27.0706L35.0977 16.6536C35.8836 17.6626 36.5186 18.5463 37.1258 19.4335H37.1867C37.1258 18.3662 37.1258 17.0208 37.1258 16.0712V6.05199H41.2725V26.1831H37.4584V26.1825Z" fill="white"/>
<path d="M55.7394 6.05139L63.2291 26.1825H58.6545L57.1396 21.6988H49.6534L48.0774 26.1825H43.6484L51.221 6.05139H55.7394ZM55.9891 18.4013L53.4687 11.0129H53.413L50.8003 18.4013H55.9891Z" fill="white"/>
<path d="M65.389 6.05139H72.1852C79.2766 6.05139 83.3192 9.93012 83.3192 15.9523C83.3192 22.1861 78.699 26.1825 71.7863 26.1825H65.3884V6.05139H65.389ZM71.8786 22.6419C76.8645 22.6419 78.85 19.6159 78.85 16.0706C78.85 12.0094 76.4378 9.59377 71.7863 9.59377H69.5801V22.6419H71.8786Z" fill="white"/>
<path d="M86.405 16.0544C86.405 9.92882 90.6358 5.69354 96.6898 5.69354C102.748 5.69354 106.973 9.95615 106.973 16.0544C106.973 22.2514 102.721 26.4177 96.6898 26.4177C90.6364 26.4183 86.405 22.2181 86.405 16.0544ZM102.504 16.0544C102.504 11.6771 100.176 9.22344 96.6904 9.22344C93.2331 9.22344 90.8772 11.6438 90.8772 16.0544C90.8772 20.4989 93.2331 22.927 96.6904 22.927C100.148 22.9276 102.504 20.4995 102.504 16.0544Z" fill="white"/>
<path d="M110.278 6.05139H114.469V22.6419H121.508V26.1825H110.278V6.05139Z" fill="white"/>
<path d="M124.516 22.7438C123.933 21.648 123.628 20.2431 123.628 18.5959V6.09564H127.816V18.3522C127.816 19.3868 128.035 20.3049 128.399 21.0026C129.102 22.3165 130.446 23.016 132.319 23.016C134.153 23.016 135.498 22.3165 136.204 21.0026C136.602 20.3049 136.787 19.3868 136.787 18.3237V6.09564H140.977V18.5953C140.977 20.2426 140.668 21.648 140.093 22.7432C138.777 25.3044 136.017 26.4924 132.291 26.4924C128.554 26.493 125.831 25.305 124.516 22.7438Z" fill="white"/>
<path d="M157 31.4073H1.00488V32.4073H157V31.4073Z" fill="white"/>
<path d="M1.83872 38.3807C1.81505 37.9486 1.81505 37.8078 1.29249 37.7139C1.08892 37.6765 1.03092 37.6111 1.03092 37.5463C1.03092 37.4703 1.13744 37.431 1.26349 37.431C1.50968 37.431 1.97601 37.4637 2.28138 37.4637C2.73706 37.4637 2.95011 37.431 3.27382 37.431C3.42473 37.431 3.50994 37.4703 3.50994 37.5463C3.50994 37.6182 3.4123 37.6765 3.26553 37.7062C2.72523 37.8185 2.73647 38.052 2.698 38.3028C2.64888 38.6124 2.64592 39.2203 2.64592 41.0578C2.64592 41.57 2.64888 42.1506 2.6696 42.4478C2.698 42.9529 2.74653 43.1335 3.34838 43.2542C3.51705 43.2839 3.59161 43.3475 3.59161 43.4152C3.59161 43.4883 3.45372 43.5359 3.33832 43.5359C2.86785 43.5359 2.20681 43.4806 1.95412 43.4806C1.67302 43.4806 1.59253 43.4972 1.24397 43.4972C1.0688 43.4972 1.00488 43.4307 1.00488 43.3718C1.00488 43.2999 1.0972 43.2476 1.28302 43.209C1.74758 43.1044 1.78782 42.9648 1.82274 42.5226C1.85292 42.1952 1.87127 41.2248 1.87127 40.4297C1.87127 39.8479 1.86121 38.6873 1.83872 38.3807Z" fill="white"/>
<path d="M4.15284 39.9617C4.31026 39.9041 4.64462 39.7817 4.77186 39.6884C4.86536 39.6325 4.95058 39.5873 4.99378 39.5873C5.0429 39.5873 5.08787 39.6884 5.08787 39.7252C5.08787 39.8863 5.05118 40.1115 5.05118 40.1953C5.05118 40.2387 5.10089 40.2202 5.10918 40.2202C5.48438 39.9689 5.96432 39.7074 6.35431 39.7074C6.80999 39.7074 7.07157 39.9124 7.20472 40.0622C7.40534 40.3082 7.52547 40.7325 7.52547 41.2043C7.52547 41.385 7.54323 42.7749 7.55506 42.9087C7.57282 43.0477 7.66632 43.1695 7.89889 43.2349C8.07702 43.283 8.12851 43.3282 8.12851 43.3965C8.12851 43.4577 8.00246 43.497 7.85451 43.497C7.64206 43.497 7.42487 43.4803 7.16211 43.4803C6.93368 43.4803 6.6437 43.497 6.52179 43.497C6.43776 43.497 6.30934 43.4578 6.30934 43.387C6.30934 43.3211 6.41468 43.2646 6.52179 43.2284C6.74608 43.1398 6.79165 43.0673 6.81059 42.7547C6.82538 42.4457 6.84077 41.3178 6.84077 41.0451C6.84077 40.7063 6.67625 40.4371 6.55966 40.3498C6.45847 40.2785 6.17737 40.1751 5.96491 40.1751C5.55243 40.1751 5.31157 40.3159 5.13403 40.4752C5.10977 40.5001 5.04408 40.616 5.04408 40.6986C5.04408 40.8198 5.04408 42.8326 5.05237 42.9473C5.06124 43.0733 5.10208 43.1475 5.39975 43.2337C5.49207 43.264 5.56723 43.3205 5.56723 43.3769C5.56723 43.4387 5.46366 43.4869 5.33406 43.4869C5.21925 43.4869 4.96123 43.4791 4.76535 43.4791C4.41915 43.4791 4.15343 43.5077 3.9901 43.5077C3.85103 43.5077 3.7522 43.4678 3.7522 43.3864C3.7522 43.3205 3.84096 43.2753 3.94512 43.2468C4.25285 43.1475 4.31144 43.056 4.33807 42.7221C4.36293 42.4368 4.38305 41.6256 4.38305 40.6713C4.38305 40.5643 4.36293 40.4752 4.16054 40.3076C4.03744 40.2202 3.9824 40.1751 3.9824 40.1454C3.98122 40.083 4.08183 39.9861 4.15284 39.9617Z" fill="white"/>
<path d="M13.6195 37.5352C13.6941 37.7859 13.8509 38.209 14.0302 38.6951C14.5119 40.0619 15.2126 41.9154 15.3706 42.2981C15.676 43.0683 15.8239 43.1402 16.2441 43.2478C16.3933 43.2905 16.4684 43.3381 16.4684 43.4052C16.4684 43.4688 16.4009 43.5265 16.1684 43.5265C15.8606 43.5265 15.4085 43.4807 14.9978 43.4807C14.6995 43.4807 14.5693 43.4973 14.3326 43.4973C14.1024 43.4973 14.045 43.4326 14.045 43.3874C14.045 43.3381 14.1024 43.265 14.2669 43.2347C14.7161 43.1402 14.6776 42.956 14.6421 42.7551C14.5682 42.3766 14.332 41.7568 14.122 41.1548C14.1149 41.1203 14.0752 41.0645 13.8053 41.0645C13.294 41.0645 12.4744 41.0746 12.2785 41.1025C12.2412 41.1025 12.1939 41.1441 12.1773 41.1768C11.9317 41.7835 11.6938 42.584 11.6938 42.8157C11.6938 42.9239 11.7293 43.0861 12.1471 43.2169C12.3046 43.265 12.4004 43.3214 12.4004 43.3874C12.4004 43.4801 12.2625 43.5039 12.1389 43.5039C11.9791 43.5039 11.7495 43.4801 11.405 43.4801C11.0606 43.4801 10.5777 43.5259 10.4404 43.5259C10.2688 43.5259 10.2256 43.4878 10.2256 43.432C10.2256 43.3779 10.2901 43.2905 10.425 43.2472C10.8937 43.0861 11.0121 43.0564 11.2855 42.4461C11.4997 41.9719 12.5596 39.1462 12.9709 38.1336C13.007 38.0581 13.0224 37.9838 13.0224 37.9363C13.0224 37.9083 13.0224 37.8917 13.0443 37.8638C13.1307 37.7503 13.2526 37.506 13.3248 37.402C13.3893 37.3307 13.4236 37.2939 13.4728 37.2939C13.5065 37.2939 13.5426 37.3307 13.6195 37.5352ZM13.9172 40.5647C13.7633 40.0881 13.2751 38.6868 13.1934 38.5531C13.1674 38.499 13.1461 38.4901 13.1189 38.5531C12.9496 39.0042 12.4685 40.3163 12.3939 40.6039C12.3821 40.6419 12.4022 40.6711 12.4383 40.6711C12.8129 40.6615 13.5828 40.6711 13.8882 40.6419C13.8953 40.6425 13.9261 40.5962 13.9172 40.5647Z" fill="white"/>
<path d="M18.0559 40.2512C17.9926 40.2512 17.9666 40.3505 17.9666 40.467C17.9666 40.6167 17.9666 42.4613 17.9991 42.6925C18.0317 42.9819 18.124 43.1322 18.4465 43.2285C18.6152 43.276 18.6998 43.3206 18.6998 43.3961C18.6998 43.468 18.5708 43.5161 18.4294 43.5161C18.3104 43.5161 17.7435 43.4793 17.5559 43.4793C17.2499 43.4793 16.928 43.525 16.8611 43.525C16.7463 43.525 16.6475 43.4793 16.6475 43.4133C16.6475 43.3705 16.7368 43.2891 16.8404 43.2635C17.2505 43.1387 17.2576 43.055 17.2872 42.6235C17.2742 42.3353 17.302 40.8556 17.2872 40.3879C17.2872 40.341 17.241 40.2946 17.1854 40.2911L16.8522 40.278C16.7812 40.278 16.7463 40.2013 16.7463 40.111C16.7593 40.0694 17.0593 39.9185 17.1854 39.8359C17.2665 39.7806 17.302 39.7544 17.302 39.676C17.302 39.2101 17.4091 38.771 17.563 38.4227C17.7441 38.04 18.0837 37.6472 18.4779 37.4012C18.6998 37.2514 19.13 37.0369 19.5668 37.0369C20.0319 37.0369 20.3734 37.1861 20.5669 37.3952C20.5876 37.422 20.6255 37.4125 20.6421 37.3952C20.9693 37.0541 21.5096 36.795 21.9937 36.795C22.6175 36.795 22.85 37.0488 22.9708 37.2146C23.027 37.3031 23.043 37.3459 23.043 37.4291C23.043 37.6549 22.692 37.8909 22.5707 37.8909C22.5252 37.8909 22.4032 37.7667 22.218 37.5991C22.0133 37.3845 21.7706 37.2698 21.486 37.2615C21.2498 37.2615 21.0788 37.3459 20.9054 37.545C20.6805 37.8065 20.4373 38.4233 20.4373 39.7128C20.4373 39.7437 20.4373 39.8067 20.5142 39.8067C20.7379 39.8067 21.0557 39.8198 21.4061 39.8198C22.2346 39.8281 22.3819 39.7544 22.5553 39.6968C22.6453 39.6689 22.7216 39.6314 22.8003 39.6314C22.8542 39.6314 22.8542 39.9304 22.8542 40.4658C22.8542 42.2967 22.8542 42.6069 22.885 42.9153C22.9075 43.096 23.0075 43.1471 23.2957 43.2332C23.4756 43.298 23.4904 43.3265 23.4904 43.3949C23.4904 43.4668 23.3874 43.4953 23.2791 43.4953C23.0424 43.4953 22.7997 43.4668 22.5553 43.4668C22.2435 43.4668 21.9766 43.5024 21.7558 43.5024C21.657 43.5024 21.5872 43.4668 21.5872 43.3949C21.5872 43.336 21.6321 43.298 21.783 43.2457C22.0298 43.1465 22.1269 43.0722 22.1287 42.9147C22.1677 42.3341 22.1801 40.6975 22.1801 40.4087C22.1801 40.3481 22.1269 40.2905 22.086 40.2768C21.8251 40.237 20.9054 40.218 20.4882 40.2679C20.471 40.2679 20.4201 40.2934 20.4201 40.3582C20.4201 40.5739 20.4278 42.5659 20.4373 42.6901C20.4373 43.0455 20.413 43.1376 20.99 43.2624C21.1557 43.2974 21.1901 43.3753 21.1901 43.4121C21.1901 43.4775 21.0711 43.5143 20.9605 43.5143C20.8527 43.5143 20.313 43.4775 20.0692 43.4775C19.7348 43.4775 19.4987 43.5143 19.2774 43.5143C19.1762 43.5143 19.072 43.4775 19.072 43.4121C19.072 43.3444 19.1762 43.2879 19.2549 43.2742C19.665 43.1607 19.7224 43.0544 19.7224 42.6122C19.7224 42.2961 19.7443 40.8847 19.7443 40.3321C19.7443 40.294 19.6869 40.2489 19.6579 40.2489H18.0559V40.2512ZM19.6579 39.8293C19.6964 39.8293 19.7443 39.7883 19.7443 39.7556C19.7443 39.0336 19.9473 38.4043 20.1692 37.9937C20.1769 37.9746 20.1692 37.9182 20.1491 37.892C19.9852 37.687 19.6413 37.4505 19.0797 37.4505C18.8229 37.4505 18.5501 37.611 18.3465 37.9021C18.1417 38.1654 17.9737 38.7638 17.9737 39.714C17.9737 39.7556 17.9985 39.8293 18.0642 39.8293H19.6579Z" fill="white"/>
<path d="M24.1712 37.1736C24.5997 37.0209 24.8814 36.965 25.1276 36.8016C25.1566 36.7856 25.211 36.8593 25.211 36.9009C25.1861 37.1356 25.1276 38.1922 25.1276 39.4455C25.1276 40.8129 25.1122 42.598 25.1566 42.8518C25.1938 43.0396 25.2329 43.1477 25.6294 43.2642C25.7732 43.2992 25.8436 43.3462 25.8436 43.4038C25.8436 43.4674 25.714 43.5031 25.6034 43.5031C25.3773 43.5031 24.9802 43.4793 24.8127 43.4793C24.5997 43.4793 24.1896 43.5031 23.9978 43.5031C23.8126 43.5031 23.7297 43.4793 23.7297 43.4038C23.7297 43.3373 23.838 43.2897 23.9375 43.2755C24.3659 43.1733 24.3866 43.0122 24.415 42.5433C24.4316 42.188 24.479 41.176 24.479 39.6974C24.479 39.0039 24.45 38.0204 24.45 37.7388C24.45 37.6681 24.4434 37.6098 24.2292 37.4773C24.0677 37.365 24.0422 37.34 24.0422 37.3038C24.0416 37.2628 24.0671 37.198 24.1712 37.1736Z" fill="white"/>
<path d="M26.5897 39.9785C26.9348 39.9042 27.3739 39.698 27.5123 39.6582C27.5455 39.6582 27.5952 39.7556 27.5952 39.7639C27.5952 39.8697 27.536 41.0832 27.536 41.6162C27.536 42.1433 27.5455 42.5332 27.5591 42.86C27.5686 43.1631 27.7727 43.1744 28.0065 43.2534C28.1533 43.2998 28.2089 43.3467 28.2089 43.4145C28.2089 43.4685 28.0959 43.5036 27.9941 43.5036C27.9307 43.5036 27.4662 43.4798 27.2697 43.4798C26.9655 43.4798 26.6353 43.5167 26.4755 43.5167C26.3294 43.5167 26.24 43.4798 26.24 43.4145C26.24 43.3562 26.3009 43.3129 26.4613 43.2647C26.6761 43.2083 26.8123 43.0971 26.8336 42.9985C26.8584 42.8731 26.8667 42.3115 26.8667 42.0364C26.8667 42.0203 26.8791 40.6928 26.8584 40.5769C26.8501 40.5121 26.7513 40.4378 26.4755 40.2393C26.424 40.2025 26.4033 40.1764 26.4033 40.1371C26.4027 40.07 26.4826 40.0011 26.5897 39.9785ZM27.6567 38.2587C27.6567 38.5107 27.3964 38.7127 27.2141 38.7127C27.1472 38.7127 26.9969 38.6782 26.9158 38.6004C26.8424 38.5172 26.7762 38.4156 26.7762 38.2593C26.7762 38.1725 26.8123 38.0216 26.8839 37.9188C26.9809 37.8385 27.1229 37.7952 27.2525 37.7952C27.5005 37.7946 27.6567 38.0852 27.6567 38.2587Z" fill="white"/>
<path d="M31.1123 40.137C31.2526 40.3349 31.3011 40.5227 31.3011 40.9149C31.3011 41.2792 31.2627 42.4623 31.2627 42.5646C31.2627 42.9912 31.5591 43.0287 31.6319 43.0287C31.6698 43.0287 31.884 42.9645 31.9864 42.8896C32.0136 42.8736 32.0249 42.8896 32.0432 42.917C32.0728 42.9485 32.0728 42.999 32.0728 43.0132C32.0728 43.1873 31.6544 43.595 31.2331 43.595C31.0212 43.595 30.749 43.4684 30.6407 43.1232C30.6407 43.1131 30.6028 43.0738 30.5833 43.0857C30.2359 43.3276 29.8382 43.4874 29.7459 43.5166C29.6376 43.5516 29.421 43.5748 29.3725 43.5748C29.0464 43.5748 28.728 43.1695 28.728 42.7042C28.728 42.5331 28.8043 42.3542 28.9091 42.2223C29.0008 42.1028 29.1399 42.0547 29.2772 41.9905C29.4216 41.9311 30.1625 41.7314 30.3714 41.6631C30.5833 41.5995 30.6407 41.5508 30.6407 41.4937C30.6496 41.4093 30.6543 40.84 30.6543 40.7259C30.6543 40.4912 30.3868 40.102 29.927 40.102C29.7358 40.102 29.611 40.1531 29.5506 40.2018C29.4956 40.2303 29.4654 40.3997 29.4814 40.5875C29.4814 40.616 29.4458 40.6713 29.4299 40.6921C29.3358 40.7622 28.87 40.9981 28.8251 40.9981C28.7647 40.9981 28.7114 40.9232 28.7114 40.8745C28.7114 40.6041 28.9712 40.342 29.4097 40.052C29.6808 39.8607 30.1004 39.6973 30.2744 39.6973C30.7401 39.6979 30.9727 39.9314 31.1123 40.137ZM30.4945 42.9235C30.5537 42.889 30.6099 42.7113 30.6099 42.6923C30.6265 42.4695 30.6265 42.1492 30.6265 41.9632C30.6265 41.9311 30.5904 41.8883 30.5537 41.8883C30.2945 41.8883 29.8447 42.0458 29.595 42.1723C29.5038 42.2312 29.408 42.2977 29.408 42.5218C29.408 42.9348 29.8009 43.0857 29.9974 43.0857C30.1347 43.0857 30.3199 43.0209 30.4945 42.9235Z" fill="white"/>
<path d="M34.6179 39.7883C34.6298 39.7883 34.7244 39.837 34.7244 39.8697C34.7244 39.837 34.7481 40.1033 34.7481 40.2209C34.7481 40.3083 34.5741 40.3261 34.509 40.3261H33.4929C33.4485 40.3261 33.4101 40.3719 33.4101 40.3897C33.4036 40.5769 33.3941 41.9544 33.3941 42.4042C33.3941 42.639 33.4485 42.756 33.5503 42.8606C33.7231 43.0217 33.9249 43.0413 34.1196 43.0413C34.2374 43.0413 34.4351 42.983 34.5741 42.9004C34.6588 42.8535 34.6747 42.8458 34.7126 42.8458C34.725 42.8458 34.7706 42.8606 34.7706 42.9492C34.7706 43.0223 34.7061 43.1144 34.6398 43.1756C34.3865 43.4234 34.0563 43.5963 33.6432 43.5963C33.2627 43.5963 32.9355 43.358 32.826 43.1494C32.7206 42.9919 32.7047 42.7946 32.7047 42.5344C32.7047 42.1903 32.7437 40.7878 32.7437 40.4604C32.7437 40.3909 32.5762 40.3267 32.3839 40.272C32.3105 40.2405 32.2549 40.1972 32.2549 40.1698C32.2549 40.1294 32.2845 40.0902 32.3111 40.0634C32.6378 39.802 32.9242 39.5773 33.0568 39.4187C33.171 39.2862 33.2325 39.2125 33.2716 39.2125C33.3142 39.2125 33.4036 39.2986 33.4036 39.3194V39.7568C33.4036 39.783 33.4367 39.8305 33.4781 39.8305C33.6805 39.8293 34.5812 39.7883 34.6179 39.7883Z" fill="white"/>
<path d="M35.4384 39.9785C35.7799 39.9042 36.2225 39.698 36.3604 39.6582C36.3959 39.6582 36.4421 39.7556 36.4421 39.7639C36.4421 39.8697 36.3882 41.0832 36.3882 41.6162C36.3882 42.1433 36.3959 42.5332 36.4042 42.86C36.4119 43.1631 36.619 43.1744 36.851 43.2534C37.0001 43.2998 37.0605 43.3467 37.0605 43.4145C37.0605 43.4685 36.9463 43.5036 36.8439 43.5036C36.7764 43.5036 36.3107 43.4798 36.1154 43.4798C35.8118 43.4798 35.4881 43.5167 35.3236 43.5167C35.1756 43.5167 35.0857 43.4798 35.0857 43.4145C35.0857 43.3562 35.1484 43.3129 35.3076 43.2647C35.5201 43.2083 35.6621 43.0971 35.6775 42.9985C35.71 42.8731 35.7165 42.3115 35.7165 42.0364C35.7165 42.0203 35.7248 40.6928 35.7094 40.5769C35.6952 40.5121 35.5964 40.4378 35.323 40.2393C35.2721 40.2025 35.252 40.1764 35.252 40.1371C35.252 40.07 35.3366 40.0011 35.4384 39.9785ZM36.5113 38.2587C36.5113 38.5107 36.245 38.7127 36.0604 38.7127C36 38.7127 35.8485 38.6782 35.7621 38.6004C35.6881 38.5172 35.6266 38.4156 35.6266 38.2593C35.6266 38.1725 35.6615 38.0216 35.7337 37.9188C35.8278 37.8385 35.9692 37.7952 36.0983 37.7952C36.3521 37.7946 36.5113 38.0852 36.5113 38.2587Z" fill="white"/>
<path d="M41.375 41.6069C41.375 42.3842 40.9086 42.9909 40.5672 43.2167C40.1961 43.4877 39.8304 43.5953 39.4096 43.5953C38.9847 43.5953 38.5154 43.3968 38.1757 43.1044C37.7715 42.7746 37.4851 42.1435 37.4851 41.6717C37.4851 40.9627 37.7792 40.5123 38.1343 40.2128C38.4243 39.962 38.8894 39.6987 39.5173 39.6987C40.4334 39.6981 41.375 40.4291 41.375 41.6069ZM38.7308 40.2514C38.4906 40.476 38.274 40.9621 38.274 41.4447C38.274 41.7572 38.3124 42.0466 38.3876 42.2802C38.619 42.9826 39.1504 43.3213 39.5978 43.3213C39.7026 43.3213 39.9061 43.2768 40.1618 43.0129C40.3985 42.755 40.5843 42.1815 40.5843 41.7762C40.5843 41.2878 40.4683 40.7565 40.118 40.3423C39.9126 40.1201 39.5759 39.9786 39.3345 39.9786C39.1415 39.9786 38.9273 40.0832 38.7308 40.2514Z" fill="white"/>
<path d="M42.2953 39.9617C42.4503 39.9041 42.7871 39.7817 42.9143 39.6884C43.0108 39.6325 43.0912 39.5873 43.1439 39.5873C43.1883 39.5873 43.2345 39.6884 43.2345 39.7252C43.2345 39.8863 43.1972 40.1115 43.1972 40.1953C43.1972 40.2387 43.2421 40.2202 43.251 40.2202C43.6239 39.9689 44.1121 39.7074 44.5027 39.7074C44.9566 39.7074 45.214 39.9124 45.3472 40.0622C45.5531 40.3082 45.6744 40.7325 45.6744 41.2043C45.6744 41.385 45.691 42.7749 45.7046 42.9087C45.7218 43.0477 45.8129 43.1695 46.0455 43.2349C46.2236 43.283 46.2781 43.3282 46.2781 43.3965C46.2781 43.4577 46.1473 43.497 45.9964 43.497C45.7845 43.497 45.5697 43.4803 45.3105 43.4803C45.0785 43.4803 44.7909 43.497 44.6696 43.497C44.5808 43.497 44.4541 43.4578 44.4541 43.387C44.4541 43.3211 44.5542 43.2646 44.6696 43.2284C44.8915 43.1398 44.9341 43.0673 44.9566 42.7547C44.9731 42.4457 44.985 41.3178 44.985 41.0451C44.985 40.7063 44.8169 40.4371 44.7033 40.3498C44.6021 40.2785 44.3216 40.1751 44.1115 40.1751C43.7026 40.1751 43.4564 40.3159 43.2824 40.4752C43.251 40.5001 43.1889 40.616 43.1889 40.6986C43.1889 40.8198 43.1889 42.8326 43.1972 42.9473C43.2049 43.0733 43.2422 43.1475 43.5428 43.2337C43.6363 43.264 43.7114 43.3205 43.7114 43.3769C43.7114 43.4387 43.6079 43.4869 43.4735 43.4869C43.3641 43.4869 43.1025 43.4791 42.9066 43.4791C42.5645 43.4791 42.2953 43.5077 42.1379 43.5077C41.9946 43.5077 41.894 43.4678 41.894 43.3864C41.894 43.3205 41.9875 43.2753 42.0905 43.2468C42.3959 43.1475 42.4509 43.056 42.4787 42.7221C42.5083 42.4368 42.5267 41.6256 42.5267 40.6713C42.5267 40.5643 42.5089 40.4752 42.3047 40.3076C42.1817 40.2202 42.1319 40.1751 42.1319 40.1454C42.1308 40.083 42.2302 39.9861 42.2953 39.9617Z" fill="white"/>
<path d="M49.8333 39.7998C49.9996 39.7998 50.0736 39.861 50.0736 39.9038C50.0736 39.9614 49.9996 40.0155 49.8392 40.0524C49.6404 40.0886 49.5907 40.2021 49.6717 40.4178C49.7866 40.7857 50.4109 42.3836 50.4719 42.4954C50.502 42.5548 50.5387 42.5435 50.5553 42.4954C50.6547 42.2939 51.024 41.4934 51.2045 41.0733C51.2566 40.9723 51.2566 40.9229 51.2566 40.8861C51.2459 40.8201 51.1755 40.5765 51.1045 40.4368C51.0027 40.2508 50.9305 40.1023 50.7169 40.0446C50.5932 40.003 50.5121 39.9686 50.5121 39.8949C50.5121 39.8289 50.5736 39.7998 50.734 39.7998C50.863 39.7998 51.1447 39.8289 51.3542 39.8289C51.5264 39.8289 51.8052 39.7998 52.0123 39.7998C52.1443 39.7998 52.2336 39.8473 52.2336 39.9038C52.2336 39.9686 52.1632 40.0262 52.0123 40.0524C51.7655 40.1118 51.7371 40.2199 51.7371 40.2603C51.7371 40.3251 51.7833 40.4184 51.8513 40.5961C51.9034 40.7322 52.3727 42.0075 52.5656 42.4692C52.5875 42.5322 52.6213 42.512 52.652 42.4609C52.8053 42.1216 53.0858 41.3734 53.2728 40.8938C53.377 40.6211 53.4285 40.4172 53.4285 40.334C53.4285 40.2384 53.4137 40.1266 53.0686 40.0446C52.9846 40.0149 52.852 39.9781 52.852 39.8949C52.852 39.836 52.9751 39.7998 53.0686 39.7998C53.1722 39.7998 53.5072 39.8289 53.6462 39.8289C53.9546 39.8289 54.1848 39.7814 54.3303 39.7814C54.4452 39.7814 54.5298 39.8206 54.5298 39.8764C54.5298 39.9614 54.4304 39.9858 54.3155 40.0149C54.0078 40.1112 53.9711 40.2116 53.8184 40.4666C53.5154 41.0198 53.2083 41.7834 52.9272 42.4787C52.7698 42.8727 52.6319 43.174 52.5396 43.4872C52.507 43.5822 52.465 43.6013 52.4165 43.6013C52.3733 43.6013 52.2958 43.5347 52.2413 43.4569C52.204 43.3558 52.0898 42.9904 51.9969 42.7675C51.875 42.4692 51.5779 41.7181 51.4175 41.3342C51.4122 41.3181 51.3637 41.3181 51.3548 41.3449C51.1293 41.8143 50.792 42.5328 50.5127 43.2346C50.4724 43.338 50.3636 43.6197 50.2807 43.6197C50.1984 43.6197 50.1452 43.5947 50.1079 43.48C50.0931 43.4319 49.9718 43.086 49.8339 42.6772C49.7623 42.4864 49.2297 41.1274 49.0291 40.6716C48.8847 40.3251 48.7704 40.1118 48.5112 40.0446C48.3787 40.0149 48.2781 39.9608 48.2781 39.9038C48.2781 39.8206 48.3716 39.7879 48.5515 39.7879C48.7059 39.7879 48.9776 39.8289 49.1806 39.8289C49.4108 39.8289 49.6718 39.7998 49.8333 39.7998Z" fill="white"/>
<path d="M54.9793 39.9785C55.3202 39.9042 55.7575 39.698 55.8954 39.6582C55.9368 39.6582 55.9777 39.7556 55.9777 39.7639C55.9777 39.8697 55.9244 41.0832 55.9244 41.6162C55.9244 42.1433 55.9368 42.5332 55.9422 42.86C55.951 43.1631 56.1605 43.1744 56.3884 43.2534C56.5369 43.2998 56.5943 43.3467 56.5943 43.4145C56.5943 43.4685 56.4819 43.5036 56.3807 43.5036C56.3185 43.5036 55.851 43.4798 55.6539 43.4798C55.3456 43.4798 55.0231 43.5167 54.8639 43.5167C54.7136 43.5167 54.6189 43.4798 54.6189 43.4145C54.6189 43.3562 54.6875 43.3129 54.8473 43.2647C55.0598 43.2083 55.2006 43.0971 55.2172 42.9985C55.2432 42.8731 55.2515 42.3115 55.2515 42.0364C55.2515 42.0203 55.2592 40.6928 55.2432 40.5769C55.2355 40.5121 55.1302 40.4378 54.8633 40.2393C54.8065 40.2025 54.7893 40.1764 54.7893 40.1371C54.7905 40.07 54.8775 40.0011 54.9793 39.9785ZM56.0451 38.2587C56.0451 38.5107 55.7859 38.7127 55.5995 38.7127C55.5332 38.7127 55.3829 38.6782 55.3012 38.6004C55.2255 38.5172 55.1598 38.4156 55.1598 38.2593C55.1598 38.1725 55.2012 38.0216 55.2693 37.9188C55.3669 37.8385 55.506 37.7952 55.635 37.7952C55.8883 37.7946 56.0451 38.0852 56.0451 38.2587Z" fill="white"/>
<path d="M59.3971 39.7883C59.4036 39.7883 59.4965 39.837 59.4965 39.8697C59.4965 39.837 59.5243 40.1033 59.5243 40.2209C59.5243 40.3083 59.3462 40.3261 59.2787 40.3261H58.2668C58.2182 40.3261 58.1833 40.3719 58.1833 40.3897C58.1774 40.5769 58.1638 41.9544 58.1638 42.4042C58.1638 42.639 58.2177 42.756 58.3242 42.8606C58.4999 43.0217 58.697 43.0413 58.8905 43.0413C59.0113 43.0413 59.2083 42.983 59.3462 42.9004C59.4308 42.8535 59.4462 42.8458 59.4865 42.8458C59.4965 42.8458 59.5462 42.8606 59.5462 42.9492C59.5462 43.0223 59.4764 43.1144 59.4119 43.1756C59.1639 43.4234 58.8367 43.5963 58.4159 43.5963C58.0348 43.5963 57.7105 43.358 57.6004 43.1494C57.4992 42.9919 57.4767 42.7946 57.4767 42.5344C57.4767 42.1903 57.517 40.7878 57.517 40.4604C57.517 40.3909 57.3501 40.3267 57.1637 40.272C57.0879 40.2405 57.0305 40.1972 57.0305 40.1698C57.0305 40.1294 57.0595 40.0902 57.0879 40.0634C57.4116 39.802 57.701 39.5773 57.8306 39.4187C57.9448 39.2862 58.0052 39.2125 58.0407 39.2125C58.094 39.2125 58.1768 39.2986 58.1768 39.3194V39.7568C58.1768 39.783 58.21 39.8305 58.2496 39.8305C58.4544 39.8293 59.3616 39.7883 59.3971 39.7883Z" fill="white"/>
<path d="M63.2933 40.1273C63.4815 40.3834 63.5637 40.7322 63.5637 41.1363C63.5714 41.7318 63.5951 42.3112 63.5986 42.8728C63.5986 43.1039 63.7235 43.1741 63.9644 43.2341C64.1514 43.2757 64.2236 43.3274 64.2236 43.3868C64.2236 43.4682 64.1514 43.5033 63.9727 43.5033C63.6543 43.5033 63.5507 43.4795 63.2347 43.4795C63.0216 43.4795 62.8382 43.4961 62.566 43.4961C62.4293 43.4961 62.3801 43.4516 62.3801 43.3862C62.3801 43.3268 62.4642 43.2816 62.5784 43.2519C62.8092 43.1729 62.8388 43.1467 62.8725 42.7925C62.8914 42.6131 62.8725 41.5874 62.8725 41.4358C62.8725 40.923 62.8252 40.6211 62.7275 40.4999C62.5784 40.3246 62.3346 40.1944 61.97 40.1944C61.5741 40.1944 61.2622 40.3703 61.2267 40.4096C61.2102 40.4274 61.0871 40.5754 61.0794 40.8671C61.0516 41.2564 61.0516 42.4782 61.0616 42.8145C61.0794 43.1223 61.2102 43.1735 61.4244 43.2335C61.5481 43.2751 61.6292 43.3369 61.6292 43.3862C61.6292 43.4676 61.5232 43.4961 61.3989 43.4961C61.3226 43.4961 60.8569 43.4795 60.6284 43.4795C60.4189 43.4795 60.0798 43.5033 59.9224 43.5033C59.8425 43.5033 59.71 43.4795 59.71 43.3868C59.71 43.3375 59.7869 43.2822 59.981 43.2281C60.2231 43.1396 60.3177 43.0397 60.3456 42.6921C60.368 42.2975 60.4373 41.2166 60.4373 38.8181C60.4373 38.499 60.445 38.1336 60.4077 37.8638C60.3775 37.6171 60.3609 37.5999 60.1041 37.43C60.065 37.4133 60.0088 37.3194 60.0088 37.241C60.0088 37.2077 60.0366 37.1982 60.0366 37.1982C60.3254 37.1144 60.7444 37.0211 60.9652 36.8713C61.003 36.8511 61.0877 36.8018 61.1403 36.8018C61.1782 36.8018 61.2001 36.882 61.2001 36.9112C61.1101 37.5803 61.0693 39.9128 61.0693 40.1837C61.0693 40.2396 61.1261 40.2515 61.1332 40.2396C61.5138 39.8961 61.9168 39.6988 62.3068 39.6988C62.7731 39.6976 63.0974 39.8611 63.2933 40.1273Z" fill="white"/>
<path d="M0.214229 54.0244C0.242635 53.9994 0.387624 53.9043 0.436151 53.9043C0.476393 53.9043 0.659853 53.9679 0.72495 54.0179C0.901305 54.1308 1.07825 54.2128 1.20489 54.2128C1.36586 54.2128 1.45108 54.1866 1.58068 54.0327C1.73041 53.8752 1.81503 53.6548 1.8387 53.2584C1.87954 52.6814 1.89847 51.664 1.89847 50.3382C1.89847 48.9916 1.87954 48.0355 1.8387 47.5832C1.82272 47.402 1.77065 47.1637 1.29248 47.0781C1.07825 47.0413 1.00487 46.9771 1.00487 46.9046C1.00487 46.8267 1.07884 46.7887 1.2552 46.7887C1.54399 46.7887 1.87954 46.8202 2.28847 46.8202C2.61573 46.8202 2.97968 46.7887 3.26552 46.7887C3.375 46.7887 3.51703 46.8065 3.51703 46.8862C3.51703 46.9771 3.43122 47.0353 3.23711 47.0704C2.86724 47.1453 2.70627 47.279 2.70627 47.7514C2.70627 48.5192 2.66899 51.1922 2.66899 51.9956C2.66189 53.1271 2.14229 53.9507 1.66413 54.3179C1.23567 54.6418 0.846858 54.7666 0.605406 54.7666C0.297674 54.7666 0 54.5794 0 54.4023C0 54.3179 0.123093 54.1218 0.214229 54.0244Z" fill="white"/>
<path d="M10.716 49.7495C10.716 51.0586 10.0727 51.9755 9.39514 52.4628C8.80867 52.8717 8.0352 53.006 7.56472 53.006C6.61549 53.006 5.71004 52.5912 5.14074 51.9381C4.64955 51.3831 4.36963 50.6301 4.36963 49.8225C4.36963 48.6721 4.87324 47.8746 5.58044 47.3047C6.03848 46.9291 6.83918 46.6486 7.48957 46.6486C9.27264 46.6492 10.716 47.9696 10.716 49.7495ZM6.0018 47.4919C5.59464 47.893 5.27507 48.6008 5.27507 49.696C5.27507 51.0877 6.30006 52.6904 7.78664 52.6904C8.55598 52.6904 8.91519 52.3505 9.01639 52.2346C9.38685 51.9013 9.80762 51.1412 9.80762 50.0317C9.80762 49.0114 9.36792 48.0285 8.67729 47.4675C8.29618 47.1555 7.7109 46.96 7.28421 46.96C6.89185 46.96 6.32314 47.1644 6.0018 47.4919Z" fill="white"/>
<path d="M13.3331 49.5875C13.8805 49.5875 15.147 49.5625 16.7904 49.5625C16.8525 49.5625 16.878 49.5072 16.8939 49.3218C16.9046 49.1964 16.9046 47.9705 16.8785 47.6026C16.8531 47.2627 16.7821 47.1843 16.366 47.0708C16.2335 47.0357 16.1352 46.9781 16.1352 46.8889C16.1352 46.8271 16.2264 46.7891 16.4187 46.7891C16.5412 46.7891 17.1354 46.8069 17.3691 46.8069C17.6887 46.8069 18.1148 46.7814 18.2166 46.7814C18.3639 46.7814 18.4788 46.82 18.4788 46.8889C18.4788 46.9389 18.4036 47.0054 18.2095 47.0524C17.8195 47.1451 17.7443 47.3132 17.7236 47.5836C17.6781 48.0638 17.6508 49.0818 17.6508 50.6756C17.6508 51.0868 17.6881 51.9211 17.6881 52.059C17.7041 52.4227 17.8 52.4631 18.216 52.5831C18.3474 52.633 18.4296 52.6978 18.4296 52.7632C18.4296 52.8375 18.3468 52.8654 18.1716 52.8654C18.0219 52.8654 17.6881 52.8375 17.3999 52.8375C17.1946 52.8375 16.4933 52.8969 16.3092 52.8969C16.169 52.8969 16.0761 52.8725 16.0761 52.7887C16.0761 52.7061 16.1785 52.6509 16.2796 52.6229C16.7815 52.469 16.8294 52.3674 16.8608 51.706C16.8774 51.3126 16.8927 50.6648 16.8927 50.1972C16.8927 50.032 16.8608 49.9999 16.7809 49.9999C15.3428 49.9999 13.5065 49.9755 13.3248 49.991C13.2952 49.991 13.2207 50.0759 13.2207 50.149C13.2011 50.3957 13.2207 51.5907 13.2207 51.8653C13.229 52.3032 13.3319 52.4696 13.7237 52.592C13.9296 52.6515 13.9936 52.6907 14.0012 52.781C14.0125 52.8559 13.8515 52.8725 13.7326 52.8725C13.6645 52.8725 13.1011 52.8375 12.7656 52.8375C12.5513 52.8375 12.156 52.8725 11.843 52.8725C11.6394 52.8725 11.5613 52.8375 11.5613 52.781C11.5613 52.6907 11.6767 52.6336 11.7761 52.6021C12.2537 52.4833 12.3223 52.3864 12.3614 52.0209C12.3939 51.6394 12.4472 50.5799 12.4472 49.0562C12.4472 48.8892 12.4685 48.0287 12.4472 47.6133C12.4324 47.2978 12.3744 47.1641 11.9809 47.0791C11.7885 47.0423 11.7199 46.9781 11.7199 46.9056C11.7199 46.8366 11.843 46.7992 11.9921 46.7992C12.2537 46.7992 12.5963 46.8206 12.8348 46.8206C13.2295 46.8206 13.5071 46.7992 13.7237 46.7992C13.9172 46.7992 14.0166 46.8473 14.0166 46.9056C14.0166 46.9977 13.945 47.0423 13.7497 47.0791C13.3165 47.1647 13.2822 47.3055 13.2526 47.6995C13.229 48.0067 13.2207 49.2416 13.229 49.4044C13.239 49.5768 13.2674 49.5875 13.3331 49.5875Z" fill="white"/>
<path d="M19.3784 46.7896C19.5832 46.7896 20.0401 46.8211 20.5153 46.8211C20.5673 46.8211 20.6514 46.887 20.7111 46.9393C20.8496 47.1117 21.0852 47.3868 21.4456 47.8682C21.8646 48.4018 23.9104 50.6469 24.5329 51.3327C24.5933 51.3844 24.6282 51.2947 24.6282 51.2673C24.6744 50.969 24.6442 49.957 24.6442 48.6092C24.6442 48.2871 24.6282 47.9609 24.5998 47.6715C24.5933 47.4754 24.5241 47.2549 24.0145 47.0998C23.8287 47.0427 23.7595 46.9702 23.7595 46.8894C23.7595 46.8276 23.8914 46.8074 24.0063 46.8074C24.2477 46.8074 24.5016 46.8205 24.8052 46.8205C25.1401 46.8205 25.4366 46.7819 25.6804 46.7819C25.8361 46.7819 25.8887 46.8074 25.8887 46.887C25.8887 46.9393 25.8361 47.0279 25.6674 47.0713C25.2697 47.1646 25.0975 47.2549 25.0703 47.7523C25.0549 48.0946 24.9732 49.9356 24.9732 51.5484C24.9732 51.9394 25.0336 52.6418 25.0336 52.7898C25.0336 52.8843 24.9904 52.9853 24.9052 52.9853C24.7744 52.9853 24.5696 52.7993 24.4844 52.6912C24.33 52.4927 24.1583 52.2502 23.9086 51.9394C23.0345 50.8929 21.4213 49.0644 20.5863 48.0571C20.5508 48.0072 20.488 48.0292 20.488 48.0744C20.4709 48.3281 20.4437 48.5902 20.4371 49.3223C20.4371 50.1608 20.4129 51.6007 20.4277 51.8937C20.4638 52.3221 20.5662 52.4642 21.0136 52.5925C21.2118 52.6418 21.2497 52.7072 21.2497 52.7643C21.2497 52.8564 21.1284 52.8843 20.9485 52.8843C20.6804 52.8843 20.2927 52.8385 19.9542 52.8385C19.7524 52.8385 19.5068 52.8564 19.3506 52.8564C19.2181 52.8564 19.108 52.8469 19.108 52.753C19.108 52.6828 19.2027 52.6234 19.292 52.5919C19.7341 52.4439 19.9087 52.4071 19.9465 51.7142C19.9939 50.9577 20.1247 48.7084 20.1247 47.9329C20.1247 47.5936 20.0756 47.5152 20.0543 47.4843C19.795 47.1747 19.6956 47.1646 19.2766 47.0528C19.1754 47.0279 19.0713 46.978 19.0713 46.9055C19.0731 46.8276 19.1612 46.7896 19.3784 46.7896Z" fill="white"/>
<path d="M29.7607 46.8211C29.8169 46.8366 29.876 46.9786 29.876 46.9982C29.8926 47.1747 29.9678 47.7185 29.9678 47.7523C29.9678 47.9164 29.9678 48.0073 29.8985 48.0073C29.8317 48.0073 29.7192 47.9455 29.679 47.8118C29.566 47.476 29.3127 47.1914 29.2227 47.1391C29.054 47.0065 28.8315 46.9239 28.5635 46.9239C27.9379 46.9239 27.4929 47.3875 27.4929 48.018C27.4929 48.683 27.9663 48.9741 28.7877 49.5268C29.5038 50.0099 30.069 50.499 30.069 51.3423C30.069 51.8093 29.8098 52.3341 29.3056 52.6651C29.0103 52.857 28.4581 52.9996 28.0391 52.9996C27.7426 52.9996 27.1147 52.898 26.82 52.7536C26.7277 52.6995 26.6052 52.4933 26.6052 52.4565C26.5656 52.138 26.4685 51.7261 26.4685 51.5776C26.4685 51.5401 26.5656 51.3975 26.5975 51.3975C26.6756 51.3975 26.8117 51.6412 26.9419 51.9312C27.1869 52.4446 27.7983 52.6835 28.1527 52.6835C28.7948 52.6835 29.2754 52.2176 29.2754 51.5491C29.2754 51.1545 29.0913 50.7314 28.1143 50.108C27.3272 49.5886 26.7662 49.0484 26.7662 48.2533C26.7662 47.8124 26.9644 47.3881 27.2751 47.1129C27.5675 46.8491 28.0054 46.6506 28.6552 46.6506C29.1109 46.6494 29.595 46.7896 29.7607 46.8211Z" fill="white"/>
<path d="M34.4344 49.5875C34.9842 49.5875 36.2453 49.5625 37.8929 49.5625C37.9503 49.5625 37.9822 49.5072 37.997 49.3218C38.0047 49.1964 38.0047 47.9705 37.9822 47.6026C37.9503 47.2627 37.8834 47.1843 37.4656 47.0708C37.3336 47.0357 37.2324 46.9781 37.2324 46.8889C37.2324 46.8271 37.3271 46.7891 37.5218 46.7891C37.6426 46.7891 38.2397 46.8069 38.4711 46.8069C38.7888 46.8069 39.2144 46.7814 39.315 46.7814C39.4671 46.7814 39.5754 46.82 39.5754 46.8889C39.5754 46.9389 39.5031 47.0054 39.3096 47.0524C38.9179 47.1451 38.8427 47.3132 38.8226 47.5836C38.7752 48.0638 38.7516 49.0818 38.7516 50.6756C38.7516 51.0868 38.7883 51.9211 38.7883 52.059C38.8031 52.4227 38.8971 52.4631 39.3144 52.5831C39.4434 52.633 39.531 52.6978 39.531 52.7632C39.531 52.8375 39.444 52.8654 39.27 52.8654C39.1244 52.8654 38.7883 52.8375 38.4983 52.8375C38.29 52.8375 37.5928 52.8969 37.4076 52.8969C37.2733 52.8969 37.1739 52.8725 37.1739 52.7887C37.1739 52.7061 37.2816 52.6509 37.3804 52.6229C37.8816 52.469 37.9272 52.3674 37.9586 51.706C37.9811 51.3126 37.9959 50.6648 37.9959 50.1972C37.9959 50.032 37.9586 49.9999 37.8822 49.9999C36.4406 49.9999 34.6055 49.9755 34.4214 49.991C34.3972 49.991 34.3214 50.0759 34.3214 50.149C34.3066 50.3957 34.3214 51.5907 34.3214 51.8653C34.3285 52.3032 34.4333 52.4696 34.825 52.592C35.0268 52.6515 35.0919 52.6907 35.1055 52.781C35.1138 52.8559 34.9534 52.8725 34.8303 52.8725C34.7658 52.8725 34.1989 52.8375 33.8645 52.8375C33.6515 52.8375 33.2615 52.8725 32.9425 52.8725C32.7431 52.8725 32.6667 52.8375 32.6667 52.781C32.6667 52.6907 32.7739 52.6336 32.881 52.6021C33.352 52.4833 33.4284 52.3864 33.4615 52.0209C33.4911 51.6394 33.5432 50.5799 33.5432 49.0562C33.5432 48.8892 33.5657 48.0287 33.5432 47.6133C33.5278 47.2978 33.4769 47.1641 33.081 47.0791C32.8887 47.0423 32.8218 46.9781 32.8218 46.9056C32.8218 46.8366 32.9425 46.7992 33.0946 46.7992C33.352 46.7992 33.6971 46.8206 33.9397 46.8206C34.3285 46.8206 34.6055 46.7992 34.8244 46.7992C35.0174 46.7992 35.1209 46.8473 35.1209 46.9056C35.1209 46.9977 35.0475 47.0423 34.8475 47.0791C34.4143 47.1647 34.383 47.3055 34.3545 47.6995C34.3279 48.0067 34.3208 49.2416 34.3279 49.4044C34.3374 49.5768 34.3682 49.5875 34.4344 49.5875Z" fill="white"/>
<path d="M46.8562 49.7495C46.8562 51.0586 46.2093 51.9755 45.5335 52.4628C44.9476 52.8717 44.1741 53.006 43.7025 53.006C42.7497 53.006 41.8502 52.5912 41.2791 51.9381C40.7855 51.3831 40.5056 50.6301 40.5056 49.8225C40.5056 48.6721 41.0092 47.8746 41.7141 47.3047C42.1739 46.9291 42.9752 46.6486 43.6244 46.6486C45.4175 46.6492 46.8562 47.9696 46.8562 49.7495ZM42.1378 47.4919C41.7277 47.893 41.4111 48.6008 41.4111 49.696C41.4111 51.0877 42.4355 52.6904 43.925 52.6904C44.6937 52.6904 45.0488 52.3505 45.1488 52.2346C45.524 51.9013 45.9448 51.1412 45.9448 50.0317C45.9448 49.0114 45.5069 48.0285 44.8168 47.4675C44.4328 47.1555 43.8457 46.96 43.4196 46.96C43.0296 46.96 42.4609 47.1644 42.1378 47.4919Z" fill="white"/>
<path d="M49.7539 47.0186C49.6545 47.0186 49.5616 47.0536 49.4894 47.1C49.4521 47.1291 49.4036 47.2414 49.3894 47.4678C49.3811 47.6645 49.3811 48.8234 49.3751 49.8996C49.3751 50.7523 49.3894 51.5397 49.3894 51.7703C49.4036 52.3782 49.4763 52.4555 49.948 52.5921C50.1297 52.6415 50.2054 52.6908 50.2054 52.7716C50.2054 52.8566 50.0326 52.8839 49.8924 52.8839C49.6639 52.8839 49.329 52.8465 48.9195 52.8465C48.6502 52.8465 48.2703 52.8839 47.9773 52.8839C47.8187 52.8839 47.7175 52.8382 47.7175 52.7526C47.7175 52.6908 47.8104 52.6337 47.9022 52.6022C48.4224 52.4834 48.5289 52.3033 48.5537 51.9117C48.5833 51.463 48.6005 50.6858 48.6005 50.2169C48.6005 49.9091 48.5833 47.9219 48.5733 47.6229C48.5668 47.2896 48.5733 47.1553 48.0555 47.0792C47.8661 47.0531 47.7672 46.9978 47.7672 46.9396C47.7672 46.8647 47.859 46.8213 47.9773 46.8076C48.0407 46.7993 48.1987 46.8076 48.2845 46.8076C48.6579 46.8076 49.3746 46.7381 49.8397 46.7381C50.6842 46.7381 51.2346 46.9604 51.5784 47.2902C52.0282 47.7186 52.1187 48.2523 52.1187 48.5613C52.1187 49.3915 51.7376 49.7765 51.4701 50.0095C51.2263 50.2181 50.7949 50.4243 50.3978 50.4243C50.296 50.4243 50.0528 50.4148 49.9018 50.3625C49.7941 50.3102 49.7462 50.265 49.7462 50.2056C49.7462 50.1676 49.787 50.1242 49.8557 50.1242H50.093C50.5812 50.1242 51.2754 49.6838 51.2754 48.6088C51.2748 47.7519 50.6333 47.0186 49.7539 47.0186Z" fill="white"/>
<path d="M53.1993 46.7894C53.4141 46.7894 53.8106 46.8209 54.1077 46.8209C54.3894 46.8209 54.7504 46.7995 54.9794 46.7995C55.1309 46.7995 55.2256 46.828 55.2256 46.9136C55.2256 46.9896 55.1078 47.036 54.9599 47.0711C54.6397 47.1382 54.5296 47.2202 54.5107 47.5875C54.4823 47.9446 54.4823 49.4707 54.5024 49.5996C54.5107 49.6359 54.5296 49.6638 54.5699 49.6638C54.6066 49.6638 54.6971 49.5996 54.7042 49.5996C55.0025 49.3714 56.4902 47.9161 56.7832 47.5875C57.024 47.3141 56.9844 47.1643 56.679 47.0794C56.5636 47.0425 56.4648 47.0182 56.4648 46.9397C56.4648 46.8553 56.5636 46.8215 56.7086 46.8215C56.8826 46.8215 56.8926 46.8286 57.0613 46.8286C57.2856 46.8286 58.1792 46.7828 58.4402 46.7828C58.6041 46.7828 58.6799 46.8215 58.6799 46.8904C58.6799 46.9528 58.5686 47.0289 58.4248 47.0633C57.8999 47.175 57.672 47.326 57.0773 47.7836C56.6441 48.13 55.4333 49.2425 55.322 49.4219C55.3031 49.4772 55.2907 49.4897 55.322 49.5146C55.528 49.7767 57.1075 51.3972 57.807 52.1193C58.2348 52.5513 58.4491 52.5673 58.7858 52.6244C58.887 52.6523 58.9681 52.7159 58.9681 52.7539C58.9681 52.8478 58.8391 52.8983 58.7385 52.8983C58.4905 52.8983 57.6277 52.8229 57.3726 52.8229C57.0412 52.8229 56.94 52.827 56.7264 52.827C56.5962 52.827 56.5287 52.726 56.5287 52.6654C56.5287 52.6161 56.5654 52.5763 56.9317 52.502C56.9702 52.4937 56.995 52.4372 56.9791 52.4093C56.6956 52.0503 55.4516 50.7323 54.9675 50.239C54.716 49.9663 54.6219 49.8468 54.5474 49.8468C54.5048 49.8468 54.5131 49.9663 54.5048 50.0394C54.4846 50.2194 54.5131 51.7354 54.5213 52.0824C54.532 52.3237 54.661 52.4663 55.08 52.5769C55.2469 52.6167 55.2913 52.685 55.2913 52.7486C55.2913 52.8241 55.2037 52.868 55.0522 52.868C54.8504 52.868 54.1988 52.8401 53.9088 52.8401C53.6117 52.8401 53.3028 52.868 53.0046 52.868C52.898 52.868 52.7844 52.8134 52.7844 52.7486C52.7844 52.666 52.8548 52.6363 53.0519 52.5864C53.5094 52.4948 53.6869 52.3635 53.7141 51.8109C53.7212 51.4917 53.7396 50.6128 53.7396 49.602C53.7396 48.1051 53.7212 47.9351 53.7023 47.5958C53.6875 47.2731 53.562 47.1667 53.1892 47.0734C52.9779 47.0205 52.9519 46.9623 52.9519 46.916C52.9489 46.8274 53.0561 46.7894 53.1993 46.7894Z" fill="white"/>
<path d="M60.3338 47.7361C60.3113 47.3059 60.3113 47.165 59.7834 47.0717C59.5798 47.0367 59.5254 46.9707 59.5254 46.9065C59.5254 46.8287 59.629 46.7906 59.758 46.7906C59.9994 46.7906 60.4628 46.8222 60.7735 46.8222C61.2274 46.8222 61.4416 46.7906 61.7683 46.7906C61.9174 46.7906 62.0032 46.8287 62.0032 46.9065C62.0032 46.979 61.908 47.0373 61.76 47.0634C61.2179 47.1751 61.2274 47.4099 61.1872 47.6654C61.1457 47.9714 61.1333 48.5794 61.1333 50.4156C61.1333 50.9261 61.1457 51.5073 61.1617 51.8098C61.1872 52.3167 61.2351 52.4932 61.8411 52.6156C62.0103 52.6423 62.0819 52.7077 62.0819 52.7725C62.0819 52.8479 61.9429 52.8984 61.8328 52.8984C61.357 52.8984 60.6989 52.839 60.4451 52.839C60.1657 52.839 60.0799 52.8568 59.7373 52.8568C59.5633 52.8568 59.4946 52.7903 59.4946 52.7255C59.4946 52.6643 59.5935 52.6031 59.7775 52.5668C60.2409 52.464 60.2805 52.322 60.3184 51.8834C60.3462 51.5566 60.3616 50.5814 60.3616 49.7851C60.361 49.2051 60.3545 48.0475 60.3338 47.7361Z" fill="white"/>
<path d="M62.856 46.7896C63.0607 46.7896 63.5099 46.8211 63.9934 46.8211C64.0431 46.8211 64.1265 46.887 64.1875 46.9393C64.3254 47.1117 64.5562 47.3868 64.9184 47.8682C65.3391 48.4018 67.3844 50.6469 68.0111 51.3327C68.0637 51.3844 68.1004 51.2947 68.1004 51.2673C68.1484 50.969 68.1229 49.957 68.1229 48.6092C68.1229 48.2871 68.1004 47.9609 68.075 47.6715C68.0632 47.4754 67.9981 47.2549 67.4891 47.0998C67.3003 47.0427 67.2329 46.9702 67.2329 46.8894C67.2329 46.8276 67.3684 46.8074 67.4808 46.8074C67.7193 46.8074 67.9779 46.8205 68.2797 46.8205C68.6111 46.8205 68.9112 46.7819 69.1526 46.7819C69.3124 46.7819 69.3675 46.8074 69.3675 46.887C69.3675 46.9393 69.3124 47.0279 69.1455 47.0713C68.7431 47.1646 68.5798 47.2549 68.552 47.7523C68.5283 48.0946 68.4454 49.9356 68.4454 51.5484C68.4454 51.9394 68.5117 52.6418 68.5117 52.7898C68.5117 52.8843 68.4662 52.9853 68.3821 52.9853C68.249 52.9853 68.049 52.7993 67.9631 52.6912C67.8028 52.4927 67.6371 52.2502 67.3844 51.9394C66.5138 50.8929 64.9012 49.0644 64.062 48.0571C64.0277 48.0072 63.9626 48.0292 63.9626 48.0744C63.9543 48.3281 63.9212 48.5902 63.9129 49.3223C63.9129 50.1608 63.8857 51.6007 63.9058 51.8937C63.9425 52.3221 64.0443 52.4642 64.4946 52.5925C64.684 52.6418 64.7266 52.7072 64.7266 52.7643C64.7266 52.8564 64.6041 52.8843 64.426 52.8843C64.1549 52.8843 63.7679 52.8385 63.4282 52.8385C63.2294 52.8385 62.9832 52.8564 62.8317 52.8564C62.6962 52.8564 62.5873 52.8469 62.5873 52.753C62.5873 52.6828 62.6802 52.6234 62.7737 52.5919C63.2057 52.4439 63.385 52.4071 63.427 51.7142C63.4661 50.9577 63.5987 48.7084 63.5987 47.9329C63.5987 47.5936 63.5507 47.5152 63.533 47.4843C63.2732 47.1747 63.1726 47.1646 62.7542 47.0528C62.6494 47.0279 62.5447 46.978 62.5447 46.9055C62.5447 46.8276 62.6405 46.7896 62.856 46.7896Z" fill="white"/>
<path d="M73.2408 46.8211C73.2929 46.8366 73.3473 46.9786 73.3473 46.9982C73.3692 47.1747 73.4414 47.7185 73.4414 47.7523C73.4414 47.9164 73.4414 48.0073 73.3811 48.0073C73.3 48.0073 73.1911 47.9455 73.1574 47.8118C73.0437 47.476 72.7875 47.1914 72.6993 47.1391C72.533 47.0065 72.3093 46.9239 72.0377 46.9239C71.4151 46.9239 70.9707 47.3875 70.9707 48.018C70.9707 48.683 71.4418 48.9741 72.2626 49.5268C72.9786 50.0099 73.5485 50.499 73.5485 51.3423C73.5485 51.8093 73.2858 52.3341 72.781 52.6651C72.4863 52.857 71.9335 52.9996 71.5175 52.9996C71.2204 52.9996 70.5878 52.898 70.2984 52.7536C70.2025 52.6995 70.0842 52.4933 70.0842 52.4565C70.0392 52.138 69.9463 51.7261 69.9463 51.5776C69.9463 51.5401 70.0392 51.3975 70.0771 51.3975C70.1528 51.3975 70.2889 51.6412 70.4209 51.9312C70.663 52.4446 71.2737 52.6835 71.6305 52.6835C72.272 52.6835 72.7567 52.2176 72.7567 51.5491C72.7567 51.1545 72.5697 50.7314 71.5944 50.108C70.8014 49.5886 70.2416 49.0484 70.2416 48.2533C70.2416 47.8124 70.4339 47.3881 70.7517 47.1129C71.0441 46.8491 71.479 46.6506 72.1353 46.6506C72.5869 46.6494 73.071 46.7896 73.2408 46.8211Z" fill="white"/>
<path d="M76.5425 46.7988C77.145 46.7988 77.2456 46.8202 77.7853 46.8202C77.8066 46.8202 77.8788 46.8885 77.8912 46.9384C78.0007 47.2891 78.0587 47.3859 78.2451 47.79C78.7641 48.8918 79.8436 51.141 79.9737 51.3199C79.9927 51.349 80.0477 51.3805 80.0672 51.349C80.1477 51.1916 81.887 47.8857 82.0415 47.4911C82.0521 47.4537 82.2007 47.1375 82.2533 46.9515C82.2658 46.9052 82.3397 46.8202 82.3575 46.8202C82.6895 46.8202 83.4458 46.7887 83.5286 46.7887C83.6476 46.7887 83.7725 46.8065 83.7725 46.8885C83.7725 46.9592 83.6949 47.0175 83.5286 47.0418C83.3813 47.0704 83.2505 47.1108 83.1073 47.1637C82.9718 47.2195 82.822 47.402 82.822 47.8857C82.822 50.488 82.9226 51.6717 82.9534 51.9379C83.0079 52.3599 83.1079 52.4544 83.5582 52.5827C83.7275 52.6219 83.8074 52.6974 83.8074 52.7628C83.8074 52.8371 83.6778 52.8828 83.5357 52.8828C83.4351 52.8828 82.7197 52.8371 82.3729 52.8371C82.2007 52.8371 81.8876 52.865 81.6686 52.865C81.5663 52.865 81.4165 52.8252 81.4165 52.7319C81.4165 52.6499 81.5313 52.6011 81.6609 52.5655C82.0421 52.4544 82.0586 52.2339 82.0864 51.8922C82.1237 51.4679 82.1078 48.7587 82.0793 48.2773C82.0705 48.2423 82.0421 48.1555 82.0006 48.2226C81.8823 48.4289 80.8389 50.488 80.4756 51.2551C80.2483 51.7407 80.0383 52.2256 79.8998 52.591C79.7998 52.865 79.7512 52.8549 79.6855 52.8549C79.6311 52.8549 79.5767 52.78 79.5453 52.6814C79.4802 52.4431 79.3796 52.1358 79.202 51.6836C78.7002 50.4487 77.9362 48.972 77.5918 48.1751C77.5646 48.1097 77.5379 48.102 77.5261 48.2036C77.4527 48.6 77.3527 50.9568 77.3805 51.8179C77.3935 52.2927 77.474 52.4229 77.9445 52.572C78.1534 52.6332 78.1972 52.6713 78.1972 52.7521C78.1972 52.8252 78.093 52.865 77.9445 52.865C77.6474 52.865 77.2586 52.8371 77.0154 52.8371C76.7946 52.8371 76.5005 52.865 76.2691 52.865C76.1336 52.865 76.0342 52.8371 76.0342 52.7319C76.0342 52.6974 76.0945 52.6326 76.2153 52.6011C76.7946 52.4342 76.8497 52.2761 76.9248 51.7407C77.0154 51.0917 77.2237 48.4009 77.2385 47.6985C77.2385 47.6218 77.2237 47.2695 76.8201 47.1542C76.6632 47.1108 76.5437 47.0698 76.4224 47.0418C76.3508 47.0276 76.2691 46.9592 76.2691 46.8885C76.2685 46.7988 76.3348 46.7988 76.5425 46.7988Z" fill="white"/>
<path d="M87.6399 46.8213C87.9512 46.8213 88.3542 46.8082 88.4992 46.7898C88.5211 46.782 88.5702 46.848 88.5814 46.8896C88.5814 47.3252 88.5956 47.5938 88.5956 47.7828C88.5956 47.9165 88.5441 48.0288 88.4631 48.0288C88.3755 48.0288 88.3323 47.8927 88.3092 47.8024C88.1944 47.3056 87.9867 47.2111 87.6884 47.1647C87.4434 47.1285 86.7759 47.1118 86.364 47.1285C86.348 47.1285 86.2504 47.1742 86.2273 47.387C86.2089 47.6229 86.1787 49.3831 86.1977 49.5263C86.2089 49.5632 86.2196 49.619 86.2652 49.619H86.867C87.744 49.619 87.7813 49.5774 87.9512 49.1555C88.0038 49.0123 88.0589 48.9529 88.1163 48.9529C88.1826 48.9529 88.2003 49.0824 88.1944 49.1567C88.1731 49.4211 88.1618 49.6089 88.1618 49.8341C88.1618 50.0867 88.1826 50.218 88.1944 50.4058C88.2003 50.5734 88.1536 50.6768 88.0843 50.6768C88.021 50.6768 87.9589 50.5734 87.9275 50.4718C87.7979 50.038 87.7612 50.0094 87.1931 49.9821C86.8972 49.9649 86.5255 49.9649 86.2723 49.9649C86.2356 49.9649 86.1882 50.0326 86.1882 50.0487C86.1503 50.2436 86.1574 51.1154 86.1574 51.5177C86.1574 51.7916 86.1965 52.1464 86.2569 52.295C86.2942 52.4085 86.3634 52.4845 86.4303 52.5018C86.5906 52.5297 86.9102 52.5677 87.2765 52.5677C87.3884 52.5677 87.9583 52.5588 88.1613 52.5018C88.4625 52.4251 88.7116 52.251 88.9318 51.8101C89.0407 51.6015 89.0927 51.5498 89.1454 51.5498C89.2129 51.5498 89.2401 51.6977 89.2235 51.8011C89.2129 51.8754 88.9495 52.7169 88.8862 52.8007C88.8596 52.8399 88.7738 52.9148 88.7276 52.9148C88.6264 52.9148 87.2215 52.8399 85.7071 52.8399C85.21 52.8399 85.0088 52.8857 84.6561 52.8857C84.4779 52.8857 84.3738 52.8678 84.3738 52.7656C84.3738 52.7008 84.4839 52.6533 84.633 52.6165C85.0958 52.5024 85.2721 52.437 85.3159 51.9325C85.342 51.5414 85.3852 50.4326 85.3852 49.2744C85.3852 48.1583 85.3964 47.9628 85.3798 47.6942C85.3585 47.2818 85.2662 47.1665 84.8573 47.0732C84.6632 47.0304 84.5874 46.9918 84.5874 46.9157C84.5874 46.8296 84.7135 46.7838 84.8448 46.7838C85.2822 46.7838 85.6461 46.8224 86.2717 46.8224H87.6399V46.8213Z" fill="white"/>
<path d="M95.1929 47.6449C95.6977 48.1287 96.0397 48.9731 96.0397 49.7124C96.0397 51.0702 95.2053 52.0484 94.5532 52.4162C94.0034 52.733 93.2323 52.9416 92.3369 52.9416C91.9593 52.9416 91.1267 52.913 90.5136 52.8661C90.3372 52.856 90.1692 52.856 90.0206 52.856C89.807 52.856 89.7241 52.7894 89.7241 52.7151C89.7241 52.6415 89.8153 52.5921 89.9301 52.5838C90.5728 52.5095 90.616 52.333 90.645 51.5908C90.6615 51.1534 90.6745 50.8628 90.6745 50.3102C90.6745 49.7765 90.6544 48.6736 90.6242 47.9058C90.6047 47.3056 90.5958 47.1749 90.0295 47.0911C89.9301 47.0715 89.8158 47.0061 89.8158 46.9396C89.8158 46.8647 89.9023 46.8213 90.0378 46.8213H90.3005C90.7657 46.8213 91.8179 46.7381 92.6168 46.7381C93.9211 46.7381 94.8224 47.2979 95.1929 47.6449ZM91.5682 47.0994C91.5013 47.1458 91.4788 47.1642 91.4735 47.22C91.4569 47.3365 91.4385 48.1697 91.4385 49.0004V50.3548C91.4385 51.0108 91.4451 51.5664 91.4735 51.9759C91.5013 52.2677 91.6534 52.3984 91.6765 52.4156C91.854 52.5499 92.2363 52.6635 92.441 52.6635C92.8707 52.6635 93.659 52.4917 94.1821 52.0478C94.7372 51.576 95.1402 50.7588 95.1402 49.7118C95.1402 48.9071 94.7372 48.0282 94.1389 47.5772C93.6803 47.229 92.8979 47.0275 92.2108 47.0275C91.8753 47.0281 91.6534 47.0531 91.5682 47.0994Z" fill="white"/>
<path d="M97.7419 47.7361C97.7171 47.3059 97.7171 47.165 97.1957 47.0717C96.9909 47.0367 96.9365 46.9707 96.9365 46.9065C96.9365 46.8287 97.0359 46.7906 97.1673 46.7906C97.4111 46.7906 97.8786 46.8222 98.1804 46.8222C98.6397 46.8222 98.8533 46.7906 99.1776 46.7906C99.3273 46.7906 99.4084 46.8287 99.4084 46.9065C99.4084 46.979 99.3167 47.0373 99.1676 47.0634C98.6284 47.1751 98.6403 47.4099 98.5994 47.6654C98.5556 47.9714 98.5426 48.5794 98.5426 50.4156C98.5426 50.9261 98.555 51.5073 98.5692 51.8098C98.5994 52.3167 98.6491 52.4932 99.2492 52.6156C99.4161 52.6423 99.4907 52.7077 99.4907 52.7725C99.4907 52.8479 99.3516 52.8984 99.2421 52.8984C98.7657 52.8984 98.1071 52.839 97.8573 52.839C97.5756 52.839 97.4904 52.8568 97.1478 52.8568C96.9708 52.8568 96.9045 52.7903 96.9045 52.7255C96.9045 52.6643 97.0016 52.6031 97.1856 52.5668C97.6502 52.464 97.6869 52.322 97.7271 51.8834C97.7567 51.5566 97.7715 50.5814 97.7715 49.7851C97.7709 49.2051 97.7626 48.0475 97.7419 47.7361Z" fill="white"/>
<path d="M104.938 46.7989C105.179 46.8363 105.505 46.9599 105.641 46.9777C105.688 46.9777 105.786 47.0419 105.786 47.2624C105.786 47.4543 105.83 47.8679 105.85 48.0735C105.855 48.2679 105.786 48.3832 105.711 48.3832C105.662 48.3832 105.605 48.2774 105.557 48.1371C105.473 47.8103 105.298 47.5334 105.179 47.4371C104.664 47.0526 104.191 46.9516 103.687 46.9516C102.194 46.9516 101.232 48.1954 101.232 49.6079C101.232 50.2366 101.353 50.74 101.562 51.153C102.077 52.2262 103.16 52.6511 103.91 52.6511C104.09 52.6511 104.548 52.6232 104.923 52.3986C105.336 52.1834 105.565 51.8827 105.794 51.4893C105.912 51.2944 105.949 51.2433 105.986 51.2433C106.083 51.2433 106.093 51.4543 106.074 51.5559C106.045 51.7906 105.83 52.288 105.698 52.5002C105.662 52.584 105.505 52.6987 105.412 52.7462C105.261 52.8068 104.511 53.0065 103.716 53.0065C102.408 53.0065 101.446 52.3504 101.073 51.9113C100.721 51.4971 100.293 50.8256 100.293 49.7589C100.293 48.6892 100.925 47.8394 101.318 47.5149C102.119 46.8553 102.979 46.6491 103.84 46.6491C104.163 46.6491 104.58 46.718 104.938 46.7989Z" fill="white"/>
<path d="M107.743 47.7361C107.717 47.3059 107.717 47.165 107.197 47.0717C106.989 47.0367 106.936 46.9707 106.936 46.9065C106.936 46.8287 107.036 46.7906 107.166 46.7906C107.41 46.7906 107.874 46.8222 108.184 46.8222C108.636 46.8222 108.853 46.7906 109.176 46.7906C109.331 46.7906 109.407 46.8287 109.407 46.9065C109.407 46.979 109.316 47.0373 109.166 47.0634C108.63 47.1751 108.636 47.4099 108.604 47.6654C108.557 47.9714 108.546 48.5794 108.546 50.4156C108.546 50.9261 108.557 51.5073 108.574 51.8098C108.604 52.3167 108.645 52.4932 109.255 52.6156C109.422 52.6423 109.495 52.7077 109.495 52.7725C109.495 52.8479 109.355 52.8984 109.242 52.8984C108.773 52.8984 108.11 52.839 107.858 52.839C107.576 52.839 107.493 52.8568 107.15 52.8568C106.973 52.8568 106.908 52.7903 106.908 52.7255C106.908 52.6643 107.001 52.6031 107.188 52.5668C107.653 52.464 107.693 52.322 107.722 51.8834C107.756 51.5566 107.773 50.5814 107.773 49.7851C107.772 49.2051 107.764 48.0475 107.743 47.7361Z" fill="white"/>
<path d="M110.269 46.7896C110.469 46.7896 110.927 46.8211 111.404 46.8211C111.459 46.8211 111.542 46.887 111.598 46.9393C111.739 47.1117 111.969 47.3868 112.333 47.8682C112.75 48.4018 114.795 50.6469 115.422 51.3327C115.477 51.3844 115.516 51.2947 115.516 51.2673C115.56 50.969 115.531 49.957 115.531 48.6092C115.531 48.2871 115.516 47.9609 115.484 47.6715C115.476 47.4754 115.415 47.2549 114.899 47.0998C114.712 47.0427 114.654 46.9702 114.654 46.8894C114.654 46.8276 114.777 46.8074 114.892 46.8074C115.133 46.8074 115.395 46.8205 115.692 46.8205C116.024 46.8205 116.322 46.7819 116.567 46.7819C116.727 46.7819 116.78 46.8074 116.78 46.887C116.78 46.9393 116.727 47.0279 116.554 47.0713C116.157 47.1646 115.988 47.2549 115.958 47.7523C115.943 48.0946 115.857 49.9356 115.857 51.5484C115.857 51.9394 115.926 52.6418 115.926 52.7898C115.926 52.8843 115.878 52.9853 115.794 52.9853C115.662 52.9853 115.458 52.7993 115.372 52.6912C115.216 52.4927 115.05 52.2502 114.795 51.9394C113.924 50.8929 112.312 49.0644 111.472 48.0571C111.437 48.0072 111.375 48.0292 111.375 48.0744C111.361 48.3281 111.337 48.5902 111.329 49.3223C111.329 50.1608 111.297 51.6007 111.32 51.8937C111.353 52.3221 111.458 52.4642 111.902 52.5925C112.101 52.6418 112.139 52.7072 112.139 52.7643C112.139 52.8564 112.014 52.8843 111.835 52.8843C111.565 52.8843 111.175 52.8385 110.84 52.8385C110.639 52.8385 110.394 52.8564 110.237 52.8564C110.105 52.8564 109.996 52.8469 109.996 52.753C109.996 52.6828 110.086 52.6234 110.177 52.5919C110.618 52.4439 110.797 52.4071 110.831 51.7142C110.877 50.9577 111.007 48.7084 111.007 47.9329C111.007 47.5936 110.963 47.5152 110.946 47.4843C110.688 47.1747 110.582 47.1646 110.162 47.0528C110.062 47.0279 109.962 46.978 109.962 46.9055C109.963 46.8276 110.054 46.7896 110.269 46.7896Z" fill="white"/>
<path d="M120.516 46.8213C120.821 46.8213 121.231 46.8082 121.376 46.7898C121.401 46.782 121.448 46.848 121.461 46.8896C121.461 47.3252 121.477 47.5938 121.477 47.7828C121.477 47.9165 121.424 48.0288 121.339 48.0288C121.254 48.0288 121.206 47.8927 121.189 47.8024C121.066 47.3056 120.861 47.2111 120.568 47.1647C120.323 47.1285 119.657 47.1118 119.245 47.1285C119.22 47.1285 119.119 47.1742 119.106 47.387C119.087 47.6229 119.057 49.3831 119.078 49.5263C119.087 49.5632 119.098 49.619 119.143 49.619H119.748C120.621 49.619 120.661 49.5774 120.821 49.1555C120.883 49.0123 120.937 48.9529 120.995 48.9529C121.057 48.9529 121.075 49.0824 121.066 49.1567C121.05 49.4211 121.041 49.6089 121.041 49.8341C121.041 50.0867 121.057 50.218 121.066 50.4058C121.075 50.5734 121.028 50.6768 120.966 50.6768C120.9 50.6768 120.835 50.5734 120.805 50.4718C120.678 50.038 120.64 50.0094 120.07 49.9821C119.775 49.9649 119.403 49.9649 119.151 49.9649C119.113 49.9649 119.069 50.0326 119.069 50.0487C119.029 50.2436 119.037 51.1154 119.037 51.5177C119.037 51.7916 119.078 52.1464 119.135 52.295C119.169 52.4085 119.245 52.4845 119.306 52.5018C119.465 52.5297 119.784 52.5677 120.159 52.5677C120.265 52.5677 120.835 52.5588 121.04 52.5018C121.338 52.4251 121.59 52.251 121.814 51.8101C121.914 51.6015 121.972 51.5498 122.024 51.5498C122.096 51.5498 122.117 51.6977 122.101 51.8011C122.096 51.8754 121.831 52.7169 121.763 52.8007C121.735 52.8399 121.652 52.9148 121.606 52.9148C121.506 52.9148 120.097 52.8399 118.585 52.8399C118.088 52.8399 117.884 52.8857 117.533 52.8857C117.355 52.8857 117.251 52.8678 117.251 52.7656C117.251 52.7008 117.363 52.6533 117.512 52.6165C117.979 52.5024 118.155 52.437 118.191 51.9325C118.221 51.5414 118.265 50.4326 118.265 49.2744C118.265 48.1583 118.273 47.9628 118.255 47.6942C118.239 47.2818 118.147 47.1665 117.734 47.0732C117.538 47.0304 117.466 46.9918 117.466 46.9157C117.466 46.8296 117.599 46.7838 117.725 46.7838C118.167 46.7838 118.527 46.8224 119.149 46.8224H120.516V46.8213Z" fill="white"/>
</svg>
