<svg width="151" height="20" viewBox="0 0 151 20" fill="none" xmlns="http://www.w3.org/2000/svg">
<path d="M5.93836 16.187C4.7597 16.187 3.7227 15.932 2.82736 15.422C1.94336 14.9007 1.25203 14.181 0.753363 13.263C0.26603 12.3337 0.0223633 11.2457 0.0223633 9.999C0.0223633 8.75233 0.26603 7.67 0.753363 6.752C1.25203 5.82267 1.94336 5.103 2.82736 4.593C3.71136 4.083 4.74836 3.828 5.93836 3.828C7.12836 3.828 8.16536 4.083 9.04936 4.593C9.9447 5.103 10.636 5.82267 11.1234 6.752C11.622 7.67 11.8714 8.74667 11.8714 9.982C11.8714 11.2287 11.622 12.3167 11.1234 13.246C10.636 14.1753 9.9447 14.9007 9.04936 15.422C8.16536 15.932 7.12836 16.187 5.93836 16.187ZM5.93836 13.943C6.9357 13.943 7.71203 13.5973 8.26736 12.906C8.83403 12.2033 9.11736 11.2343 9.11736 9.999C9.11736 8.75233 8.8397 7.789 8.28436 7.109C7.72903 6.41767 6.94703 6.072 5.93836 6.072C4.95236 6.072 4.17603 6.41767 3.60936 7.109C3.05403 7.789 2.77636 8.75233 2.77636 9.999C2.77636 11.2343 3.05403 12.2033 3.60936 12.906C4.17603 13.5973 4.95236 13.943 5.93836 13.943ZM13.9096 16V4.015H15.8646L21.8486 11.648V4.015H24.2966V16H22.3586L16.3576 8.35V16H13.9096ZM26.7094 16V4.015H29.3444V13.773H34.8864V16H26.7094ZM36.4546 16V4.015H39.0896V16H36.4546ZM41.4848 16V4.015H43.4398L49.4238 11.648V4.015H51.8718V16H49.9338L43.9328 8.35V16H41.4848ZM54.2846 16V4.015H62.4956V6.072H56.8006V8.877H62.1216V10.951H56.8006V13.943H62.4956V16H54.2846ZM69.3091 16V4.015H71.9441V16H69.3091ZM69.4281 2.638V0.376999H71.8081V2.638H69.4281ZM78.6233 16.187C77.6827 16.187 76.793 16.068 75.9543 15.83C75.127 15.592 74.4357 15.269 73.8803 14.861L74.6453 12.787C75.178 13.161 75.7843 13.4557 76.4643 13.671C77.1557 13.8863 77.8753 13.994 78.6233 13.994C79.4393 13.994 80.023 13.8693 80.3743 13.62C80.737 13.3593 80.9183 13.0363 80.9183 12.651C80.9183 12.3223 80.7937 12.0617 80.5443 11.869C80.295 11.6763 79.8587 11.512 79.2353 11.376L77.3143 10.968C75.1723 10.5147 74.1013 9.404 74.1013 7.636C74.1013 6.87667 74.3053 6.21367 74.7133 5.647C75.1213 5.069 75.688 4.62133 76.4133 4.304C77.15 3.98667 78 3.828 78.9633 3.828C79.7907 3.828 80.567 3.947 81.2923 4.185C82.0177 4.423 82.6183 4.75733 83.0943 5.188L82.3293 7.126C81.4 6.38933 80.2723 6.021 78.9463 6.021C78.2323 6.021 77.677 6.16267 77.2803 6.446C76.895 6.718 76.7023 7.075 76.7023 7.517C76.7023 7.84567 76.8213 8.112 77.0593 8.316C77.2973 8.52 77.711 8.68433 78.3003 8.809L80.2213 9.217C82.42 9.693 83.5193 10.7697 83.5193 12.447C83.5193 13.195 83.3153 13.8523 82.9073 14.419C82.5107 14.9743 81.944 15.4107 81.2073 15.728C80.482 16.034 79.6207 16.187 78.6233 16.187ZM78.6743 19.349C78.323 19.349 77.983 19.315 77.6543 19.247C77.337 19.1903 77.0593 19.0997 76.8213 18.975L77.1783 17.887C77.3823 17.989 77.5863 18.0627 77.7903 18.108C77.9943 18.1647 78.2097 18.193 78.4363 18.193C79.0257 18.193 79.3203 18.0457 79.3203 17.751C79.3203 17.5243 79.1107 17.411 78.6913 17.411C78.5893 17.411 78.4873 17.4167 78.3853 17.428C78.2947 17.4393 78.1813 17.462 78.0453 17.496L77.7053 17.156L77.9263 15.66H79.2183L79.0483 16.578C79.0823 16.578 79.1163 16.578 79.1503 16.578C79.6603 16.578 80.057 16.6857 80.3403 16.901C80.635 17.1277 80.7823 17.4393 80.7823 17.836C80.7823 18.2893 80.584 18.652 80.1873 18.924C79.802 19.2073 79.2977 19.349 78.6743 19.349ZM85.2299 16V4.015H87.8649V13.773H93.4069V16H85.2299ZM94.9751 16V4.015H103.186V6.072H97.4911V8.877H102.812V10.951H97.4911V13.943H103.186V16H94.9751ZM105.302 16V4.015H107.495L111.541 11.376L115.57 4.015H117.729V16H115.332V8.69L112.238 14.198H110.759L107.682 8.741V16H105.302ZM120.16 16V4.015H122.795V13.773H128.337V16H120.16ZM129.905 16V4.015H138.116V6.072H132.421V8.877H137.742V10.951H132.421V13.943H138.116V16H129.905ZM140.198 16V4.015H145.672C147.009 4.015 148.04 4.338 148.766 4.984C149.491 5.63 149.854 6.531 149.854 7.687C149.854 8.58233 149.621 9.33033 149.157 9.931C148.703 10.5203 148.052 10.9227 147.202 11.138C147.802 11.3193 148.295 11.7557 148.681 12.447L150.619 16H147.712L145.638 12.175C145.468 11.869 145.258 11.6593 145.009 11.546C144.759 11.4213 144.465 11.359 144.125 11.359H142.833V16H140.198ZM142.833 9.455H145.196C146.612 9.455 147.321 8.88833 147.321 7.755C147.321 6.633 146.612 6.072 145.196 6.072H142.833V9.455Z" fill="white"/>
</svg>
