<svg width="22" height="22" viewBox="0 0 22 22" fill="none" xmlns="http://www.w3.org/2000/svg">
<path d="M11 20.8542C5.56421 20.8542 1.14587 16.4358 1.14587 11C1.14587 5.56416 5.56421 1.14583 11 1.14583C16.4359 1.14583 20.8542 5.56416 20.8542 11C20.8542 16.4358 16.4359 20.8542 11 20.8542ZM11 2.52083C6.32504 2.52083 2.52087 6.325 2.52087 11C2.52087 15.675 6.32504 19.4792 11 19.4792C15.675 19.4792 19.4792 15.675 19.4792 11C19.4792 6.325 15.675 2.52083 11 2.52083Z" fill="#FF5858"/>
<path d="M4.49148 18.1041C4.31732 18.1041 4.14315 18.04 4.00565 17.9025C3.73982 17.6366 3.73982 17.1966 4.00565 16.9308L16.8389 4.09749C17.1048 3.83166 17.5448 3.83166 17.8106 4.09749C18.0764 4.36333 18.0764 4.80333 17.8106 5.06916L4.97732 17.9025C4.83982 18.04 4.66565 18.1041 4.49148 18.1041Z" fill="#FF5858"/>
</svg>
