<svg width="22" height="22" viewBox="0 0 22 22" fill="none" xmlns="http://www.w3.org/2000/svg">
<path d="M13.7506 20.8542H8.25058C7.04058 20.8542 6.03225 20.735 5.17975 20.4783C4.86808 20.3867 4.66641 20.0842 4.68475 19.7633C4.91391 17.0225 7.69141 14.8683 11.0006 14.8683C14.3097 14.8683 17.0781 17.0133 17.3164 19.7633C17.3439 20.0933 17.1422 20.3867 16.8214 20.4783C15.9689 20.735 14.9606 20.8542 13.7506 20.8542ZM6.16058 19.305C6.76558 19.4241 7.45308 19.4792 8.25058 19.4792H13.7506C14.5481 19.4792 15.2356 19.4241 15.8406 19.305C15.3547 17.545 13.3472 16.2433 11.0006 16.2433C8.65391 16.2433 6.64641 17.545 6.16058 19.305Z" fill="#96A0AF"/>
<path d="M13.75 1.83333H8.25004C3.66671 1.83333 1.83337 3.66666 1.83337 8.25V13.75C1.83337 17.215 2.87837 19.1125 5.37171 19.8183C5.57337 17.435 8.02087 15.5558 11 15.5558C13.9792 15.5558 16.4267 17.435 16.6284 19.8183C19.1217 19.1125 20.1667 17.215 20.1667 13.75V8.25C20.1667 3.66666 18.3334 1.83333 13.75 1.83333ZM11 12.9892C9.18504 12.9892 7.71837 11.5133 7.71837 9.69833C7.71837 7.88335 9.18504 6.41666 11 6.41666C12.815 6.41666 14.2817 7.88335 14.2817 9.69833C14.2817 11.5133 12.815 12.9892 11 12.9892Z" stroke="#96A0AF" stroke-width="1.5" stroke-linecap="round" stroke-linejoin="round"/>
<path d="M10.9999 13.6767C8.80909 13.6767 7.03076 11.8892 7.03076 9.69834C7.03076 7.50752 8.80909 5.72917 10.9999 5.72917C13.1907 5.72917 14.9691 7.50752 14.9691 9.69834C14.9691 11.8892 13.1907 13.6767 10.9999 13.6767ZM10.9999 7.10417C9.56991 7.10417 8.40576 8.26836 8.40576 9.69834C8.40576 11.1375 9.56991 12.3017 10.9999 12.3017C12.4299 12.3017 13.5941 11.1375 13.5941 9.69834C13.5941 8.26836 12.4299 7.10417 10.9999 7.10417Z" fill="#96A0AF"/>
</svg>
