<svg width="72" height="72" viewBox="0 0 72 72" fill="none" xmlns="http://www.w3.org/2000/svg">
<circle cx="36" cy="36" r="33" fill="#32A5DF" stroke="#32A5DF" stroke-width="6"/>
<path d="M54 53.9998C54 58.9704 45.9411 62.9998 36 62.9998C26.0589 62.9998 18 58.9704 18 53.9998C18 49.0293 26.0589 44.9998 36 44.9998C45.9411 44.9998 54 49.0293 54 53.9998Z" fill="white"/>
<path d="M45 29.9998C45 34.9704 40.9706 38.9998 36 38.9998C31.0294 38.9998 27 34.9704 27 29.9998C27 25.0293 31.0294 20.9998 36 20.9998C40.9706 20.9998 45 25.0293 45 29.9998Z" fill="white"/>
<path d="M36.3358 40.2687C36.28 40.2687 36.1963 40.2687 36.1404 40.2687C36.0567 40.2687 35.9451 40.2687 35.8614 40.2687C29.5264 40.0734 24.7822 35.1338 24.7822 29.05C24.7822 22.8547 29.8334 17.8035 36.0288 17.8035C42.2242 17.8035 47.2753 22.8547 47.2753 29.05C47.2474 35.1617 42.4753 40.0734 36.4195 40.2687C36.3637 40.2687 36.3637 40.2687 36.3358 40.2687ZM36.0009 21.9617C32.0939 21.9617 28.9404 25.1431 28.9404 29.0221C28.9404 32.8454 31.9265 35.9431 35.7218 36.0827C35.8056 36.0547 36.0846 36.0547 36.3637 36.0827C40.1032 35.8873 43.0335 32.8175 43.0614 29.0221C43.0614 25.1431 39.9079 21.9617 36.0009 21.9617Z" fill="white"/>
<path d="M36.0022 65.9994C28.4953 65.9994 21.3232 63.2087 15.7697 58.1296C15.2674 57.6831 15.0441 57.0133 15.0999 56.3715C15.4627 53.0506 17.5278 49.9529 20.9604 47.6645C29.2767 42.1389 42.7557 42.1389 51.0441 47.6645C54.4766 49.9808 56.5418 53.0506 56.9046 56.3715C56.9883 57.0413 56.7371 57.6831 56.2348 58.1296C50.6813 63.2087 43.5092 65.9994 36.0022 65.9994ZM19.4813 55.8133C24.1139 59.6924 29.9464 61.8133 36.0022 61.8133C42.058 61.8133 47.8906 59.6924 52.5232 55.8133C52.0208 54.111 50.6813 52.4645 48.6999 51.125C41.8348 46.5482 30.1976 46.5482 23.2767 51.125C21.2953 52.4645 19.9836 54.111 19.4813 55.8133Z" fill="white"/>
</svg>
